<?xml version="1.0" encoding="UTF-8" standalone="no"?>
<svg
   xmlns:osb="http://www.openswatchbook.org/uri/2009/osb"
   xmlns:dc="http://purl.org/dc/elements/1.1/"
   xmlns:cc="http://creativecommons.org/ns#"
   xmlns:rdf="http://www.w3.org/1999/02/22-rdf-syntax-ns#"
   xmlns:svg="http://www.w3.org/2000/svg"
   xmlns="http://www.w3.org/2000/svg"
   width="16.000017"
   version="1.1"
   style="enable-background:new"
   id="svg7384"
   height="16">
  <metadata
     id="metadata90">
    <rdf:RDF>
      <cc:Work
         rdf:about="">
        <dc:format>image/svg+xml</dc:format>
        <dc:type
           rdf:resource="http://purl.org/dc/dcmitype/StillImage" />
        <dc:title>Moka Symbolic Icon Theme</dc:title>
      </cc:Work>
    </rdf:RDF>
  </metadata>
  <title
     id="title8473">Moka Symbolic Icon Theme</title>
  <defs
     id="defs7386">
    <linearGradient
       id="linearGradient878"
       osb:paint="solid">
      <stop
         style="stop-color:#000000;stop-opacity:1;"
         offset="0"
         id="stop876" />
    </linearGradient>
    <linearGradient
       osb:paint="solid"
       id="linearGradient5606">
      <stop
         style="stop-color:#000000;stop-opacity:1;"
         offset="0"
         id="stop5608" />
    </linearGradient>
    <filter
       style="color-interpolation-filters:sRGB"
       id="filter7554">
      <feBlend
         mode="darken"
         in2="BackgroundImage"
         id="feBlend7556" />
    </filter>
  </defs>
  <g
     transform="translate(-421.0002,-23.996641)"
     style="display:inline"
     id="layer9" />
  <g
     transform="translate(-421.0002,-23.996641)"
     style="display:inline;filter:url(#filter7554)"
     id="layer10" />
  <g
     transform="translate(-180,-640.99664)"
     style="display:inline"
     id="layer1" />
  <g
     transform="translate(-421.0002,-23.996641)"
     style="display:inline"
     id="layer14" />
  <g
     transform="translate(-421.0002,-23.996641)"
     style="display:inline"
     id="layer15" />
  <g
     transform="translate(-421.0002,-23.996641)"
     style="display:inline"
     id="g71291" />
  <g
     transform="translate(-180,-490.99664)"
     style="display:inline"
     id="layer2" />
  <g
     transform="translate(-180,-490.99664)"
     style="display:inline"
     id="g6058" />
  <g
     id="g849">
    <path
       id="path2-3-3"
       style="color:#000000;isolation:auto;mix-blend-mode:normal;fill:#bebebe;fill-opacity:1;stroke-width:1.28569;marker:none;enable-background:new"
       d="M 2 0 C 1.446 0 1 0.446 1 1 L 1 15 C 1 15.554 1.446 16 2 16 L 9 16 L 9 13.990234 L 4 14 L 4 2 L 12.5 2 C 12.777 2 13 2.223 13 2.5 L 13 8.9921875 L 15 8.9921875 L 15 1 C 15 0.446 14.554 0 14 0 L 2 0 z M 8.1523438 3.2148438 C 6.7567878 3.2489248 5.6421621 4.3891851 5.6425781 5.7851562 C 5.6425781 7.2052869 6.7947123 8.3574219 8.2148438 8.3574219 C 9.6349741 8.3574219 10.785156 7.205287 10.785156 5.7851562 C 10.785156 4.3650256 9.6349742 3.2148438 8.2148438 3.2148438 C 8.1939258 3.2145881 8.1732748 3.2145881 8.1523438 3.2148438 z M 6.6074219 9 C 5.7170829 9 5 9.6057539 5 10.496094 C 5 11.386432 5.7170829 12 6.6074219 12 L 8.8574219 12 C 8.924471 12 8.9382167 11.99468 9 11.994141 A 1.0001 1.0001 0 0 1 10 11 L 11 11 L 11 10.003906 A 1.0001 1.0001 0 0 1 11.099609 9.5703125 C 10.806715 9.2143308 10.347609 9 9.8222656 9 L 6.6074219 9 z " />
    <path
       style="color:#000000;font-style:normal;font-variant:normal;font-weight:normal;font-stretch:normal;font-size:medium;line-height:normal;font-family:sans-serif;font-variant-ligatures:normal;font-variant-position:normal;font-variant-caps:normal;font-variant-numeric:normal;font-variant-alternates:normal;font-variant-east-asian:normal;font-feature-settings:normal;font-variation-settings:normal;text-indent:0;text-align:start;text-decoration:none;text-decoration-line:none;text-decoration-style:solid;text-decoration-color:#000000;letter-spacing:normal;word-spacing:normal;text-transform:none;writing-mode:lr-tb;direction:ltr;text-orientation:mixed;dominant-baseline:auto;baseline-shift:baseline;text-anchor:start;white-space:normal;shape-padding:0;shape-margin:0;inline-size:0;clip-rule:nonzero;display:inline;overflow:visible;visibility:visible;isolation:auto;mix-blend-mode:normal;color-interpolation:sRGB;color-interpolation-filters:linearRGB;solid-color:#000000;solid-opacity:1;vector-effect:none;fill:#bebebe;fill-opacity:1;fill-rule:nonzero;stroke:none;stroke-width:2;stroke-linecap:butt;stroke-linejoin:round;stroke-miterlimit:4;stroke-dasharray:none;stroke-dashoffset:0;stroke-opacity:1;marker:none;color-rendering:auto;image-rendering:auto;shape-rendering:auto;text-rendering:auto;enable-background:new;stop-color:#000000"
       d="m 12.000017,10.009767 v 1.996095 h -2 v 1.984375 l 2,0.01367 V 16 h 2 v -1.996094 h 2 V 12.00586 h -2 v -1.996094 z"
       id="path884" />
  </g>
</svg>
