<?xml version="1.0" encoding="UTF-8" standalone="no"?>
<svg
   xmlns:osb="http://www.openswatchbook.org/uri/2009/osb"
   xmlns:dc="http://purl.org/dc/elements/1.1/"
   xmlns:cc="http://creativecommons.org/ns#"
   xmlns:rdf="http://www.w3.org/1999/02/22-rdf-syntax-ns#"
   xmlns:svg="http://www.w3.org/2000/svg"
   xmlns="http://www.w3.org/2000/svg"
   xmlns:sodipodi="http://sodipodi.sourceforge.net/DTD/sodipodi-0.dtd"
   xmlns:inkscape="http://www.inkscape.org/namespaces/inkscape"
   height="16"
   version="1.1"
   width="16"
   enable-background="new"
   id="svg10"
   sodipodi:docname="application-exit-symbolic.svg"
   inkscape:version="0.92.3 (2405546, 2018-03-11)">
  <sodipodi:namedview
     pagecolor="#ffffff"
     bordercolor="#666666"
     borderopacity="1"
     objecttolerance="10"
     gridtolerance="10"
     guidetolerance="10"
     inkscape:pageopacity="0"
     inkscape:pageshadow="2"
     inkscape:window-width="1920"
     inkscape:window-height="996"
     id="namedview12"
     showgrid="true"
     inkscape:zoom="45.254834"
     inkscape:cx="2.0780457"
     inkscape:cy="7.1140391"
     inkscape:window-x="0"
     inkscape:window-y="0"
     inkscape:window-maximized="1"
     inkscape:current-layer="layer12">
    <inkscape:grid
       type="xygrid"
       id="grid4526" />
  </sodipodi:namedview>
  <metadata
     id="metadata90">
    <rdf:RDF>
      <cc:Work
         rdf:about="">
        <dc:format>image/svg+xml</dc:format>
        <dc:type
           rdf:resource="http://purl.org/dc/dcmitype/StillImage" />
        <dc:title />
      </cc:Work>
    </rdf:RDF>
  </metadata>
  <defs
     id="defs7386">
    <linearGradient
       id="linearGradient5606"
       osb:paint="solid">
      <stop
         id="stop5608" />
    </linearGradient>
  </defs>
  <g
     inkscape:groupmode="layer"
     id="layer12"
     inkscape:label="actions"
     transform="translate(-261.00018,-29)">
    <path
       style="color:#000000;font-variant-ligatures:normal;font-variant-position:normal;font-variant-caps:normal;font-variant-numeric:normal;font-variant-alternates:normal;font-feature-settings:normal;text-indent:0;text-decoration:none;text-decoration-line:none;text-decoration-style:solid;text-decoration-color:#000000;text-transform:none;text-orientation:mixed;dominant-baseline:auto;white-space:normal;shape-padding:0;isolation:auto;mix-blend-mode:normal;solid-color:#000000;fill:#bebebe;fill-opacity:1;fill-rule:evenodd;stroke-width:1.00000024;color-rendering:auto;image-rendering:auto;shape-rendering:auto"
       d="m 262.50747,29.000924 c -0.71606,-0.007 -1.37925,0.529797 -1.46883,1.249928 -0.0636,0.894004 -0.0149,1.82115 -0.0312,2.718593 0.005,2.887552 -0.0186,5.764732 0,8.651844 0.057,0.723349 0.67166,1.343995 1.40632,1.374921 0.22643,5.17e-4 0.38919,-3.93e-4 0.60551,0 l -0.0195,0.0039 5.00027,1.999884 v -2.00379 c 0.83545,-7.6e-4 1.62881,6.35e-4 2.60169,0 0.82222,-0.005 1.43572,-0.767392 1.40633,-1.56241 -5.9e-4,-0.478296 -1.1e-4,-0.956307 0,-1.435464 v -0.997989 -0.002 c 0.0191,-1.351723 -2.01921,-1.351723 -2.00011,0 v 0.002 0.937445 0.560515 c 0.003,0.49477 -0.53633,0.530063 -0.9063,0.498018 -0.43224,-0.0014 -0.73027,-7.98e-4 -1.10161,0 v -7.995632 l -4.76783,-1.90614 c 0.0812,-0.05594 0.17364,-0.09619 0.2754,-0.09374 h 4.49243 c 0.51949,3.8e-4 0.97978,-0.0062 1.60164,0 0.49723,0.105793 0.3976,0.685155 0.40627,1.062438 v 0.939399 c -0.0191,1.351722 2.01924,1.351722 2.00011,0 v -0.999942 c 9.3e-4,-0.542339 0.003,-1.085593 0,-1.626859 -0.0578,-0.759424 -0.72577,-1.403628 -1.50008,-1.374921 z m 10.49274,3.999769 v 0.999942 c 4e-5,0.265195 0.10542,0.519501 0.29298,0.706991 l 0.29299,0.292952 h -3.58613 c 6e-5,0.999982 0,0.999982 0,1.999884 h 3.58613 l -0.28323,0.283187 c -0.003,0.003 -0.007,0.0058 -0.01,0.0098 -0.18684,0.186799 -0.29294,0.441806 -0.29298,0.70699 v 0.999943 h 1.00005 c 0.26521,-4e-5 0.51956,-0.105413 0.70707,-0.292952 l 2.29309,-2.706875 -2.28332,-2.69711 c -0.18828,-0.193519 -0.44682,-0.302717 -0.71684,-0.302717 z m -8.00042,3.999769 h 2.0001 v 0.999942 h -2.0001 z"
       id="path9737"
       inkscape:connector-curvature="0" />
  </g>
</svg>
