<?xml version="1.0" encoding="UTF-8" standalone="no"?>
<svg
   xmlns:dc="http://purl.org/dc/elements/1.1/"
   xmlns:cc="http://creativecommons.org/ns#"
   xmlns:rdf="http://www.w3.org/1999/02/22-rdf-syntax-ns#"
   xmlns:svg="http://www.w3.org/2000/svg"
   xmlns="http://www.w3.org/2000/svg"
   xmlns:sodipodi="http://sodipodi.sourceforge.net/DTD/sodipodi-0.dtd"
   xmlns:inkscape="http://www.inkscape.org/namespaces/inkscape"
   width="16"
   height="16"
   version="1.1"
   id="svg2"
   inkscape:version="0.91 r13725"
   sodipodi:docname="bookmark-new-symbolic.svg">
  <metadata
     id="metadata10">
    <rdf:RDF>
      <cc:Work
         rdf:about="">
        <dc:format>image/svg+xml</dc:format>
        <dc:type
           rdf:resource="http://purl.org/dc/dcmitype/StillImage" />
      </cc:Work>
    </rdf:RDF>
  </metadata>
  <defs
     id="defs8" />
  <sodipodi:namedview
     pagecolor="#ffffff"
     bordercolor="#666666"
     borderopacity="1"
     objecttolerance="10"
     gridtolerance="10"
     guidetolerance="10"
     inkscape:pageopacity="0"
     inkscape:pageshadow="2"
     inkscape:window-width="1920"
     inkscape:window-height="1026"
     id="namedview6"
     showgrid="true"
     inkscape:zoom="236"
     inkscape:cx="8.5817365"
     inkscape:cy="8.1754023"
     inkscape:window-x="0"
     inkscape:window-y="0"
     inkscape:window-maximized="1"
     inkscape:current-layer="svg2">
    <inkscape:grid
       type="xygrid"
       id="grid4138" />
  </sodipodi:namedview>
  <path
     style="fill:#bebebe;fill-opacity:1"
     d="M 3,0 C 3,0 1.928753,0.0025413 2,1 l 0,14 6,-3 6,3 0,-14 c 0,0 0,-1 -1,-1 z m 2.0039062,2 5.9999998,0 c 1,0 1,1 1,1 l 0,9 -3.9999998,-2 -4,2 0,-9 c 0,-1.0000013 1,-1 1,-1 z"
     id="path4"
     inkscape:connector-curvature="0"
     sodipodi:nodetypes="ccccccsccsccccsc" />
  <path
     style="fill:#bebebe;fill-opacity:1"
     d="M 7,3 7,5 5,5 5,7 7,7 7,9 9,9 9,7 11,7 11,5 9,5 9,3 7,3 Z"
     id="path4-1"
     inkscape:connector-curvature="0" />
</svg>
