<?xml version="1.0" encoding="UTF-8" standalone="no"?>
<!-- Created with Inkscape (http://www.inkscape.org/) -->

<svg
   xmlns:osb="http://www.openswatchbook.org/uri/2009/osb"
   xmlns:dc="http://purl.org/dc/elements/1.1/"
   xmlns:cc="http://creativecommons.org/ns#"
   xmlns:rdf="http://www.w3.org/1999/02/22-rdf-syntax-ns#"
   xmlns:svg="http://www.w3.org/2000/svg"
   xmlns="http://www.w3.org/2000/svg"
   xmlns:sodipodi="http://sodipodi.sourceforge.net/DTD/sodipodi-0.dtd"
   xmlns:inkscape="http://www.inkscape.org/namespaces/inkscape"
   width="16"
   height="16"
   id="svg2"
   sodipodi:version="0.32"
   inkscape:version="0.91 r13725"
   version="1.0"
   sodipodi:docname="document-open-symbolic.svg"
   inkscape:output_extension="org.inkscape.output.svg.inkscape"
   inkscape:export-filename="/home/matt/.icons/Sirocco/scalable/mimetypes/text-plain.png"
   inkscape:export-xdpi="90"
   inkscape:export-ydpi="90"
   sodipodi:modified="true"
   style="display:inline">
  <sodipodi:namedview
     id="base"
     pagecolor="#ffffff"
     bordercolor="#666666"
     borderopacity="1.0"
     inkscape:pageopacity="0.0"
     inkscape:pageshadow="2"
     inkscape:zoom="32"
     inkscape:cx="5.2840591"
     inkscape:cy="8.2832379"
     inkscape:document-units="px"
     inkscape:current-layer="layer1"
     width="128px"
     height="128px"
     inkscape:showpageshadow="false"
     inkscape:window-width="1920"
     inkscape:window-height="1026"
     inkscape:window-x="0"
     inkscape:window-y="0"
     showguides="true"
     inkscape:guide-bbox="true"
     showgrid="true"
     inkscape:window-maximized="1"
     inkscape:snap-bbox="true"
     inkscape:bbox-paths="true"
     inkscape:bbox-nodes="true"
     inkscape:snap-bbox-edge-midpoints="true">
    <sodipodi:guide
       id="guide2226"
       position="32.637397,117.99844"
       orientation="horizontal" />
    <sodipodi:guide
       id="guide2230"
       position="110,57.402344"
       orientation="vertical" />
    <sodipodi:guide
       id="guide2232"
       position="33.760911"
       orientation="horizontal" />
    <sodipodi:guide
       id="guide2231"
       position="46.774696"
       orientation="horizontal" />
    <inkscape:grid
       enabled="true"
       visible="true"
       id="grid3231"
       type="xygrid" />
    <sodipodi:guide
       orientation="1,0"
       position="100,67.625"
       id="guide2713" />
  </sodipodi:namedview>
  <defs
     id="defs4">
    <linearGradient
       osb:paint="solid"
       id="linearGradient5606">
      <stop
         style="stop-color:#000000;stop-opacity:1;"
         offset="0"
         id="stop5608" />
    </linearGradient>
    <filter
       id="filter7554"
       color-interpolation-filters="sRGB"
       inkscape:collect="always">
      <feBlend
         mode="darken"
         in2="BackgroundImage"
         id="feBlend7556"
         inkscape:collect="always" />
    </filter>
  </defs>
  <metadata
     id="metadata7">
    <rdf:RDF>
      <cc:Work
         rdf:about="">
        <dc:format>image/svg+xml</dc:format>
        <dc:type
           rdf:resource="http://purl.org/dc/dcmitype/StillImage" />
        <dc:title />
      </cc:Work>
    </rdf:RDF>
  </metadata>
  <g
     style="display:inline"
     inkscape:label="Calque 1"
     id="layer1"
     inkscape:groupmode="layer">
    <path
       style="display:inline;fill:#bebebe;fill-opacity:1;stroke:none"
       d="M 3,0 C 2.446,0 2,0.446 2,1 1.446,1 1,1.446 1,2 L 2,2 15,2 C 15,1.446 14.554,1 14,1 L 7,1 C 7,0.446 6.554,0 6,0 Z"
       id="path3028"
       inkscape:connector-curvature="0"
       sodipodi:nodetypes="sccccscss" />
    <g
       id="layer9"
       inkscape:label="status"
       style="display:inline"
       transform="translate(-840.0002,470.00693)" />
    <g
       id="layer10"
       inkscape:label="devices"
       style="display:inline;filter:url(#filter7554)"
       transform="translate(-840.0002,470.00693)" />
    <g
       id="layer14"
       inkscape:label="mimetypes"
       style="display:inline"
       transform="translate(-840.0002,470.00693)" />
    <g
       id="layer15"
       inkscape:label="emblems"
       style="display:inline"
       transform="translate(-840.0002,470.00693)" />
    <g
       id="g71291"
       inkscape:label="emotes"
       style="display:inline"
       transform="translate(-840.0002,470.00693)" />
    <g
       id="layer2"
       inkscape:label="categories"
       style="display:inline"
       transform="translate(-599,3.006937)" />
    <g
       id="g6058"
       inkscape:label="apps"
       style="display:inline"
       transform="translate(-599,3.006937)" />
    <g
       id="layer12"
       inkscape:label="actions"
       style="display:inline"
       transform="translate(-840.0002,470.00693)" />
    <path
       inkscape:connector-curvature="0"
       style="display:inline;opacity:1;fill:#bebebe;fill-opacity:1;stroke:none"
       d="m 6.504171,6.0009246 c -0.7146879,-0.007 -1.3766142,0.5292593 -1.4660176,1.2493376 -0.063482,0.8939263 -0.014872,1.8199455 -0.031142,2.7173099 0.00499,2.8872999 -0.018565,1.7676929 0,4.6545529 0.056894,0.723287 0.6703705,1.343338 1.4036338,1.374272 3.0558843,0.007 2.1222813,0.002 5.1782357,0 0.82064,-0.005 1.432969,-0.766734 1.403634,-1.561672 -0.005,-3.68048 0.01857,-3.379489 0,-7.059529 -0.05769,-0.7593675 -0.72438,-1.4029762 -1.49721,-1.3742714 l -4.9910841,0 z M 7.5023106,7.999865 c 2.3624368,0.007 0.7267923,-0.023587 3.0883804,0 0.496275,0.1057739 0.396841,0.6846871 0.405495,1.0619371 l 0,4.4359189 c 0.003,0.494718 -0.535303,0.531778 -0.904564,0.499735 -2.2274689,-0.007 -0.456267,0.02359 -2.682887,0 C 6.91246,13.891662 7.0118947,13.312759 7.0032408,12.935519 l 0,-4.4359189 C 6.997252,8.2309725 7.2339608,7.9933884 7.5023106,7.999865 Z"
       id="path4102"
       sodipodi:nodetypes="cccccccccccccccccccc" />
    <path
       style="display:inline;fill:#bebebe;fill-opacity:1;stroke:none"
       d="M 1.5 3 C 0.669 3 0 3.6192276 0 4.3886719 L 0 11.611328 C 0 12.380773 0.669 13 1.5 13 L 4.0078125 13 C 4.0100289 11.831263 4.0108361 10.716291 4.0078125 8.9667969 C 4.0240825 8.0694329 3.9755805 7.143927 4.0390625 6.25 C 4.1284659 5.529922 4.7892183 4.993 5.5039062 5 L 12.496094 5 C 13.268924 4.971295 13.934498 5.615633 13.992188 6.375 C 14.005766 9.0658162 13.996027 10.878352 13.992188 13 L 14.5 13 C 15.331 13 16 12.380773 16 11.611328 L 16 4.3886719 C 16 3.6192276 15.331 3 14.5 3 L 1.5 3 z "
       id="path3040" />
  </g>
</svg>
