<?xml version="1.0" encoding="UTF-8" standalone="no"?>
<svg
   xmlns:osb="http://www.openswatchbook.org/uri/2009/osb"
   xmlns:dc="http://purl.org/dc/elements/1.1/"
   xmlns:cc="http://creativecommons.org/ns#"
   xmlns:rdf="http://www.w3.org/1999/02/22-rdf-syntax-ns#"
   xmlns:svg="http://www.w3.org/2000/svg"
   xmlns="http://www.w3.org/2000/svg"
   xmlns:sodipodi="http://sodipodi.sourceforge.net/DTD/sodipodi-0.dtd"
   xmlns:inkscape="http://www.inkscape.org/namespaces/inkscape"
   height="16"
   version="1.1"
   width="16"
   enable-background="new"
   id="svg10"
   sodipodi:docname="document-revert-symbolic.svg"
   inkscape:version="0.92.3 (2405546, 2018-03-11)">
  <sodipodi:namedview
     pagecolor="#ffffff"
     bordercolor="#666666"
     borderopacity="1"
     objecttolerance="10"
     gridtolerance="10"
     guidetolerance="10"
     inkscape:pageopacity="0"
     inkscape:pageshadow="2"
     inkscape:window-width="1920"
     inkscape:window-height="996"
     id="namedview12"
     showgrid="true"
     inkscape:zoom="29.5"
     inkscape:cx="12.281142"
     inkscape:cy="7.949372"
     inkscape:window-x="0"
     inkscape:window-y="0"
     inkscape:window-maximized="1"
     inkscape:current-layer="layer12">
    <inkscape:grid
       type="xygrid"
       id="grid4526" />
  </sodipodi:namedview>
  <metadata
     id="metadata90">
    <rdf:RDF>
      <cc:Work
         rdf:about="">
        <dc:format>image/svg+xml</dc:format>
        <dc:type
           rdf:resource="http://purl.org/dc/dcmitype/StillImage" />
        <dc:title />
      </cc:Work>
    </rdf:RDF>
  </metadata>
  <defs
     id="defs7386">
    <linearGradient
       id="linearGradient5606"
       osb:paint="solid">
      <stop
         id="stop5608" />
    </linearGradient>
  </defs>
  <g
     inkscape:groupmode="layer"
     id="layer12"
     inkscape:label="actions"
     transform="translate(-261.00018,-29)">
    <path
       style="display:inline;opacity:1;fill:#bebebe;fill-opacity:1;stroke:none"
       d="M 3.5 0.99804688 C 2.78398 0.99104687 2.12082 1.5275969 2.03125 2.2480469 C 1.96765 3.1424469 2.0163 4.0689569 2 4.9667969 C 2.005 7.8556269 1.9814 10.734657 2 13.623047 C 2.057 14.346717 2.67162 14.967107 3.40625 14.998047 C 6.46783 15.005047 9.5321 15.000047 12.59375 14.998047 C 13.41592 14.993047 14.02939 14.230917 14 13.435547 C 13.998899 12.624814 13.999084 11.811911 14 11 L 14 10 C 14 8.6667 13.185746 7.7246687 12.447266 7.3554688 C 11.708746 6.9862088 11 7 11 7 L 9.4140625 7 L 9.6972656 6.7167969 C 9.7002656 6.7137969 9.7040313 6.7110312 9.7070312 6.7070312 C 9.8938612 6.5202212 9.99996 6.2652 10 6 L 10 5 L 9 5 C 8.7348 5.00004 8.4804688 5.1054188 8.2929688 5.2929688 L 5.5859375 8 L 8.2832031 10.697266 C 8.4714731 10.890806 8.73 11 9 11 L 10 11 L 10 10 C 9.99996 9.7348 9.8945813 9.4804688 9.7070312 9.2929688 L 9.4140625 9 L 11 9 C 11 9 11.291254 9.0138013 11.552734 9.1445312 C 11.814224 9.2752713 12 9.33333 12 10 L 12 11 L 12 12.498047 C 12.003 12.993037 11.4637 13.030107 11.09375 12.998047 C 8.86213 12.991047 6.63702 13.021647 4.40625 12.998047 C 3.90905 12.892207 4.00867 12.312997 4 11.935547 L 4 3.4980469 C 3.994 3.2292869 4.23115 2.9915769 4.5 2.9980469 C 6.86684 3.0050469 9.22776 2.9744469 11.59375 2.9980469 C 12.09095 3.1038869 11.99133 3.6830969 12 4.0605469 L 12 5 C 11.9809 6.35232 14.01913 6.35232 14 5 L 14 4 C 14.000926 3.457422 14.002736 2.9145542 14 2.3730469 C 13.9422 1.6132869 13.27427 0.96932685 12.5 0.99804688 L 3.5 0.99804688 z "
       transform="translate(261.00018,29)"
       id="path4102" />
  </g>
</svg>
