<?xml version="1.0" encoding="UTF-8" standalone="no"?>
<svg
   xmlns:osb="http://www.openswatchbook.org/uri/2009/osb"
   xmlns:dc="http://purl.org/dc/elements/1.1/"
   xmlns:cc="http://creativecommons.org/ns#"
   xmlns:rdf="http://www.w3.org/1999/02/22-rdf-syntax-ns#"
   xmlns:svg="http://www.w3.org/2000/svg"
   xmlns="http://www.w3.org/2000/svg"
   xmlns:sodipodi="http://sodipodi.sourceforge.net/DTD/sodipodi-0.dtd"
   xmlns:inkscape="http://www.inkscape.org/namespaces/inkscape"
   height="16"
   version="1.1"
   width="16"
   enable-background="new"
   id="svg10"
   sodipodi:docname="document-save-symbolic.svg"
   inkscape:version="0.92.3 (2405546, 2018-03-11)">
  <sodipodi:namedview
     pagecolor="#ffffff"
     bordercolor="#666666"
     borderopacity="1"
     objecttolerance="10"
     gridtolerance="10"
     guidetolerance="10"
     inkscape:pageopacity="0"
     inkscape:pageshadow="2"
     inkscape:window-width="1920"
     inkscape:window-height="996"
     id="namedview12"
     showgrid="true"
     inkscape:zoom="32"
     inkscape:cx="5.269983"
     inkscape:cy="4.7307317"
     inkscape:window-x="0"
     inkscape:window-y="0"
     inkscape:window-maximized="1"
     inkscape:current-layer="layer12">
    <inkscape:grid
       type="xygrid"
       id="grid4526" />
  </sodipodi:namedview>
  <metadata
     id="metadata90">
    <rdf:RDF>
      <cc:Work
         rdf:about="">
        <dc:format>image/svg+xml</dc:format>
        <dc:type
           rdf:resource="http://purl.org/dc/dcmitype/StillImage" />
        <dc:title />
      </cc:Work>
    </rdf:RDF>
  </metadata>
  <defs
     id="defs7386">
    <linearGradient
       id="linearGradient5606"
       osb:paint="solid">
      <stop
         id="stop5608" />
    </linearGradient>
  </defs>
  <g
     inkscape:groupmode="layer"
     id="layer12"
     inkscape:label="actions"
     transform="translate(-261.00018,-29)">
    <path
       inkscape:connector-curvature="0"
       style="fill:#bebebe;fill-opacity:1"
       d="m 263.00018,30 c 0,0 -1,0 -1,1 v 12 c 0,1 1,1 1,1 h 12 c 0,0 1,0 1,-1 V 32 l -2,-2 z m 2,1 h 8 v 4 c 0,1 -1,1 -1,1 h -6 c 0,0 -1,0 -1,-1 z m 5,1 v 3 h 2 v -3 z m -5,5 h 8 c 0,0 1,0 1,1 v 5 h -10 v -5 c 0,-1 1,-1 1,-1 z"
       id="path2"
       sodipodi:nodetypes="cssccscccccccccccccccccsccsc" />
  </g>
</svg>
