<?xml version="1.0" encoding="UTF-8" standalone="no"?>
<svg
   xmlns:osb="http://www.openswatchbook.org/uri/2009/osb"
   xmlns:dc="http://purl.org/dc/elements/1.1/"
   xmlns:cc="http://creativecommons.org/ns#"
   xmlns:rdf="http://www.w3.org/1999/02/22-rdf-syntax-ns#"
   xmlns:svg="http://www.w3.org/2000/svg"
   xmlns="http://www.w3.org/2000/svg"
   xmlns:sodipodi="http://sodipodi.sourceforge.net/DTD/sodipodi-0.dtd"
   xmlns:inkscape="http://www.inkscape.org/namespaces/inkscape"
   height="16"
   version="1.1"
   width="16"
   enable-background="new"
   id="svg10"
   sodipodi:docname="document-revert-symbolic-rtl.svg"
   inkscape:version="0.92.3 (2405546, 2018-03-11)">
  <sodipodi:namedview
     pagecolor="#ffffff"
     bordercolor="#666666"
     borderopacity="1"
     objecttolerance="10"
     gridtolerance="10"
     guidetolerance="10"
     inkscape:pageopacity="0"
     inkscape:pageshadow="2"
     inkscape:window-width="1920"
     inkscape:window-height="1012"
     id="namedview12"
     showgrid="true"
     inkscape:zoom="29.5"
     inkscape:cx="5.8235149"
     inkscape:cy="7.949372"
     inkscape:window-x="0"
     inkscape:window-y="0"
     inkscape:window-maximized="1"
     inkscape:current-layer="layer12">
    <inkscape:grid
       type="xygrid"
       id="grid4526" />
  </sodipodi:namedview>
  <metadata
     id="metadata90">
    <rdf:RDF>
      <cc:Work
         rdf:about="">
        <dc:format>image/svg+xml</dc:format>
        <dc:type
           rdf:resource="http://purl.org/dc/dcmitype/StillImage" />
        <dc:title />
      </cc:Work>
    </rdf:RDF>
  </metadata>
  <defs
     id="defs7386">
    <linearGradient
       id="linearGradient5606"
       osb:paint="solid">
      <stop
         id="stop5608" />
    </linearGradient>
  </defs>
  <g
     inkscape:groupmode="layer"
     id="layer12"
     inkscape:label="actions"
     transform="translate(-261.00018,-29)">
    <path
       style="display:inline;opacity:1;fill:#bebebe;fill-opacity:1;stroke:none"
       d="m 273.49437,29.998047 c 0.71602,-0.007 1.37918,0.52955 1.46875,1.25 0.0636,0.8944 0.0149,1.82091 0.0312,2.71875 -0.005,2.88883 0.0186,5.76786 0,8.65625 -0.057,0.72367 -0.67162,1.34406 -1.40625,1.375 -3.06158,0.007 -6.12585,0.002 -9.1875,0 -0.82217,-0.005 -1.43564,-0.76713 -1.40625,-1.5625 0.001,-0.810733 9.1e-4,-1.623636 0,-2.435547 v -1 c 0,-1.3333 0.81425,-2.275331 1.55273,-2.644531 C 265.28562,35.986209 265.99437,36 265.99437,36 h 1.58593 l -0.2832,-0.283203 c -0.003,-0.003 -0.007,-0.0058 -0.01,-0.0098 C 267.10051,35.520221 266.99441,35.2652 266.99437,35 v -1 h 1 c 0.2652,4e-5 0.51953,0.105419 0.70703,0.292969 L 271.40843,37 268.71116,39.697266 C 268.52289,39.890806 268.26437,40 267.99437,40 h -1 v -1 c 4e-5,-0.2652 0.10542,-0.519531 0.29297,-0.707031 L 267.5803,38 h -1.58593 c 0,0 -0.29126,0.0138 -0.55274,0.144531 -0.26149,0.13074 -0.44726,0.188799 -0.44726,0.855469 v 1 1.498047 c -0.003,0.49499 0.5363,0.53206 0.90625,0.5 2.23162,-0.007 4.45673,0.0236 6.6875,0 0.4972,-0.10584 0.39758,-0.68505 0.40625,-1.0625 v -8.4375 c 0.006,-0.26876 -0.23115,-0.50647 -0.5,-0.5 -2.36684,0.007 -4.72776,-0.0236 -7.09375,0 -0.4972,0.10584 -0.39758,0.68505 -0.40625,1.0625 V 34 c 0.0191,1.35232 -2.01913,1.35232 -2,0 v -1 c -9.3e-4,-0.542578 -0.003,-1.085446 0,-1.626953 0.0578,-0.75976 0.72573,-1.40372 1.5,-1.375 z"
       id="path4102"
       inkscape:connector-curvature="0" />
  </g>
</svg>
