<?xml version="1.0" encoding="UTF-8" standalone="no"?>
<svg
   xmlns:osb="http://www.openswatchbook.org/uri/2009/osb"
   xmlns:dc="http://purl.org/dc/elements/1.1/"
   xmlns:cc="http://creativecommons.org/ns#"
   xmlns:rdf="http://www.w3.org/1999/02/22-rdf-syntax-ns#"
   xmlns:svg="http://www.w3.org/2000/svg"
   xmlns="http://www.w3.org/2000/svg"
   xmlns:sodipodi="http://sodipodi.sourceforge.net/DTD/sodipodi-0.dtd"
   xmlns:inkscape="http://www.inkscape.org/namespaces/inkscape"
   width="16"
   version="1.1"
   style="enable-background:new"
   id="svg7384"
   height="16"
   inkscape:version="0.92.5 (2060ec1f9f, 2020-04-08)"
   sodipodi:docname="system-switch-user-symbolic.svg">
  <sodipodi:namedview
     pagecolor="#ffffff"
     bordercolor="#666666"
     borderopacity="1"
     objecttolerance="10"
     gridtolerance="10"
     guidetolerance="10"
     inkscape:pageopacity="0"
     inkscape:pageshadow="2"
     inkscape:window-width="1920"
     inkscape:window-height="1016"
     id="namedview21"
     showgrid="true"
     inkscape:zoom="22.627417"
     inkscape:cx="-4.7488441"
     inkscape:cy="9.3655067"
     inkscape:window-x="0"
     inkscape:window-y="0"
     inkscape:window-maximized="1"
     inkscape:current-layer="svg7384">
    <inkscape:grid
       type="xygrid"
       id="grid4167" />
  </sodipodi:namedview>
  <metadata
     id="metadata90">
    <rdf:RDF>
      <cc:Work
         rdf:about="">
        <dc:format>image/svg+xml</dc:format>
        <dc:type
           rdf:resource="http://purl.org/dc/dcmitype/StillImage" />
        <dc:title>Moka Symbolic Icon Theme</dc:title>
      </cc:Work>
    </rdf:RDF>
  </metadata>
  <title
     id="title8473">Moka Symbolic Icon Theme</title>
  <defs
     id="defs7386">
    <linearGradient
       osb:paint="solid"
       id="linearGradient5606">
      <stop
         style="stop-color:#000000;stop-opacity:1;"
         offset="0"
         id="stop5608" />
    </linearGradient>
    <filter
       style="color-interpolation-filters:sRGB"
       id="filter7554">
      <feBlend
         mode="darken"
         in2="BackgroundImage"
         id="feBlend7556" />
    </filter>
  </defs>
  <g
     transform="translate(-661.0002,-14.99664)"
     style="display:inline"
     id="layer9" />
  <g
     transform="translate(-661.0002,-14.99664)"
     style="display:inline;filter:url(#filter7554)"
     id="layer10" />
  <g
     transform="translate(-420,-631.99664)"
     style="display:inline"
     id="layer1" />
  <g
     transform="translate(-661.0002,-14.99664)"
     style="display:inline"
     id="layer14" />
  <g
     transform="translate(-661.0002,-14.99664)"
     style="display:inline"
     id="layer15" />
  <g
     transform="translate(-661.0002,-14.99664)"
     style="display:inline"
     id="g71291" />
  <g
     transform="translate(-420,-481.99664)"
     style="display:inline"
     id="layer2" />
  <g
     transform="translate(-661.0002,-14.99664)"
     style="display:inline"
     id="layer12" />
  <path
     inkscape:connector-curvature="0"
     d="m 15.156604,15.98976 0.83984,0 0,-1 c 0.008,-1.67271 0,-4.9999999 0,-4.9999999 0,0 -3.986139,0 -5.9999993,0 l 0,0.8456999 c -0.0954,0.61124 0.3814003,1.16164 1.0000003,1.1543 l 1.58594,0 -1.64298,1.64299 -0.64999,0.64998 c -0.6540903,0.63582 -0.18523,1.74367 0.72657,1.71679 0.25979,-0.008 0.50637,-0.11632 0.6875,-0.30273 l 0.62788,-0.62789 1.665079,-1.66508 0,1.58594 c 0,0.68107 0.4492,1 1.16016,1 z"
     id="path12113-8-6"
     sodipodi:nodetypes="cccccccccccccccc"
     style="color:#000000;font-style:normal;font-variant:normal;font-weight:normal;font-stretch:normal;font-size:medium;line-height:normal;font-family:sans-serif;text-indent:0;text-align:start;text-decoration:none;text-decoration-line:none;text-decoration-style:solid;text-decoration-color:#000000;letter-spacing:normal;word-spacing:normal;text-transform:none;direction:ltr;writing-mode:lr-tb;baseline-shift:baseline;text-anchor:start;white-space:normal;clip-rule:nonzero;display:inline;overflow:visible;visibility:visible;opacity:1;isolation:auto;mix-blend-mode:normal;color-interpolation:sRGB;color-interpolation-filters:linearRGB;solid-color:#000000;solid-opacity:1;fill:#bebebe;fill-opacity:1;fill-rule:nonzero;stroke:none;stroke-width:2;stroke-linecap:round;stroke-linejoin:round;stroke-miterlimit:4;stroke-dasharray:none;stroke-dashoffset:0;stroke-opacity:1;marker:none;color-rendering:auto;image-rendering:auto;shape-rendering:auto;text-rendering:auto;enable-background:new" />
  <path
     inkscape:connector-curvature="0"
     id="path883"
     style="opacity:1;fill:#bebebe;fill-opacity:1;stroke:none;stroke-width:1.80120921;stroke-linecap:round;stroke-linejoin:round;stroke-opacity:1;enable-background:new"
     d="M 4.5105473,4.307172 C 2.522322,4.307172 0.910546,5.9211111 0.910546,7.9120057 0.910593,9.7963572 2.35997,11.362744 4.2363285,11.506278 2.135169,11.569698 0.699678,12.376574 0,14.197583 0,15.196122 0.8028,16 1.8,16 H 7.2000001 C 8.1971999,16 9,15.196122 9,14.197583 8.954435,12.686553 6.9083654,11.58979 4.7478508,11.509799 6.6401397,11.384623 8.1109678,9.8109651 8.110546,7.9120057 8.110546,5.9211111 6.4987726,4.307172 4.5105473,4.307172 Z"
     sodipodi:nodetypes="scccsscccs" />
  <path
     inkscape:connector-curvature="0"
     id="path883-3"
     style="opacity:1;fill:#bebebe;fill-opacity:1;stroke:none;stroke-width:1.38639522;stroke-linecap:round;stroke-linejoin:round;stroke-opacity:1;enable-background:new"
     d="M 12.544457,0 C 11.014116,0 9.7735265,1.242253 9.7735265,2.7746495 9.7735636,4.2250396 10.889152,5.4306915 12.33339,5.5411699 10.716123,5.5899839 9.6112215,6.2110389 9.0726775,7.612674 9.0726775,8.381253 9.6905945,9 10.458143,9 h 4.156392 C 15.382082,9 16,8.381253 16,7.612674 15.96493,6.4496306 14.390064,5.6054493 12.727111,5.54388 14.183611,5.447532 15.315709,4.2362834 15.315384,2.7746495 15.315384,1.242253 14.074799,0 12.544457,0 Z"
     sodipodi:nodetypes="scccsscccs" />
</svg>
