<?xml version="1.0" encoding="UTF-8" standalone="no"?>
<svg
   xmlns:dc="http://purl.org/dc/elements/1.1/"
   xmlns:cc="http://creativecommons.org/ns#"
   xmlns:rdf="http://www.w3.org/1999/02/22-rdf-syntax-ns#"
   xmlns:svg="http://www.w3.org/2000/svg"
   xmlns="http://www.w3.org/2000/svg"
   xmlns:sodipodi="http://sodipodi.sourceforge.net/DTD/sodipodi-0.dtd"
   xmlns:inkscape="http://www.inkscape.org/namespaces/inkscape"
   height="16"
   width="16.005"
   version="1.1"
   id="svg8"
   sodipodi:docname="tools-check-spelling-symbolic.svg"
   inkscape:version="0.92.3 (2405546, 2018-03-11)">
  <metadata
     id="metadata14">
    <rdf:RDF>
      <cc:Work
         rdf:about="">
        <dc:format>image/svg+xml</dc:format>
        <dc:type
           rdf:resource="http://purl.org/dc/dcmitype/StillImage" />
      </cc:Work>
    </rdf:RDF>
  </metadata>
  <defs
     id="defs12" />
  <sodipodi:namedview
     pagecolor="#ffffff"
     bordercolor="#666666"
     borderopacity="1"
     objecttolerance="10"
     gridtolerance="10"
     guidetolerance="10"
     inkscape:pageopacity="0"
     inkscape:pageshadow="2"
     inkscape:window-width="1920"
     inkscape:window-height="1012"
     id="namedview10"
     showgrid="true"
     inkscape:zoom="32"
     inkscape:cx="6.162596"
     inkscape:cy="7.528832"
     inkscape:window-x="0"
     inkscape:window-y="0"
     inkscape:window-maximized="1"
     inkscape:current-layer="svg8">
    <inkscape:grid
       type="xygrid"
       id="grid874" />
  </sodipodi:namedview>
  <path
     style="fill:#bebebe;fill-opacity:1"
     d="m 7.9989274,1.9765315 v 9.0234375 h 3.0019536 c 0.93855,0 1.768828,-0.372534 2.298828,-0.958984 0.53,-0.5864404 0.765739,-1.3366066 0.755859,-2.0664066 -0.01,-0.72982 -0.262222,-1.4657688 -0.789062,-2.0429688 -0.53,-0.577 -1.349531,-0.9550781 -2.269531,-0.9550781 H 9.9950212 v -3 z m -5.9941406,1 L 2,4.999969 H 5 C 5,5.3510958 5,5.7123225 5.00479,5.9941096 H 4.0008806 c -1.7159001,0 -3.03008752,1.125475 -3.05468752,2.484375 -0.0123,0.6794499 0.30582812,1.3629656 0.86132812,1.8222654 0.5555,0.45927 1.3153593,0.699219 2.1933594,0.699219 H 7.0047868 V 5.0702815 c 0,-1.1712 -0.8871344,-2.0820313 -2.0839844,-2.0820313 z m 7.9941406,4 h 1.0019536 c 0.42179,0 0.625509,0.1256944 0.787109,0.3027344 0.161601,0.17705 0.263838,0.4468462 0.267578,0.7226562 0.004,0.27581 -0.0886,0.5294856 -0.240234,0.6972657 -0.15162,0.1677701 -0.355693,0.3007812 -0.814453,0.3007812 H 9.9989274 Z M 4.0008806,7.9941096 H 5.0047868 V 8.999969 H 4.0008806 C 3.4814705,8.999969 3.2070887,8.8640246 3.0809587,8.7597346 2.9548187,8.6554546 2.944893,8.5856009 2.946193,8.5136409 2.949193,8.3697109 3.031084,7.9941096 4.0008806,7.9941096 Z M 2.5106462,11.792938 0.15517745,14.146453 c -0.47135447,0.472656 0.23762991,1.179688 0.70898438,0.707032 L 2.5106462,13.207 l 2,2 2,-2 2,2 1.9999998,-2 2,2 2.353516,-2.353515 c 0.471354,-0.472656 -0.23763,-1.179688 -0.708984,-0.707032 l -1.644532,1.646485 -2,-2 -1.9999998,2 -2,-2 -2,2 z"
     id="path5-3"
     inkscape:connector-curvature="0"
     sodipodi:nodetypes="ccscccscccccccsscscscccscccsccsccsccsccccccccccccccccc" />
</svg>
