<?xml version="1.0" encoding="UTF-8" standalone="no"?>
<svg
   xmlns:dc="http://purl.org/dc/elements/1.1/"
   xmlns:cc="http://creativecommons.org/ns#"
   xmlns:rdf="http://www.w3.org/1999/02/22-rdf-syntax-ns#"
   xmlns:svg="http://www.w3.org/2000/svg"
   xmlns="http://www.w3.org/2000/svg"
   xmlns:sodipodi="http://sodipodi.sourceforge.net/DTD/sodipodi-0.dtd"
   xmlns:inkscape="http://www.inkscape.org/namespaces/inkscape"
   width="16"
   height="16"
   version="1.1"
   id="svg2"
   inkscape:version="0.91 r13725"
   sodipodi:docname="zoom-original-symbolic.svg">
  <metadata
     id="metadata10">
    <rdf:RDF>
      <cc:Work
         rdf:about="">
        <dc:format>image/svg+xml</dc:format>
        <dc:type
           rdf:resource="http://purl.org/dc/dcmitype/StillImage" />
      </cc:Work>
    </rdf:RDF>
  </metadata>
  <defs
     id="defs8" />
  <sodipodi:namedview
     pagecolor="#ffffff"
     bordercolor="#666666"
     borderopacity="1"
     objecttolerance="10"
     gridtolerance="10"
     guidetolerance="10"
     inkscape:pageopacity="0"
     inkscape:pageshadow="2"
     inkscape:window-width="1920"
     inkscape:window-height="1026"
     id="namedview6"
     showgrid="true"
     inkscape:zoom="41.7193"
     inkscape:cx="8.088873"
     inkscape:cy="9.0040062"
     inkscape:window-x="0"
     inkscape:window-y="0"
     inkscape:window-maximized="1"
     inkscape:current-layer="svg2">
    <inkscape:grid
       type="xygrid"
       id="grid4138" />
  </sodipodi:namedview>
  <path
     style="fill:#bebebe;fill-opacity:1"
     d="M 3 2 C 2.45 2 2 2.446 2 3 L 2 13 C 2 13.554 2.45 14 3 14 L 13 14 C 13.55 14 14 13.554 14 13 L 14 3 C 14 2.446 13.55 2 13 2 L 3 2 z M 4.5019531 3.9960938 C 6.8687931 4.0030937 8.9992813 3.9960938 11.595703 3.9960938 C 12.092951 4.1019338 11.991 4.6713781 12 5.0488281 L 12 11.486328 C 12.003 11.981325 11.465653 12.005194 11.095703 11.996094 C 8.9992813 12.005194 5.9992811 11.996094 4.4082031 11.996094 C 3.9109531 11.890244 4.0109531 11.301268 4.0019531 10.923828 L 4.0019531 4.4863281 C 3.9959531 4.2175681 4.2331031 3.9900938 4.5019531 3.9960938 z "
     id="path4" />
  <path
     style="fill:#bebebe;fill-opacity:1"
     d="m 7,5.0000003 c 0,1 -1,1 -1,1 l 0,1 1,0 L 7,11 l 2,0 0,-5.9999997 -2,0 z"
     id="path4-5"
     inkscape:connector-curvature="0" />
</svg>
