<?xml version="1.0" encoding="UTF-8" standalone="no"?>
<svg
   xmlns:dc="http://purl.org/dc/elements/1.1/"
   xmlns:cc="http://creativecommons.org/ns#"
   xmlns:rdf="http://www.w3.org/1999/02/22-rdf-syntax-ns#"
   xmlns:svg="http://www.w3.org/2000/svg"
   xmlns="http://www.w3.org/2000/svg"
   xmlns:sodipodi="http://sodipodi.sourceforge.net/DTD/sodipodi-0.dtd"
   xmlns:inkscape="http://www.inkscape.org/namespaces/inkscape"
   width="16"
   height="16"
   version="1.1"
   id="svg2"
   inkscape:version="0.91 r13725"
   sodipodi:docname="zoom-fit-best-symbolic.svg">
  <metadata
     id="metadata10">
    <rdf:RDF>
      <cc:Work
         rdf:about="">
        <dc:format>image/svg+xml</dc:format>
        <dc:type
           rdf:resource="http://purl.org/dc/dcmitype/StillImage" />
        <dc:title />
      </cc:Work>
    </rdf:RDF>
  </metadata>
  <defs
     id="defs8" />
  <sodipodi:namedview
     pagecolor="#ffffff"
     bordercolor="#666666"
     borderopacity="1"
     objecttolerance="10"
     gridtolerance="10"
     guidetolerance="10"
     inkscape:pageopacity="0"
     inkscape:pageshadow="2"
     inkscape:window-width="1920"
     inkscape:window-height="1026"
     id="namedview6"
     showgrid="true"
     inkscape:zoom="32"
     inkscape:cx="14.259298"
     inkscape:cy="10.566849"
     inkscape:window-x="0"
     inkscape:window-y="0"
     inkscape:window-maximized="1"
     inkscape:current-layer="svg2">
    <inkscape:grid
       type="xygrid"
       id="grid4138" />
  </sodipodi:namedview>
  <path
     style="fill:#bebebe;fill-opacity:1"
     d="M 3 2 C 2.45 2 2 2.446 2 3 L 2 13 C 2 13.554 2.45 14 3 14 L 13 14 C 13.55 14 14 13.554 14 13 L 14 3 C 14 2.446 13.55 2 13 2 L 3 2 z M 4.5019531 3.9960938 C 6.8687931 4.0030937 8.9992813 3.9960938 11.595703 3.9960938 C 12.069786 4.097003 11.997914 4.6146261 11.998047 4.9902344 C 11.998082 4.9936884 12 4.9965375 12 5 L 12 5.0488281 L 12 11 L 12 11.486328 C 12.003 11.981325 11.465653 12.005194 11.095703 11.996094 C 11.071824 11.996197 11.043641 11.995995 11.019531 11.996094 C 11.012655 11.996234 11.006908 12 11 12 L 5 12 C 4.9930918 12 4.9873447 11.996234 4.9804688 11.996094 C 4.8251313 11.995978 4.5443555 11.996094 4.4082031 11.996094 C 3.9512557 11.898823 4.0021564 11.401418 4.0058594 11.027344 C 4.0055841 11.01769 4 11.009722 4 11 L 4 5 C 4 4.9965375 4.0019181 4.9936884 4.0019531 4.9902344 L 4.0019531 4.4863281 C 3.9959531 4.2175681 4.2331031 3.9900938 4.5019531 3.9960938 z "
     id="path4" />
  <path
     inkscape:connector-curvature="0"
     style="fill:#bebebe;fill-opacity:1"
     d="M 5,5 5,7 6,7 6,6 7,6 7,5 Z m 4,0 0,1 1.000001,0 0,1 1,0 L 11,5 Z M 5,9 c 0,1 0,1 0,2 l 2,0 0,-1 -1,0 0,-1 z m 5.000001,0 0,1 L 9,10 l 0,1 2.000001,0 0,-2 z"
     id="path4-2"
     sodipodi:nodetypes="cccccccccccccccccccccccccccc" />
</svg>
