<?xml version="1.0" encoding="UTF-8"?>
<svg id="svg8" width="16" height="16" version="1.1" xmlns="http://www.w3.org/2000/svg" xmlns:cc="http://creativecommons.org/ns#" xmlns:dc="http://purl.org/dc/elements/1.1/" xmlns:rdf="http://www.w3.org/1999/02/22-rdf-syntax-ns#">
 <metadata id="metadata14">
  <rdf:RDF>
   <cc:Work rdf:about="">
    <dc:format>image/svg+xml</dc:format>
    <dc:type rdf:resource="http://purl.org/dc/dcmitype/StillImage"/>
   </cc:Work>
  </rdf:RDF>
 </metadata>
 <path id="path2-3" d="m3 1c-1.108 0-2 0.892-2 2v10c0 1.108 0.892 2 2 2h10c1.108 0 2-0.892 2-2v-10c0-1.108-0.892-2-2-2zm3 2h4c1.108 0 2 0.892 2 2s-0.892 2-2 2h-4c-1.108 0-2-0.892-2-2s0.892-2 2-2zm0 6h4c1.108 0 2 0.892 2 2s-0.892 2-2 2h-4c-1.108 0-2-0.892-2-2s0.892-2 2-2z" style="enable-background:new;fill:#2e3436"/>
 <circle id="circle1120" cx="6" cy="11" r="1" style="enable-background:new;fill:#2e3436;paint-order:normal"/>
 <circle id="circle1124" transform="scale(-1,1)" cx="-10" cy="5" r="1" style="enable-background:new;fill:#2e3436;paint-order:normal"/>
</svg>
