<?xml version="1.0" encoding="UTF-8" standalone="no"?>
<svg
   xmlns:dc="http://purl.org/dc/elements/1.1/"
   xmlns:cc="http://creativecommons.org/ns#"
   xmlns:rdf="http://www.w3.org/1999/02/22-rdf-syntax-ns#"
   xmlns:svg="http://www.w3.org/2000/svg"
   xmlns="http://www.w3.org/2000/svg"
   xmlns:sodipodi="http://sodipodi.sourceforge.net/DTD/sodipodi-0.dtd"
   xmlns:inkscape="http://www.inkscape.org/namespaces/inkscape"
   width="512"
   height="32"
   viewBox="0 0 512 32"
   version="1.1"
   id="svg137"
   sodipodi:docname="process-working.svg"
   inkscape:version="0.92.5 (2060ec1f9f, 2020-04-08)">
  <metadata
     id="metadata141">
    <rdf:RDF>
      <cc:Work
         rdf:about="">
        <dc:format>image/svg+xml</dc:format>
        <dc:type
           rdf:resource="http://purl.org/dc/dcmitype/StillImage" />
      </cc:Work>
    </rdf:RDF>
  </metadata>
  <sodipodi:namedview
     pagecolor="#ffffff"
     bordercolor="#666666"
     borderopacity="1"
     objecttolerance="10"
     gridtolerance="10"
     guidetolerance="10"
     inkscape:pageopacity="0"
     inkscape:pageshadow="2"
     inkscape:window-width="1920"
     inkscape:window-height="1013"
     id="namedview139"
     showgrid="false"
     inkscape:zoom="0.89508929"
     inkscape:cx="-3.1933246"
     inkscape:cy="18.297403"
     inkscape:window-x="0"
     inkscape:window-y="0"
     inkscape:window-maximized="1"
     inkscape:current-layer="svg137" />
  <defs
     id="defs7">
    <g
       id="g"
       fill="#FFFFFF"
       opacity="0.7">
      <circle
         cx="8"
         cy="8"
         r="8"
         fill="none"
         id="circle2" />
      <path
         d="M8 1a7 7 0 0 0-7 7 7 7 0 0 0 7 7 7 7 0 0 0 7-7h-3a4 4 0 0 1-4 4 4 4 0 0 1-4-4 4 4 0 0 1 4-4V1z"
         id="path4" />
    </g>
  </defs>
  <path
     id="1"
     d="M 8,1 C 4.13,1 1,4.13 1,8 c 0,3.87 3.13,7 7,7 3.87,0 7,-3.13 7,-7 C 15,4.13 11.87,1 8,1 Z m 0,6 c 1.66,0 3,1.34 3,3 0,1.66 -1.34,3 -3,3 C 6.34,13 5,11.66 5,10 5,8.34 6.34,7 8,7 Z"
     style="fill:#ffffff;fill-opacity:1"
     inkscape:connector-curvature="0"
     inkscape:label="" />
  <path
     id="2"
     d="M 24.68612,1.0337069 C 20.834755,0.65438058 17.413033,3.4625151 17.033707,7.31388 c -0.379326,3.851365 2.428808,7.273087 6.280173,7.652413 3.851365,0.379326 7.273087,-2.428808 7.652413,-6.280173 C 31.345619,4.8347551 28.537485,1.4130332 24.68612,1.0337069 Z m -0.588103,5.9711084 c 1.652007,0.1627084 2.854211,1.6275989 2.691503,3.2796057 -0.162709,1.652007 -1.627599,2.854211 -3.279606,2.691503 C 21.857908,12.813215 20.655703,11.348325 20.818412,9.696318 20.98112,8.0443114 22.44601,6.8421068 24.098017,7.0048153 Z"
     style="fill:#ffffff;fill-opacity:1"
     inkscape:connector-curvature="0"
     inkscape:label="" />
  <path
     id="3"
     d="m 41.365632,1.1345026 c -3.795639,-0.75499952 -7.47613,1.7042257 -8.231129,5.4998647 -0.754999,3.7956397 1.704226,7.4761307 5.499865,8.2311297 3.795639,0.754999 7.47613,-1.704226 8.231129,-5.4998651 C 47.620496,5.5699928 45.161271,1.8895022 41.365632,1.1345026 Z M 40.19509,7.0192143 c 1.628104,0.3238499 2.680935,1.8995232 2.357085,3.5276277 -0.32385,1.628104 -1.899523,2.680934 -3.527627,2.357085 -1.628103,-0.323851 -2.680935,-1.899524 -2.357084,-3.5276274 0.323849,-1.628104 1.899523,-2.6809352 3.527626,-2.3570853 z"
     style="fill:#ffffff;fill-opacity:1"
     inkscape:connector-curvature="0"
     inkscape:label="" />
  <path
     id="4"
     d="m 58.031992,1.301418 c -3.703359,-1.12340168 -7.607173,0.9632305 -8.730574,4.6665896 -1.123402,3.703359 0.96323,7.6071734 4.66659,8.7305744 3.703359,1.123402 7.607173,-0.96323 8.730574,-4.666589 1.123402,-3.703359 -0.96323,-7.6071734 -4.66659,-8.730575 z M 56.290284,7.04306 c 1.588522,0.4818726 2.48184,2.1531541 1.999967,3.741676 -0.481872,1.588521 -2.153153,2.481838 -3.741675,1.999966 C 52.960056,12.302829 52.066737,10.631547 52.548609,9.0430275 53.030482,7.454506 54.701763,6.5611873 56.290284,7.04306 Z"
     style="fill:#ffffff;fill-opacity:1"
     inkscape:connector-curvature="0"
     inkscape:label="" />
  <path
     id="5"
     d="M 74.678783,1.532843 C 71.10337,0.0518581 67.013828,1.7458019 65.532844,5.3212157 64.051858,8.89663 65.745802,12.986172 69.321216,14.467156 72.89663,15.948142 76.986172,14.254198 78.467156,10.678784 79.948142,7.10337 78.254198,3.0138278 74.678783,1.532843 Z m -2.2961,5.5432771 c 1.533641,0.6352547 2.258843,2.386049 1.623588,3.9196899 -0.635254,1.533641 -2.386048,2.258842 -3.919689,1.623588 -1.533639,-0.635255 -2.258843,-2.38605 -1.623587,-3.9196891 0.635254,-1.5336405 2.386049,-2.2588431 3.919688,-1.6235888 z"
     style="fill:#ffffff;fill-opacity:1"
     inkscape:connector-curvature="0"
     inkscape:label="" />
  <path
     id="6"
     d="m 91.299776,1.8265509 c -3.413034,-1.82430523 -7.64892,-0.5393634 -9.473224,2.8736719 -1.824307,3.4130355 -0.539365,7.6489212 2.873672,9.4732252 3.413034,1.824307 7.64892,0.539365 9.473224,-2.873671 1.824307,-3.4130351 0.539365,-7.6489206 -2.873672,-9.4732261 z m -2.82838,5.2915276 c 1.463991,0.7825189 2.014093,2.5959649 1.231573,4.0599555 -0.782518,1.46399 -2.595963,2.014091 -4.059954,1.231573 -1.463988,-0.782519 -2.014091,-2.5959662 -1.231573,-4.0599539 0.782519,-1.4639902 2.595965,-2.0140933 4.059954,-1.2315746 z"
     style="fill:#ffffff;fill-opacity:1"
     inkscape:connector-curvature="0"
     inkscape:label="" />
  <path
     id="7"
     d="m 107.88898,2.1797109 c -3.21777,-2.15005164 -7.55921,-1.28649028 -9.709266,1.9312976 -2.150059,3.2177876 -1.286494,7.5592225 1.931306,9.7092805 3.21777,2.150052 7.55921,1.28649 9.70926,-1.9313 2.15007,-3.2177826 1.2865,-7.5592205 -1.9313,-9.7092781 z m -3.33342,4.9888181 c 1.38024,0.9222456 1.74996,2.7808828 0.82772,4.161125 -0.92227,1.380233 -2.78089,1.749941 -4.16114,0.827691 -1.380228,-0.922242 -1.749943,-2.7808801 -0.82769,-4.1611164 0.92225,-1.3802403 2.78088,-1.7499433 4.16111,-0.8276996 z"
     style="fill:#ffffff;fill-opacity:1"
     inkscape:connector-curvature="0"
     inkscape:label="" />
  <path
     id="8"
     d="m 124.44074,2.5889242 c -2.99153,-2.45509534 -7.39671,-2.0212275 -9.85181,0.9703261 -2.45511,2.9915445 -2.02123,7.3967207 0.97033,9.8518267 2.99153,2.455095 7.39671,2.021226 9.85181,-0.970327 2.45511,-2.9915445 2.02123,-7.3967219 -0.97033,-9.8518258 z m -3.80636,4.6380631 c 1.2832,1.053092 1.46896,2.9390187 0.41588,4.2222187 -1.05312,1.283187 -2.93903,1.46894 -4.22223,0.415841 -1.28319,-1.053086 -1.46895,-2.9390131 -0.41585,-4.2222062 1.0531,-1.2831975 2.93902,-1.4689425 4.2222,-0.4158535 z"
     style="fill:#ffffff;fill-opacity:1"
     inkscape:connector-curvature="0"
     inkscape:label="" />
  <path
     id="9"
     d="m 140.94973,3.0502487 c -2.73648,-2.73649456 -7.16297,-2.73649905 -9.89947,7.5e-6 -2.73652,2.7364965 -2.73651,7.1629878 1e-5,9.8994968 2.73648,2.736494 7.16297,2.736497 9.89947,-9e-6 2.73652,-2.736496 2.73651,-7.1629892 -1e-5,-9.8994953 z m -4.24264,4.2426411 c 1.1738,1.1737967 1.17382,3.0688492 3e-5,4.2426512 -1.17382,1.173784 -3.06886,1.173791 -4.24266,-1.3e-5 -1.17379,-1.173789 -1.1738,-3.0688429 0,-4.2426352 1.17381,-1.1737966 3.06885,-1.1737947 4.24263,-3e-6 z"
     style="fill:#ffffff;fill-opacity:1"
     inkscape:connector-curvature="0"
     inkscape:label="" />
  <path
     id="10"
     d="m 157.41106,3.5592414 c -2.45508,-2.99153954 -6.86026,-3.42541591 -9.85181,-0.9703103 -2.99156,2.4550938 -3.42542,6.8602713 -0.97031,9.8518289 2.45508,2.991539 6.86026,3.425414 9.85181,0.970309 2.99156,-2.455093 3.42542,-6.8602727 0.97031,-9.8518276 z m -4.63807,3.8063602 c 1.0531,1.283197 0.86737,3.1691264 -0.41582,4.2222244 -1.28322,1.053078 -3.16913,0.867338 -4.22223,-0.415866 -1.05308,-1.2831885 -0.86735,-3.1691182 0.41585,-4.2222058 1.28321,-1.0530911 3.16913,-0.8673428 4.2222,0.4158474 z"
     style="fill:#ffffff;fill-opacity:1"
     inkscape:connector-curvature="0"
     inkscape:label="" />
  <path
     id="11"
     d="m 173.82027,4.1110015 c -2.15003,-3.21777439 -6.49147,-4.08134467 -9.70926,-1.9312842 -3.2178,2.1500477 -4.08135,6.4914873 -1.93128,9.7092827 2.15003,3.217774 6.49147,4.081343 9.70926,1.931283 3.2178,-2.150047 4.08135,-6.4914889 1.93128,-9.7092815 z m -4.98882,3.3334212 c 0.92225,1.3802399 0.55256,3.2388833 -0.82767,4.1611353 -1.38026,0.92223 -3.23888,0.552533 -4.16114,-0.827714 -0.92223,-1.3802295 -0.55254,-3.2388732 0.8277,-4.1611143 1.38025,-0.9222436 3.23889,-0.5525372 4.16111,0.827693 z"
     style="fill:#ffffff;fill-opacity:1"
     inkscape:connector-curvature="0"
     inkscape:label="" />
  <path
     id="12"
     d="m 190.17343,4.7002139 c -1.82428,-3.4130197 -6.06017,-4.69796719 -9.47321,-2.873658 -3.41304,1.8242951 -4.69797,6.0601867 -2.87365,9.4732311 1.82428,3.41302 6.06017,4.697966 9.47321,2.873657 3.41304,-1.824295 4.69797,-6.0601883 2.87365,-9.4732301 z m -5.29153,2.8283804 c 0.78252,1.4639899 0.23244,3.2774477 -1.23154,4.0599727 -1.46401,0.7825 -3.27745,0.232406 -4.05998,-1.231592 -0.7825,-1.4639773 -0.23241,-3.2774351 1.23158,-4.0599482 1.464,-0.7825146 3.27745,-0.2324099 4.05994,1.2315675 z"
     style="fill:#ffffff;fill-opacity:1"
     inkscape:connector-curvature="0"
     inkscape:label="" />
  <path
     id="13"
     d="m 206.46714,5.3212054 c -1.48096,-3.5753958 -5.57051,-5.2693457 -9.14593,-3.7883573 -3.57541,1.4809738 -5.26935,5.5705233 -3.78835,9.1459479 1.48096,3.575396 5.57051,5.269344 9.14593,3.788356 3.57541,-1.480974 5.26935,-5.5705249 3.78835,-9.1459466 z m -5.54328,2.2961006 c 0.63526,1.5336407 -0.0899,3.284449 -1.62356,3.91971 -1.53366,0.635234 -3.28445,-0.08996 -3.91971,-1.6236088 -0.63524,-1.5336263 0.0899,-3.2844335 1.62359,-3.9196825 1.53365,-0.6352491 3.28445,0.089956 3.91968,1.6235813 z"
     style="fill:#ffffff;fill-opacity:1"
     inkscape:connector-curvature="0"
     inkscape:label="" />
  <path
     id="14"
     d="m 222.69857,5.9679957 c -1.12338,-3.7033388 -5.0272,-5.78997793 -8.73057,-4.6665732 -3.70335,1.1233904 -5.78998,5.0272125 -4.66657,8.7305835 1.12338,3.703339 5.0272,5.789976 8.73057,4.666573 3.70335,-1.123391 5.78998,-5.0272149 4.66657,-8.7305833 z m -5.74165,1.7417078 c 0.48188,1.5885222 -0.4114,3.2598225 -1.99994,3.7416995 -1.58854,0.481849 -3.25982,-0.41146 -3.74169,-1.9999907 -0.48186,-1.5885059 0.41139,-3.2598063 1.99997,-3.7416675 1.58853,-0.4818667 3.25981,0.4114552 3.74166,1.9999587 z"
     style="fill:#ffffff;fill-opacity:1"
     inkscape:connector-curvature="0"
     inkscape:label="" />
  <path
     id="15"
     d="m 238.86549,6.6343546 c -0.75498,-3.7956167 -4.43548,-6.25484923 -8.23113,-5.4998484 -3.79563,0.7549901 -6.25485,4.4354888 -5.49985,8.2311405 0.75498,3.7956173 4.43548,6.2548473 8.23113,5.4998463 3.79563,-0.754988 6.25485,-4.435489 5.49985,-8.2311384 z m -5.88472,1.1705403 c 0.32385,1.6281057 -0.72894,3.2038011 -2.35706,3.5276541 -1.62812,0.323825 -3.2038,-0.728997 -3.52764,-2.3571092 -0.32384,-1.6280874 0.72892,-3.2037863 2.35708,-3.52762 1.62812,-0.3238433 3.20379,0.7289911 3.52762,2.3570751 z"
     style="fill:#ffffff;fill-opacity:1"
     inkscape:connector-curvature="0"
     inkscape:label="" />
  <path
     id="16"
     d="m 254.96629,7.3138663 c -0.37931,-3.8513408 -3.80104,-6.65948354 -7.65242,-6.280157 -3.85135,0.3793178 -6.65948,3.8010482 -6.28016,7.6524257 0.37931,3.851341 3.80104,6.659482 7.65242,6.280155 3.85135,-0.379316 6.65948,-3.801048 6.28016,-7.6524237 z m -5.97112,0.5881004 c 0.16271,1.6520087 -1.03946,3.1169253 -2.69148,3.2796353 -1.65202,0.162682 -3.11692,-1.039514 -3.27962,-2.6915284 -0.1627,-1.6519896 1.03944,-3.1169125 2.6915,-3.2795993 1.65202,-0.1627002 3.11691,1.0395071 3.2796,2.6914924 z"
     style="fill:#ffffff;fill-opacity:1"
     inkscape:connector-curvature="0"
     inkscape:label="" />
  <path
     id="17"
     d="m 271,7.999986 c 10e-6,-3.8699744 -3.13,-6.9999833 -7.00001,-6.9999846 -3.86998,-7.04e-6 -6.99998,3.1300019 -6.99999,7.0000138 -10e-6,3.8699748 3.13,6.9999818 7.00001,6.9999828 3.86998,9e-6 6.99998,-3.130002 6.99999,-7.000012 z m -6.00001,-3.5e-6 c 0,1.6600022 -1.33997,3.0000315 -2.99998,3.0000315 -1.66001,-2.7e-5 -3.00002,-1.3400198 -3.00002,-3.0000267 10e-6,-1.6599822 1.34005,-2.9999818 3,-2.999994 1.66001,9.6e-6 3.00001,1.3400122 3,2.9999892 z"
     style="fill:#ffffff;fill-opacity:1"
     inkscape:connector-curvature="0"
     inkscape:label="" />
  <path
     id="18"
     d="m 286.96629,8.6861063 c 0.37934,-3.8513383 -2.42881,-7.2730702 -6.28018,-7.652399 -3.85134,-0.37933135 -7.27307,2.4288121 -7.6524,6.2801878 -0.37934,3.8513389 2.42881,7.2730689 6.28018,7.6523969 3.85134,0.379333 7.27307,-2.428812 7.6524,-6.2801857 z m -5.97111,-0.5881076 c -0.16271,1.6520089 -1.62758,2.8542453 -3.27959,2.6915363 -1.65202,-0.162736 -2.85423,-1.6276208 -2.69152,-3.2796343 0.16271,-1.651988 1.62764,-2.8541882 3.2796,-2.6914968 1.65202,0.162719 2.85422,1.6276121 2.69151,3.2795948 z"
     style="fill:#ffffff;fill-opacity:1"
     inkscape:connector-curvature="0"
     inkscape:label="" />
  <path
     id="19"
     d="m 302.8655,9.365618 c 0.75501,-3.7956113 -1.70423,-7.4761133 -5.49988,-8.2311156 -3.79561,-0.75500206 -7.47611,1.7042312 -8.23112,5.4998807 -0.75501,3.7956119 1.70423,7.4761119 5.49988,8.2311139 3.79561,0.755004 7.47611,-1.704231 8.23112,-5.499879 z m -5.88472,-1.1705465 c -0.32385,1.6281057 -1.89951,2.6809705 -3.52761,2.3571195 -1.62812,-0.323878 -2.68095,-1.8995465 -2.3571,-3.5276568 0.32385,-1.6280848 1.89956,-2.6809079 3.52762,-2.3570795 1.62812,0.3238618 2.68094,1.8995372 2.35709,3.5276168 z"
     style="fill:#ffffff;fill-opacity:1"
     inkscape:connector-curvature="0"
     inkscape:label="" />
  <path
     id="20"
     d="m 318.69859,10.031979 c 1.12341,-3.7033302 -0.96324,-7.6071574 -4.66661,-8.7305628 -3.70333,-1.12340174 -7.60715,0.9632376 -8.73057,4.666606 -1.12341,3.7033311 0.96324,7.6071558 4.66661,8.7305618 3.70333,1.123403 7.60715,-0.963238 8.73057,-4.666605 z m -5.74165,-1.7417132 c -0.48188,1.588523 -2.15315,2.4818762 -3.74166,2.0000032 -1.58854,-0.4819026 -2.48186,-2.1531792 -1.99998,-3.7417069 0.48187,-1.5885022 2.15318,-2.4818091 3.74166,-1.9999623 1.58854,0.4818863 2.48185,2.1531685 1.99998,3.741666 z"
     style="fill:#ffffff;fill-opacity:1"
     inkscape:connector-curvature="0"
     inkscape:label="" />
  <path
     id="21"
     d="m 334.46717,10.678771 c 1.48099,-3.5753845 -0.21297,-7.6649411 -3.7884,-9.1459308 -3.57538,-1.48098169 -7.66493,0.2129686 -9.14594,3.7883899 -1.48099,3.5753851 0.21297,7.6649389 3.7884,9.1459299 3.57538,1.480983 7.66493,-0.212969 9.14594,-3.788389 z m -5.54329,-2.2961068 c -0.63526,1.5336414 -2.38605,2.2588798 -3.91968,1.6236258 -1.53365,-0.6352858 -2.25886,-2.3860754 -1.62359,-3.9197214 0.63525,-1.5336216 2.38607,-2.25881 3.91967,-1.6235852 1.53366,0.6352698 2.25885,2.3860643 1.6236,3.9196808 z"
     style="fill:#ffffff;fill-opacity:1"
     inkscape:connector-curvature="0"
     inkscape:label="" />
  <path
     id="22"
     d="m 350.17346,11.299765 c 1.82431,-3.4130052 0.53935,-7.6489066 -2.8737,-9.4732184 -3.413,-1.82429876 -7.64889,-0.5393513 -9.47322,2.873689 -1.82431,3.4130062 -0.53935,7.6489044 2.8737,9.4732174 3.413,1.824301 7.64889,0.539352 9.47322,-2.873688 z m -5.29154,-2.8283875 c -0.78252,1.4639902 -2.59597,2.0141295 -4.05995,1.2316119 -1.46399,-0.7825507 -2.0141,-2.5959928 -1.23157,-4.0599865 0.78252,-1.4639714 2.59599,-2.0140575 4.05994,-1.2315724 1.46401,0.7825357 2.0141,2.5959798 1.23158,4.059947 z"
     style="fill:#ffffff;fill-opacity:1"
     inkscape:connector-curvature="0"
     inkscape:label="" />
  <path
     id="23"
     d="m 365.8203,11.888981 c 2.15006,-3.2177573 1.28648,-7.5592098 -1.93132,-9.7092744 -3.21776,-2.15004686 -7.5592,-1.28647659 -9.70928,1.9313134 -2.15006,3.217758 -1.28648,7.559207 1.93133,9.709273 3.21775,2.150049 7.55919,1.286477 9.70927,-1.931312 z m -4.98883,-3.3334299 c -0.92225,1.3802403 -2.78089,1.7499809 -4.16112,0.8277375 -1.38024,-0.9222796 -1.74995,-2.7809087 -0.82769,-4.1611525 0.92225,-1.3802216 2.7809,-1.7499077 4.1611,-0.8277058 1.38026,0.9222732 1.74996,2.7809042 0.82771,4.1611208 z"
     style="fill:#ffffff;fill-opacity:1"
     inkscape:connector-curvature="0"
     inkscape:label="" />
  <path
     id="24"
     d="m 381.41109,12.440743 c 2.4551,-2.9915201 2.02121,-7.3967129 -0.97035,-9.8518239 -2.99152,-2.45508995 -7.3967,-2.02121266 -9.85183,0.9703382 -2.4551,2.9915209 -2.02121,7.3967097 0.97036,9.8518227 2.99151,2.455091 7.39669,2.021212 9.85182,-0.970337 z m -4.63808,-3.8063692 c -1.05309,1.2831977 -2.93902,1.4689792 -4.22221,0.4158901 -1.2832,-1.0531258 -1.46895,-2.939043 -0.41584,-4.2222422 1.05308,-1.2831813 2.93903,-1.4689066 4.22219,-0.4158621 1.28321,1.0531218 1.46896,2.9390395 0.41586,4.2222142 z"
     style="fill:#ffffff;fill-opacity:1"
     inkscape:connector-curvature="0"
     inkscape:label="" />
  <path
     id="25"
     d="m 396.94977,12.94974 c 2.73649,-2.736474 2.73648,-7.1629831 -3e-5,-9.8994963 -2.73648,-2.73648841 -7.16297,-2.73648342 -9.89951,1.74e-5 -2.73649,2.736474 -2.73648,7.1629789 4e-5,9.8994959 2.73647,2.736488 7.16296,2.736481 9.8995,-1.7e-5 z m -4.24266,-4.2426525 c -1.1738,1.1737979 -3.06885,1.1738311 -4.24265,3.83e-5 -1.17379,-1.1738303 -1.1738,-3.068873 2e-5,-4.2426704 1.17378,-1.1737825 3.06886,-1.1737581 4.24263,-2.2e-6 1.1738,1.1738172 1.1738,3.0688601 0,4.2426343 z"
     style="fill:#ffffff;fill-opacity:1"
     inkscape:connector-curvature="0"
     inkscape:label="" />
  <path
     id="26"
     d="m 412.44078,13.411068 c 2.99153,-2.455074 3.42539,-6.8602693 0.97029,-9.8518303 -2.45508,-2.99153367 -6.86026,-3.4254006 -9.85185,-0.9703046 -2.99153,2.4550742 -3.42539,6.8602652 -0.97028,9.8518309 2.45507,2.991533 6.86025,3.425398 9.85184,0.970304 z M 408.6344,8.7729918 c -1.2832,1.0530931 -3.16913,0.8673796 -4.22222,-0.4158136 -1.05309,-1.2832305 -0.86735,-3.169149 0.41587,-4.2222398 1.28319,-1.0530758 3.16913,-0.8673051 4.2222,0.4158483 1.05309,1.2832176 0.86735,3.1691362 -0.41585,4.2222051 z"
     style="fill:#ffffff;fill-opacity:1"
     inkscape:connector-curvature="0"
     inkscape:label="" />
  <path
     id="27"
     d="m 427.88902,13.820285 c 3.21776,-2.15003 4.08132,-6.4914882 1.93126,-9.7092896 -2.15003,-3.21776502 -6.49147,-4.08132591 -9.7093,-1.9312791 -3.21776,2.1500313 -4.08132,6.4914843 -1.93126,9.7092887 2.15003,3.217766 6.49147,4.081325 9.7093,1.93128 z m -3.33344,-4.9888328 c -1.38024,0.9222466 -3.23889,0.5525736 -4.16113,-0.8276616 -0.92224,-1.3802721 -0.55255,-3.2389038 0.82772,-4.1611461 1.38023,-0.9222305 3.23888,-0.5524998 4.1611,0.8276937 0.92225,1.3802599 0.55255,3.238891 -0.82769,4.161114 z"
     style="fill:#ffffff;fill-opacity:1"
     inkscape:connector-curvature="0"
     inkscape:label="" />
  <path
     id="28"
     d="m 443.29981,14.173449 c 3.413,-1.824282 4.69794,-6.0601908 2.87364,-9.4732356 -1.82429,-3.4130149 -6.06018,-4.69795304 -9.47326,-2.8736617 -3.413,1.8242826 -4.69794,6.0601866 -2.87363,9.4732383 1.82428,3.413012 6.06017,4.697949 9.47325,2.873659 z m -2.8284,-5.2915448 c -1.46399,0.7825185 -3.27746,0.2324463 -4.05997,-1.2315389 -0.78251,-1.4640202 -0.23241,-3.2774641 1.2316,-4.0599774 1.46398,-0.7825034 3.27744,-0.2323736 4.05993,1.2315667 0.78252,1.4640101 0.23243,3.277454 -1.23156,4.0599496 z"
     style="fill:#ffffff;fill-opacity:1"
     inkscape:connector-curvature="0"
     inkscape:label="" />
  <path
     id="29"
     d="m 458.67882,14.46716 c 3.57537,-1.480964 5.26932,-5.5705306 3.78834,-9.1459535 -1.48097,-3.575392 -5.57052,-5.2693326 -9.14598,-3.7883661 -3.57537,1.4809657 -5.26932,5.5705265 -3.78833,9.1459576 1.48096,3.575388 5.57051,5.269327 9.14597,3.788362 z M 456.3827,8.9238637 c -1.53364,0.6352544 -3.28446,-0.08992 -3.91971,-1.6235554 -0.63524,-1.5336699 0.09,-3.2844623 1.62362,-3.9197096 1.53363,-0.6352403 3.28443,0.089991 3.91966,1.6235791 0.63526,1.5336609 -0.0899,3.2844543 -1.62357,3.9196859 z"
     style="fill:#ffffff;fill-opacity:1"
     inkscape:connector-curvature="0"
     inkscape:label="" />
  <path
     id="30"
     d="m 474.03203,14.698589 c 3.70331,-1.123386 5.78995,-5.0272235 4.66656,-8.7305911 -1.12339,-3.7033359 -5.02721,-5.78996572 -8.73062,-4.6665868 -3.70331,1.1233869 -5.78995,5.0272192 -4.66655,8.7305959 1.12338,3.703331 5.02721,5.789959 8.73061,4.666582 z M 472.2903,8.956926 c -1.58852,0.4818724 -3.25983,-0.4114204 -3.7417,-1.9999363 -0.48185,-1.5885493 0.4115,-3.2598252 2,-3.7416925 1.58851,-0.4818595 3.2598,0.4114881 3.74165,1.9999549 0.48188,1.5885423 -0.4114,3.2598271 -1.99995,3.7416739 z"
     style="fill:#ffffff;fill-opacity:1"
     inkscape:connector-curvature="0"
     inkscape:label="" />
  <path
     id="31"
     d="m 489.36567,14.865507 c 3.79559,-0.754989 6.25482,-4.435502 5.49984,-8.2311484 -0.75499,-3.7956145 -4.43549,-6.25483791 -8.23118,-5.499866 -3.79559,0.7549896 -6.25482,4.4354974 -5.49983,8.2311538 0.75498,3.7956076 4.43549,6.2548306 8.23117,5.4998606 z m -1.17056,-5.8847351 c -1.62811,0.32385 -3.20381,-0.7289595 -3.52766,-2.3570565 -0.32382,-1.6281295 0.72904,-3.2037941 2.35712,-3.5276409 1.62808,-0.3238466 3.20377,0.729022 3.5276,2.3570703 0.32386,1.6281254 -0.72893,3.203806 -2.35706,3.5276271 z"
     style="fill:#ffffff;fill-opacity:1"
     inkscape:connector-curvature="0"
     inkscape:label="" />
  <path
     id="32"
     d="m 504.68616,14.966307 c 3.85131,-0.379321 6.65945,-3.801064 6.28014,-7.6524423 -0.37931,-3.8513311 -3.80105,-6.65946669 -7.65246,-6.280171 -3.85131,0.3793214 -6.65945,3.8010599 -6.28014,7.6524414 0.37931,3.8513329 3.80105,6.6594659 7.65246,6.2801719 z m -0.58812,-5.9711325 c -1.65202,0.1627079 -3.11693,-1.0394766 -3.27964,-2.6914778 -0.16268,-1.6520296 1.03955,-3.1169087 2.69154,-3.2796161 1.65199,-0.1626981 3.11688,1.0395358 3.27958,2.6914854 0.16271,1.6520297 -1.03945,3.1169311 -2.69148,3.2796085 z"
     style="fill:#ffffff;fill-opacity:1"
     inkscape:connector-curvature="0"
     inkscape:label="" />
  <path
     id="33"
     d="m 8.0000027,31 c 3.8700003,2e-6 6.9999963,-3.130001 6.9999973,-7.000001 0,-3.87 -3.13,-6.999997 -7.0000012,-6.999997 -3.8699999,0 -6.99999994,3.13 -6.99999929,7.000002 5.9e-7,3.87 3.13000099,6.999999 7.00000319,6.999996 z m 0,-5.999998 C 6.3399992,25.000001 4.9999998,23.659999 5.000001,22 c -8e-7,-1.660002 1.340001,-2.999998 3.0000008,-2.999998 1.6599974,0 2.9999972,1.340001 3.0000002,2.999998 -3e-6,1.660001 -1.3400038,3 -2.9999993,3.000002 z"
     style="fill:#ffffff;fill-opacity:1"
     inkscape:connector-curvature="0"
     inkscape:label="" />
  <path
     id="34"
     d="m 23.313884,30.966294 c 3.851362,0.379327 7.273086,-2.428809 7.652407,-6.280178 0.37933,-3.851364 -2.428806,-7.273081 -6.280174,-7.652409 -3.851365,-0.379327 -7.273087,2.428808 -7.652411,6.280178 -0.379327,3.851362 2.42881,7.273082 6.280178,7.652409 z m 0.5881,-5.971108 c -1.652008,-0.16271 -2.854212,-1.627601 -2.691504,-3.27961 0.16271,-1.652005 1.6276,-2.854208 3.279606,-2.691499 1.652006,0.162709 2.854212,1.627602 2.691506,3.279605 -0.162712,1.652008 -1.627602,2.854211 -3.279608,2.691504 z"
     style="fill:#ffffff;fill-opacity:1"
     inkscape:connector-curvature="0"
     inkscape:label="" />
  <path
     id="35"
     d="m 38.634372,30.865497 c 3.795636,0.755001 7.476129,-1.704225 8.231124,-5.499869 0.755001,-3.795635 -1.704223,-7.476126 -5.499868,-8.231125 -3.795636,-0.755001 -7.476127,1.704226 -8.231126,5.49987 -0.755,3.795635 1.704224,7.476126 5.49987,8.231124 z m 1.170539,-5.884711 c -1.628106,-0.323851 -2.680937,-1.899526 -2.357088,-3.527632 0.323853,-1.628103 1.899524,-2.68093 3.527633,-2.357079 1.628097,0.32385 2.680931,1.899524 2.357084,3.527624 -0.323853,1.628105 -1.899527,2.680936 -3.527629,2.357087 z"
     style="fill:#ffffff;fill-opacity:1"
     inkscape:connector-curvature="0"
     inkscape:label="" />
  <path
     id="36"
     d="m 53.968011,30.698584 c 3.703356,1.123402 7.607173,-0.963231 8.73057,-4.666596 1.123404,-3.703355 -0.96323,-7.607167 -4.666591,-8.730571 -3.703359,-1.123402 -7.607174,0.96323 -8.730574,4.666596 -1.123402,3.703356 0.963233,7.607168 4.666595,8.730571 z m 1.741706,-5.741642 c -1.588523,-0.481874 -2.481841,-2.153157 -1.999971,-3.74168 0.481876,-1.588518 2.153154,-2.481836 3.741678,-1.999963 1.58852,0.481873 2.481839,2.153158 1.99997,3.741673 -0.481877,1.588523 -2.153157,2.481841 -3.741677,1.99997 z"
     style="fill:#ffffff;fill-opacity:1"
     inkscape:connector-curvature="0"
     inkscape:label="" />
  <path
     id="37"
     d="m 69.32122,30.467158 c 3.57541,1.480986 7.664955,-0.212959 9.145937,-3.788379 1.480986,-3.575408 -0.212957,-7.664951 -3.788377,-9.145937 -3.57541,-1.480986 -7.664953,0.21296 -9.145939,3.788379 -1.480985,3.57541 0.212958,7.664952 3.788379,9.145937 z m 2.296098,-5.543278 c -1.533643,-0.635256 -2.258845,-2.386052 -1.623591,-3.919694 0.635258,-1.533638 2.386049,-2.258838 3.919695,-1.623581 1.533633,0.635253 2.258838,2.386049 1.623587,3.919685 -0.635258,1.533641 -2.386053,2.258844 -3.919691,1.62359 z"
     style="fill:#ffffff;fill-opacity:1"
     inkscape:connector-curvature="0"
     inkscape:label="" />
  <path
     id="38"
     d="m 84.700227,30.173452 c 3.413031,1.824305 7.64892,0.539362 9.473222,-2.87368 1.824308,-3.413032 0.539362,-7.648914 -2.873675,-9.473222 -3.413034,-1.824306 -7.64892,-0.539364 -9.473226,2.873678 -1.824305,3.413032 -0.53936,7.648916 2.873679,9.473224 z m 2.828378,-5.291529 c -1.463992,-0.78252 -2.014094,-2.595967 -1.231577,-4.05996 0.782522,-1.463985 2.595964,-2.014088 4.059956,-1.231569 1.463989,0.782519 2.014091,2.595969 1.231577,4.059953 -0.782523,1.463991 -2.595968,2.014093 -4.059956,1.231576 z"
     style="fill:#ffffff;fill-opacity:1"
     inkscape:connector-curvature="0"
     inkscape:label="" />
  <path
     id="39"
     d="m 100.11103,29.820308 c 3.21774,2.15003 7.55919,1.286452 9.70928,-1.931323 2.15005,-3.217773 1.28649,-7.559213 -1.93134,-9.709296 -3.21775,-2.150038 -7.5592,-1.286477 -9.70926,1.931322 -2.150048,3.217756 -1.286483,7.55919 1.93132,9.709297 z m 3.33343,-4.988841 c -1.38024,-0.922249 -1.74999,-2.780884 -0.82776,-4.161132 0.92231,-1.380219 2.78094,-1.749915 4.16118,-0.827676 1.38021,0.922231 1.74995,2.780882 0.82769,4.161091 -0.92227,1.380244 -2.78088,1.75 -4.16111,0.827717 z"
     style="fill:#ffffff;fill-opacity:1"
     inkscape:connector-curvature="0"
     inkscape:label="" />
  <path
     id="40"
     d="m 115.55927,29.411117 c 2.9915,2.45506 7.39669,2.021181 9.85183,-0.970364 2.45508,-2.99152 2.02118,-7.396713 -0.97037,-9.851869 -2.9915,-2.455058 -7.39669,-2.021178 -9.85183,0.970368 -2.45509,2.991515 -2.02118,7.396711 0.97037,9.851865 z m 3.80637,-4.638097 c -1.28321,-1.053101 -1.46899,-2.939023 -0.41591,-4.222219 1.05315,-1.283188 2.93905,-1.468914 4.22223,-0.415827 1.2832,1.053085 1.46892,2.939023 0.41587,4.222178 -1.05311,1.283214 -2.93901,1.469003 -4.22219,0.415868 z"
     style="fill:#ffffff;fill-opacity:1"
     inkscape:connector-curvature="0"
     inkscape:label="" />
  <path
     id="41"
     d="m 131.05027,28.949793 c 2.73646,2.736457 7.16296,2.736449 9.8995,-4.4e-5 2.73649,-2.736472 2.73646,-7.162985 -4e-5,-9.899541 -2.73646,-2.736457 -7.16296,-2.736448 -9.8995,4.5e-5 -2.73649,2.736471 -2.73646,7.162984 4e-5,9.89954 z m 4.24266,-4.242673 c -1.17381,-1.173807 -1.17385,-3.068858 -6e-5,-4.242655 1.17385,-1.173783 3.06887,-1.173764 4.24266,2.6e-5 1.1738,1.17379 1.17385,3.068791 2e-5,4.24261 -1.17382,1.173812 -3.06885,1.173856 -4.24262,1.9e-5 z"
     style="fill:#ffffff;fill-opacity:1"
     inkscape:connector-curvature="0"
     inkscape:label="" />
  <path
     id="42"
     d="m 146.58894,28.440801 c 2.45506,2.991499 6.86025,3.425366 9.85184,0.970277 2.99152,-2.455076 3.42537,-6.860273 0.97028,-9.851877 -2.45506,-2.991498 -6.86025,-3.425364 -9.85184,-0.970274 -2.99153,2.455069 -3.42537,6.860273 -0.97028,9.851874 z m 4.63809,-3.806391 c -1.05311,-1.283208 -0.8674,-3.169137 0.41579,-4.22223 1.28325,-1.053074 3.16914,-0.86731 4.22223,0.415879 1.05309,1.283191 0.8674,3.169072 -0.41583,4.222182 -1.28322,1.053105 -3.16913,0.867403 -4.22219,-0.415831 z"
     style="fill:#ffffff;fill-opacity:1"
     inkscape:connector-curvature="0"
     inkscape:label="" />
  <path
     id="43"
     d="m 162.17972,27.889041 c 2.15002,3.217732 6.49147,4.081294 9.7093,1.931254 3.21775,-2.150034 4.0813,-6.491494 1.93126,-9.709334 -2.15002,-3.217731 -6.49147,-4.081292 -9.7093,-1.931251 -3.21776,2.150026 -4.0813,6.491494 -1.93126,9.709331 z m 4.98885,-3.33345 c -0.92226,-1.380252 -0.55259,-3.238897 0.82764,-4.161144 1.38029,-0.922223 3.23889,-0.552504 4.16113,0.827727 0.92225,1.380233 0.5526,3.238832 -0.82767,4.161093 -1.38026,0.922256 -3.23889,0.552597 -4.1611,-0.827676 z"
     style="fill:#ffffff;fill-opacity:1"
     inkscape:connector-curvature="0"
     inkscape:label="" />
  <path
     id="44"
     d="m 177.82655,27.299826 c 1.82428,3.412977 6.06018,4.697915 9.47325,2.873632 3.413,-1.824286 4.69793,-6.060198 2.87365,-9.473283 -1.82428,-3.412978 -6.06018,-4.697915 -9.47325,-2.873631 -3.413,1.824285 -4.69793,6.060197 -2.87365,9.473282 z m 5.29156,-2.828407 c -0.78252,-1.464001 -0.23246,-3.277463 1.23152,-4.059983 1.46404,-0.78249 3.27745,-0.232377 4.05998,1.231602 0.78251,1.463984 0.23247,3.277408 -1.23156,4.059932 -1.46401,0.782527 -3.27744,0.232457 -4.05994,-1.231551 z"
     style="fill:#ffffff;fill-opacity:1"
     inkscape:connector-curvature="0"
     inkscape:label="" />
  <path
     id="45"
     d="m 193.53284,26.678835 c 1.48096,3.575352 5.57052,5.269295 9.14597,3.788327 3.57538,-1.480954 5.26931,-5.57053 3.78835,-9.14599 -1.48096,-3.575355 -5.57052,-5.269296 -9.14596,-3.788337 -3.57539,1.480963 -5.26932,5.570541 -3.78836,9.146 z m 5.54331,-2.296123 c -0.63526,-1.533651 0.0899,-3.284467 1.62354,-3.919739 1.53368,-0.635203 3.28447,0.09 3.91971,1.623635 0.63525,1.533633 -0.0899,3.28441 -1.62358,3.919662 -1.53366,0.635268 -3.28444,-0.0899 -3.91967,-1.623558 z"
     style="fill:#ffffff;fill-opacity:1"
     inkscape:connector-curvature="0"
     inkscape:label="" />
  <path
     id="46"
     d="m 209.30141,26.032045 c 1.12338,3.703294 5.02721,5.789928 8.73061,4.666547 3.70332,-1.123376 5.78994,-5.027225 4.66657,-8.730628 -1.12338,-3.703297 -5.02722,-5.789929 -8.7306,-4.666554 -3.70333,1.123381 -5.78995,5.027225 -4.66658,8.730635 z m 5.74168,-1.741728 c -0.48188,-1.588532 0.4114,-3.25984 1.99992,-3.74173 1.58856,-0.481818 3.25983,0.411511 3.74167,2.000009 0.48189,1.588519 -0.4114,3.259815 -1.99993,3.741656 -1.58855,0.481884 -3.25982,-0.411399 -3.74166,-1.999935 z"
     style="fill:#ffffff;fill-opacity:1"
     inkscape:connector-curvature="0"
     inkscape:label="" />
  <path
     id="47"
     d="m 225.13449,25.365681 c 0.75498,3.795574 4.43549,6.254802 8.23117,5.499833 3.79559,-0.754992 6.25481,-4.435511 5.49985,-8.231191 -0.75498,-3.795574 -4.43549,-6.254801 -8.23117,-5.499832 -3.7956,0.754981 -6.25481,4.435512 -5.49985,8.23119 z m 5.88476,-1.170555 c -0.32386,-1.628121 0.72894,-3.203819 2.35703,-3.527674 1.62815,-0.323806 3.20377,0.729023 3.52763,2.357119 0.32386,1.628098 -0.72892,3.203757 -2.35704,3.527611 -1.62814,0.323851 -3.20382,-0.728939 -3.52762,-2.357056 z"
     style="fill:#ffffff;fill-opacity:1"
     inkscape:connector-curvature="0"
     inkscape:label="" />
  <path
     id="48"
     d="m 241.03369,24.686167 c 0.37931,3.851299 3.80105,6.659438 7.65246,6.280146 3.85131,-0.379324 6.65944,-3.801074 6.28016,-7.652476 -0.37931,-3.851298 -3.80105,-6.659437 -7.65246,-6.280145 -3.85132,0.379312 -6.65944,3.801075 -6.28016,7.652475 z m 5.97116,-0.588111 c -0.16272,-1.652025 1.03946,-3.116943 2.69145,-3.279658 1.65205,-0.16266 3.11689,1.039537 3.27961,2.691537 0.16271,1.652002 -1.03944,3.116884 -2.69146,3.279594 -1.65204,0.162706 -3.11695,-1.039458 -3.2796,-2.691473 z"
     style="fill:#ffffff;fill-opacity:1"
     inkscape:connector-curvature="0"
     inkscape:label="" />
  <path
     id="49"
     d="m 256.99998,24.000045 c -10e-6,3.869933 3.13001,6.999939 7.00005,6.999978 3.86994,-3e-6 6.99994,-3.130032 6.99999,-7.000064 10e-6,-3.869932 -3.13001,-6.999938 -7.00005,-6.999977 -3.86995,-10e-6 -6.99994,3.130033 -6.99999,7.000063 z m 6.00005,-3e-6 c -10e-6,-1.660019 1.33997,-3.000049 2.99995,-3.000057 1.66004,5.2e-5 2.99999,1.34004 3,3.000034 1e-5,1.659996 -1.34004,2.999976 -2.99995,2.999993 -1.66003,-6e-6 -3.00006,-1.339967 -3,-2.99997 z"
     style="fill:#ffffff;fill-opacity:1"
     inkscape:connector-curvature="0"
     inkscape:label="" />
  <path
     id="50"
     d="m 273.03368,23.313923 c -0.37933,3.851297 2.42883,7.273027 6.28023,7.652396 3.8513,0.379317 7.27303,-2.428846 7.65241,-6.280238 0.37933,-3.851296 -2.42883,-7.273026 -6.28023,-7.652395 -3.85131,-0.379331 -7.27303,2.428847 -7.65241,6.280237 z m 5.97116,0.588105 c 0.1627,-1.652027 1.62758,-2.854263 3.27956,-2.691565 1.65204,0.162764 2.8542,1.627638 2.6915,3.27964 -0.1627,1.652003 -1.62763,2.854183 -3.27955,2.6915 -1.65204,-0.162717 -2.85428,-1.627572 -2.69151,-3.279575 z"
     style="fill:#ffffff;fill-opacity:1"
     inkscape:connector-curvature="0"
     inkscape:label="" />
  <path
     id="51"
     d="m 289.13447,22.634408 c -0.75499,3.795571 1.70426,7.476072 5.49993,8.231118 3.79557,0.754984 7.47607,-1.704269 8.23113,-5.49993 0.75499,-3.79557 -1.70426,-7.476071 -5.49993,-8.231117 -3.79558,-0.754999 -7.47607,1.70427 -8.23113,5.499929 z m 5.88477,1.170549 c 0.32384,-1.628125 1.8995,-2.680988 3.52758,-2.357151 1.62813,0.323908 2.68092,1.899561 2.35708,3.527661 -0.32384,1.6281 -1.89955,2.680903 -3.52757,2.357087 -1.62814,-0.323862 -2.68101,-1.899503 -2.35709,-3.527597 z"
     style="fill:#ffffff;fill-opacity:1"
     inkscape:connector-curvature="0"
     inkscape:label="" />
  <path
     id="52"
     d="m 305.30138,21.968043 c -1.12338,3.703292 0.96327,7.607118 4.66666,8.73057 3.7033,1.123393 7.60712,-0.96328 8.73058,-4.666655 1.12338,-3.703292 -0.96327,-7.607117 -4.66666,-8.730569 -3.7033,-1.123394 -7.60711,0.963279 -8.73058,4.666654 z m 5.74169,1.741712 c 0.48188,-1.588533 2.15315,-2.481893 3.74165,-2.000028 1.58853,0.481926 2.48182,2.15319 1.99995,3.741708 -0.48186,1.588518 -2.15317,2.481806 -3.74161,1.999975 -1.58856,-0.481887 -2.48192,-2.153143 -1.99999,-3.741655 z"
     style="fill:#ffffff;fill-opacity:1"
     inkscape:connector-curvature="0"
     inkscape:label="" />
  <path
     id="53"
     d="m 321.5328,21.321249 c -1.48095,3.575349 0.21301,7.664905 3.78845,9.145942 3.57534,1.480957 7.66489,-0.213013 9.14595,-3.788436 1.48095,-3.575348 -0.21301,-7.664904 -3.78845,-9.145941 -3.57535,-1.480974 -7.6649,0.213013 -9.14595,3.788435 z m 5.54334,2.296119 c 0.63525,-1.533662 2.38604,-2.258899 3.91966,-1.623661 1.53365,0.635315 2.25882,2.386082 1.62356,3.91972 -0.63524,1.533638 -2.38606,2.258806 -3.91962,1.623602 -1.53368,-0.635273 -2.25892,-2.386044 -1.6236,-3.919661 z"
     style="fill:#ffffff;fill-opacity:1"
     inkscape:connector-curvature="0"
     inkscape:label="" />
  <path
     id="54"
     d="m 337.82651,20.70025 c -1.82427,3.412975 -0.53931,7.648875 2.87374,9.473235 3.41298,1.824286 7.64887,0.539305 9.47325,-2.873734 1.82426,-3.412975 0.5393,-7.648874 -2.87375,-9.473234 -3.41298,-1.824287 -7.64886,-0.539304 -9.47324,2.873733 z m 5.29157,2.828394 c 0.78253,-1.463999 2.59598,-2.014145 4.05995,-1.231637 1.46398,0.782571 2.01406,2.595995 1.23155,4.059983 -0.78252,1.463987 -2.59598,2.014054 -4.0599,1.231593 -1.46403,-0.78254 -2.01417,-2.595969 -1.2316,-4.059939 z"
     style="fill:#ffffff;fill-opacity:1"
     inkscape:connector-curvature="0"
     inkscape:label="" />
  <path
     id="55"
     d="m 354.17966,20.111032 c -2.15001,3.217731 -1.28643,7.559182 1.93137,9.709295 3.21773,2.150016 7.55917,1.286427 9.7093,-1.931355 2.15002,-3.21773 1.28643,-7.559182 -1.93136,-9.709294 -3.21774,-2.150035 -7.55918,-1.286428 -9.70931,1.931354 z m 4.98888,3.333452 c 0.92225,-1.380262 2.78088,-1.750002 4.16113,-0.827777 1.38021,0.92231 1.7499,2.780938 0.82764,4.161147 -0.92224,1.380239 -2.78088,1.749906 -4.16106,0.827727 -1.38027,-0.922275 -1.75001,-2.780894 -0.82771,-4.161097 z"
     style="fill:#ffffff;fill-opacity:1"
     inkscape:connector-curvature="0"
     inkscape:label="" />
  <path
     id="56"
     d="m 370.58888,19.559264 c -2.45506,2.991498 -2.02116,7.396691 0.97038,9.851849 2.99151,2.455072 7.39669,2.021162 9.85187,-0.970377 2.45505,-2.991498 2.02115,-7.396691 -0.97039,-9.851849 -2.99151,-2.455074 -7.39668,-2.021161 -9.85186,0.970377 z m 4.63811,3.806382 c 1.0531,-1.283205 2.93903,-1.468994 4.22223,-0.415915 1.28316,1.053142 1.4689,2.939066 0.4158,4.222242 -1.05307,1.283188 -2.93901,1.468907 -4.22217,0.415867 -1.28322,-1.053114 -1.469,-2.939026 -0.41586,-4.222194 z"
     style="fill:#ffffff;fill-opacity:1"
     inkscape:connector-curvature="0"
     inkscape:label="" />
  <path
     id="57"
     d="m 387.0502,19.050265 c -2.73645,2.736455 -2.73643,7.162965 6e-5,9.899523 2.73647,2.73647 7.16297,2.736432 9.89955,-5.2e-5 2.73644,-2.736456 2.73642,-7.162967 -7e-5,-9.899524 -2.73647,-2.736472 -7.16296,-2.73643 -9.89954,5.3e-5 z m 4.24269,4.242667 c 1.1738,-1.173804 3.06886,-1.173845 4.24267,-6.1e-5 1.17375,1.173842 1.17374,3.068891 -6e-5,4.242666 -1.17377,1.17379 -3.06883,1.173761 -4.2426,2e-5 -1.17382,-1.173821 -1.17385,-3.068861 -10e-6,-4.242625 z"
     style="fill:#ffffff;fill-opacity:1"
     inkscape:connector-curvature="0"
     inkscape:label="" />
  <path
     id="58"
     d="m 403.55918,18.588939 c -2.99148,2.45506 -3.42534,6.860259 -0.97025,9.851856 2.45507,2.991518 6.86025,3.425352 9.85188,0.970277 2.99148,-2.455067 3.42534,-6.860256 0.97026,-9.85185 -2.45507,-2.991541 -6.86026,-3.425357 -9.85189,-0.970283 z m 3.80641,4.638096 c 1.2832,-1.053104 3.16914,-0.867395 4.22225,0.415784 1.05305,1.283244 0.86728,3.16916 -0.41591,4.222239 -1.28319,1.053086 -3.16911,0.867301 -4.22217,-0.415836 -1.05311,-1.283223 -0.8674,-3.169126 0.41583,-4.222187 z"
     style="fill:#ffffff;fill-opacity:1"
     inkscape:connector-curvature="0"
     inkscape:label="" />
  <path
     id="59"
     d="m 420.11094,18.179719 c -3.21771,2.150022 -4.08127,6.491483 -1.93123,9.709315 2.15003,3.217752 6.49147,4.08128 9.70934,1.931258 3.21771,-2.150029 4.08127,-6.49148 1.93124,-9.709308 -2.15003,-3.217775 -6.49149,-4.081286 -9.70935,-1.931265 z m 3.33347,4.988855 c 1.38024,-0.922257 3.2389,-0.552588 4.16116,0.827635 0.9222,1.380282 0.55248,3.238908 -0.82776,4.161142 -1.38023,0.92224 -3.23886,0.552497 -4.16108,-0.827679 -0.92226,-1.380267 -0.55259,-3.238886 0.82768,-4.161098 z"
     style="fill:#ffffff;fill-opacity:1"
     inkscape:connector-curvature="0"
     inkscape:label="" />
  <path
     id="60"
     d="m 436.70015,17.826551 c -3.41295,1.824278 -4.69789,6.06019 -2.87361,9.473268 1.82429,3.412998 6.06018,4.697903 9.4733,2.873641 3.41295,-1.824286 4.69789,-6.060188 2.87361,-9.473261 -1.82428,-3.41302 -6.06019,-4.697911 -9.4733,-2.873648 z m 2.82843,5.29157 c 1.46399,-0.782529 3.27747,-0.23246 4.05998,1.231511 0.78249,1.46403 0.23238,3.277451 -1.23162,4.059974 -1.46398,0.782513 -3.27742,0.232372 -4.05991,-1.231544 -0.78253,-1.464025 -0.23248,-3.27746 1.23155,-4.059941 z"
     style="fill:#ffffff;fill-opacity:1"
     inkscape:connector-curvature="0"
     inkscape:label="" />
  <path
     id="61"
     d="m 453.32114,17.532836 c -3.57532,1.480966 -5.26927,5.570535 -3.78831,9.145989 1.48097,3.575375 5.57052,5.269283 9.14602,3.788349 3.57532,-1.480973 5.26927,-5.570532 3.78831,-9.145981 -1.48096,-3.575396 -5.57053,-5.269292 -9.14602,-3.788357 z m 2.29615,5.543325 c 1.53364,-0.635265 3.28447,0.08991 3.91972,1.623528 0.63522,1.533678 -0.09,3.284447 -1.62364,3.919705 -1.53363,0.635249 -3.28441,-0.08999 -3.91964,-1.623555 -0.63527,-1.533677 0.0899,-3.284465 1.62356,-3.919678 z"
     style="fill:#ffffff;fill-opacity:1"
     inkscape:connector-curvature="0"
     inkscape:label="" />
  <path
     id="62"
     d="m 469.96793,17.301403 c -3.70326,1.123393 -5.7899,5.027233 -4.66653,8.73063 1.12339,3.703319 5.02722,5.789916 8.73066,4.666574 3.70326,-1.1234 5.7899,-5.02723 4.66653,-8.730622 -1.12338,-3.703339 -5.02723,-5.789926 -8.73066,-4.666582 z m 1.74176,5.741695 c 1.58852,-0.481883 3.25984,0.411411 3.74171,1.99991 0.48183,1.588555 -0.4115,3.25981 -2.00002,3.741686 -1.58851,0.481868 -3.25978,-0.411485 -3.74163,-1.999929 -0.48189,-1.588559 0.4114,-3.259838 1.99994,-3.741667 z"
     style="fill:#ffffff;fill-opacity:1"
     inkscape:connector-curvature="0"
     inkscape:label="" />
  <path
     id="63"
     d="m 486.6343,17.13448 c -3.79555,0.754994 -6.25477,4.435513 -5.49982,8.231189 0.75499,3.795593 4.43551,6.254791 8.23123,5.499858 3.79554,-0.755001 6.25476,-4.435521 5.49981,-8.231196 -0.75499,-3.795596 -4.43551,-6.254787 -8.23122,-5.499851 z m 1.17059,5.884765 c 1.6281,-0.323856 3.20382,0.728952 3.52767,2.357039 0.32379,1.628127 -0.72904,3.203769 -2.35715,3.527621 -1.62807,0.32386 -3.20374,-0.729006 -3.52759,-2.357032 -0.32386,-1.628143 0.72894,-3.203837 2.35707,-3.527628 z"
     style="fill:#ffffff;fill-opacity:1"
     inkscape:connector-curvature="0"
     inkscape:label="" />
  <path
     id="64"
     d="m 503.31381,17.033675 c -3.85126,0.37935 -6.65941,3.801081 -6.28012,7.652485 0.37931,3.851318 3.80106,6.659421 7.65249,6.280167 3.85127,-0.379342 6.65941,-3.801078 6.28013,-7.652469 -0.37931,-3.851341 -3.80108,-6.659438 -7.6525,-6.280183 z m 0.58814,5.971171 c 1.652,-0.162719 3.11694,1.039469 3.27965,2.691455 0.16266,1.652036 -1.03955,3.116892 -2.69155,3.279602 -1.652,0.162708 -3.11687,-1.03953 -3.27958,-2.691452 -0.16271,-1.65205 1.03946,-3.116936 2.69148,-3.279605 z"
     style="fill:#ffffff;fill-opacity:1"
     inkscape:connector-curvature="0"
     inkscape:label="" />
</svg>
