<?xml version="1.0" encoding="UTF-8" standalone="no"?>
<!-- Created with Inkscape (http://www.inkscape.org/) -->

<svg
   xmlns:dc="http://purl.org/dc/elements/1.1/"
   xmlns:cc="http://creativecommons.org/ns#"
   xmlns:rdf="http://www.w3.org/1999/02/22-rdf-syntax-ns#"
   xmlns:svg="http://www.w3.org/2000/svg"
   xmlns="http://www.w3.org/2000/svg"
   xmlns:sodipodi="http://sodipodi.sourceforge.net/DTD/sodipodi-0.dtd"
   xmlns:inkscape="http://www.inkscape.org/namespaces/inkscape"
   id="svg7384"
   height="16"
   width="16.021"
   version="1.1"
   sodipodi:docname="battery-level-100-symbolic.svg"
   inkscape:version="0.92.5 (2060ec1f9f, 2020-04-08)">
  <defs
     id="defs11" />
  <sodipodi:namedview
     pagecolor="#ffffff"
     bordercolor="#666666"
     borderopacity="1"
     objecttolerance="10"
     gridtolerance="10"
     guidetolerance="10"
     inkscape:pageopacity="0"
     inkscape:pageshadow="2"
     inkscape:window-width="1920"
     inkscape:window-height="1015"
     id="namedview9"
     showgrid="true"
     inkscape:zoom="64"
     inkscape:cx="6.9129365"
     inkscape:cy="10.533305"
     inkscape:window-x="0"
     inkscape:window-y="0"
     inkscape:window-maximized="1"
     inkscape:current-layer="svg7384">
    <inkscape:grid
       type="xygrid"
       id="grid936" />
  </sodipodi:namedview>
  <metadata
     id="metadata90">
    <rdf:RDF>
      <cc:Work
         rdf:about="">
        <dc:format>image/svg+xml</dc:format>
        <dc:type
           rdf:resource="http://purl.org/dc/dcmitype/StillImage" />
        <dc:title>Gnome Symbolic Icon Theme</dc:title>
      </cc:Work>
    </rdf:RDF>
  </metadata>
  <title
     id="title9167">Gnome Symbolic Icon Theme</title>
  <path
     style="fill:#bebebe;fill-opacity:1"
     d="M 7,3 C 7,3.6666667 7,4.3333333 7,5 H 5 v 8 h 6 V 5 H 9 C 9,4.3333333 9,3.6666667 9,3 Z"
     id="rect6060-6"
     inkscape:connector-curvature="0"
     sodipodi:nodetypes="ccccccccc" />
  <path
     style="color:#bebebe;text-indent:0;text-transform:none;fill:#bebebe"
     d="M 5.4667969,-0.00195313 5.4707031,0 c -0.49033,0 -0.79612,0.22846 -1.03125,0.46875 -0.24,0.24 -0.4414062,0.5592969 -0.4414062,1.0292969 v 0.5 c -0.6666667,0 -1.3333333,0 -2,0 0,4.3333334 0,8.6666671 0,13.0000001 v 1 C 6.1254076,15.997367 10.438532,15.99992 14,16 14.0041,11.664441 13.998,7.3305728 13.998,2.9980469 v -1 c -0.666667,0 -1.333333,0 -2,0 v -0.375 -0.03125 -0.03125 C 11.9741,1.1299469 11.82777,0.83949688 11.59175,0.56054688 11.36801,0.29610686 10.965,0.03123687 10.4355,0.02929688 V -0.00195313 H 10.373 Z m 0.53125,2.00000003 h 4 v 2 H 11.998047 C 12.000248,7.3310194 12,10.664287 12,14 9.3319812,13.999424 6.6677329,13.998 3.9980469,13.998 V 3.9980469 h 2 z"
     id="path10743"
     inkscape:connector-curvature="0"
     sodipodi:nodetypes="cccsccccccccccccccccccccccccc" />
</svg>
