<?xml version="1.0" encoding="UTF-8" standalone="no"?>
<!-- Created with Inkscape (http://www.inkscape.org/) -->

<svg
   xmlns:dc="http://purl.org/dc/elements/1.1/"
   xmlns:cc="http://creativecommons.org/ns#"
   xmlns:rdf="http://www.w3.org/1999/02/22-rdf-syntax-ns#"
   xmlns:svg="http://www.w3.org/2000/svg"
   xmlns="http://www.w3.org/2000/svg"
   xmlns:sodipodi="http://sodipodi.sourceforge.net/DTD/sodipodi-0.dtd"
   xmlns:inkscape="http://www.inkscape.org/namespaces/inkscape"
   id="svg7384"
   height="16"
   width="16.021"
   version="1.1"
   sodipodi:docname="battery-level-10-symbolic.svg"
   inkscape:version="0.92.5 (2060ec1f9f, 2020-04-08)">
  <defs
     id="defs11" />
  <sodipodi:namedview
     pagecolor="#ffffff"
     bordercolor="#666666"
     borderopacity="1"
     objecttolerance="10"
     gridtolerance="10"
     guidetolerance="10"
     inkscape:pageopacity="0"
     inkscape:pageshadow="2"
     inkscape:window-width="1920"
     inkscape:window-height="1015"
     id="namedview9"
     showgrid="true"
     inkscape:zoom="32"
     inkscape:cx="0.015871"
     inkscape:cy="7.883187"
     inkscape:window-x="0"
     inkscape:window-y="0"
     inkscape:window-maximized="1"
     inkscape:current-layer="svg7384">
    <inkscape:grid
       type="xygrid"
       id="grid936" />
  </sodipodi:namedview>
  <metadata
     id="metadata90">
    <rdf:RDF>
      <cc:Work
         rdf:about="">
        <dc:format>image/svg+xml</dc:format>
        <dc:type
           rdf:resource="http://purl.org/dc/dcmitype/StillImage" />
        <dc:title>Gnome Symbolic Icon Theme</dc:title>
      </cc:Work>
    </rdf:RDF>
  </metadata>
  <title
     id="title9167">Gnome Symbolic Icon Theme</title>
  <path
     class="error"
     style="fill:#e01b24;fill-opacity:1"
     d="m 5,12 v 1 h 2 v -1 z"
     id="rect6060-6"
     inkscape:connector-curvature="0"
     sodipodi:nodetypes="ccccc" />
  <path
     inkscape:connector-curvature="0"
     style="color:#bebebe;overflow:visible;fill:#f57900;fill-opacity:1"
     class="warning"
     d="m 8.8959156,7.9999154 a 0.863,0.863 0 0 0 -0.875,0.875 v 6.2499996 c 0,0.492 0.383,0.875 0.875,0.875 h 6.2499994 a 0.863,0.863 0 0 0 0.875,-0.875 V 8.8749154 a 0.863,0.863 0 0 0 -0.875,-0.875 z m 2.1249994,1 h 2 v 2.4999996 c 0,0 0,0.5 -0.5,0.5 h -1 c -0.5,0 -0.5,-0.5 -0.5,-0.5 z m 0.5,3.9999996 h 1 c 0.277,0 0.5,0.223 0.5,0.5 v 1 c 0,0.277 -0.223,0.5 -0.5,0.5 h -1 a 0.499,0.499 0 0 1 -0.5,-0.5 v -1 c 0,-0.277 0.223,-0.5 0.5,-0.5 z"
     overflow="visible"
     id="path4" />
  <path
     inkscape:connector-curvature="0"
     style="color:#bebebe;text-indent:0;text-transform:none;fill:#bebebe"
     d="M 5.47925,0 5.48316,0.00195 C 4.99283,0.00195 4.68704,0.23041 4.45191,0.4707 4.2119063,0.7107031 4.0105,1.03 4.0105,1.5 V 2 h -1 -1 v 1 12 1 h 1 3.9902344 V 14 H 4.0105 V 4 h 1 1 V 3 2 h 4 v 1 1 h 1 1 v 3 h 2 V 3 2 h -1 -1 V 1.625 1.59375 1.5625 C 11.9866,1.1319 11.84027,0.84145 11.60425,0.5625 11.38051,0.29806 10.9775,0.03319 10.448,0.03125 V 0 h -0.0625 z"
     id="path10743-3" />
</svg>
