<?xml version="1.0" encoding="UTF-8" standalone="no"?>
<!-- Created with Inkscape (http://www.inkscape.org/) -->

<svg
   xmlns:dc="http://purl.org/dc/elements/1.1/"
   xmlns:cc="http://creativecommons.org/ns#"
   xmlns:rdf="http://www.w3.org/1999/02/22-rdf-syntax-ns#"
   xmlns:svg="http://www.w3.org/2000/svg"
   xmlns="http://www.w3.org/2000/svg"
   xmlns:sodipodi="http://sodipodi.sourceforge.net/DTD/sodipodi-0.dtd"
   xmlns:inkscape="http://www.inkscape.org/namespaces/inkscape"
   id="svg7384"
   height="16"
   width="16.021"
   version="1.1"
   sodipodi:docname="battery-level-40-charged-symbolic.svg"
   inkscape:version="0.92.5 (2060ec1f9f, 2020-04-08)">
  <defs
     id="defs11" />
  <sodipodi:namedview
     pagecolor="#ffffff"
     bordercolor="#666666"
     borderopacity="1"
     objecttolerance="10"
     gridtolerance="10"
     guidetolerance="10"
     inkscape:pageopacity="0"
     inkscape:pageshadow="2"
     inkscape:window-width="1920"
     inkscape:window-height="1015"
     id="namedview9"
     showgrid="true"
     inkscape:zoom="45.254834"
     inkscape:cx="-0.0071911097"
     inkscape:cy="7.1499038"
     inkscape:window-x="0"
     inkscape:window-y="0"
     inkscape:window-maximized="1"
     inkscape:current-layer="svg7384">
    <inkscape:grid
       type="xygrid"
       id="grid936" />
  </sodipodi:namedview>
  <metadata
     id="metadata90">
    <rdf:RDF>
      <cc:Work
         rdf:about="">
        <dc:format>image/svg+xml</dc:format>
        <dc:type
           rdf:resource="http://purl.org/dc/dcmitype/StillImage" />
        <dc:title>Gnome Symbolic Icon Theme</dc:title>
      </cc:Work>
    </rdf:RDF>
  </metadata>
  <title
     id="title9167">Gnome Symbolic Icon Theme</title>
  <path
     style="fill:#bebebe;fill-opacity:1"
     d="M 5 10 L 5 13 L 8 13 L 8 11 L 9 10 L 5 10 z "
     id="rect6060-6" />
  <path
     style="color:#bebebe;font-variant-ligatures:normal;font-variant-position:normal;font-variant-caps:normal;font-variant-numeric:normal;font-variant-alternates:normal;font-feature-settings:normal;text-indent:0;text-decoration:none;text-decoration-line:none;text-decoration-style:solid;text-decoration-color:#000000;text-transform:none;text-orientation:mixed;dominant-baseline:auto;white-space:normal;shape-padding:0;isolation:auto;mix-blend-mode:normal;solid-color:#000000;fill:#bebebe;color-rendering:auto;image-rendering:auto;shape-rendering:auto;enable-background:accumulate;fill-opacity:1;opacity:1"
     d="m 13.020998,7.997071 v 0.00195 c -0.01432,-3.077e-4 -0.02865,-3.077e-4 -0.04297,0 -0.249962,0.01053 -0.4869,0.1143646 -0.664062,0.2910157 L 9.3139662,11.29004 C 9.12643,11.477552 9.0000511,11.731872 9,11.997071 c -4.07e-5,0.0052 -4.07e-5,0.01042 0,0.01563 v 0.98437 h 1.020998 1 1.103516 l -0.958985,1.404297 c -0.112754,0.166584 -0.164357,0.363299 -0.163579,0.564453 h -0.0039 L 10.9983,16 h 0.991704 v -0.0059 c 0.260557,0.0015 0.511179,-0.132847 0.698969,-0.313477 l 3.03125,-2.96875 c 0.192324,-0.188083 0.300747,-0.445763 0.300775,-0.714802 3e-6,-0.0013 3e-6,-0.0026 0,-0.0039 v -0.9961 h -1 -1 -1.130859 l 0.96289,-1.4453125 C 13.96254,9.3874942 13.999986,9.1944928 14,8.997071 c 2.3e-5,-0.00391 2.3e-5,-0.00781 0,-0.011719 V 7.997071 Z"
     id="path12871-5"
     inkscape:connector-curvature="0"
     sodipodi:nodetypes="cccccccccccccccccccccccccccccc" />
  <path
     inkscape:connector-curvature="0"
     d="M 5.47,0 C 4.97967,0 4.67393,0.22846 4.4388,0.46875 c -0.24,0.24 -0.44,0.56 -0.44,1.03 v 0.5 h -1 -1 v 1 12 1 h 1 7 v -2 h -6 v -10 h 1 1 v -1 -1 h 4 v 1 1 h 1 1 v 3 h 2 v -4 -1 h -1 -1 v -0.375 -0.0312 -0.0312 c -0.0239,-0.4306 -0.17023,-0.72105 -0.40625,-1 -0.22374,-0.26444 -0.6267,-0.52931 -1.1562,-0.53125 v -0.0312 h -0.0625 -4.9062 z"
     style="color:#bebebe;text-indent:0;text-transform:none;fill:#bebebe"
     id="path10743" />
</svg>
