<?xml version="1.0" encoding="UTF-8" standalone="no"?>
<!-- Created with Inkscape (http://www.inkscape.org/) -->

<svg
   xmlns:dc="http://purl.org/dc/elements/1.1/"
   xmlns:cc="http://creativecommons.org/ns#"
   xmlns:rdf="http://www.w3.org/1999/02/22-rdf-syntax-ns#"
   xmlns:svg="http://www.w3.org/2000/svg"
   xmlns="http://www.w3.org/2000/svg"
   xmlns:sodipodi="http://sodipodi.sourceforge.net/DTD/sodipodi-0.dtd"
   xmlns:inkscape="http://www.inkscape.org/namespaces/inkscape"
   id="svg7384"
   height="16"
   width="16.021"
   version="1.1"
   sodipodi:docname="battery-level-0-symbolic.svg"
   inkscape:version="0.92.5 (2060ec1f9f, 2020-04-08)">
  <defs
     id="defs11" />
  <sodipodi:namedview
     pagecolor="#ffffff"
     bordercolor="#666666"
     borderopacity="1"
     objecttolerance="10"
     gridtolerance="10"
     guidetolerance="10"
     inkscape:pageopacity="0"
     inkscape:pageshadow="2"
     inkscape:window-width="1920"
     inkscape:window-height="1015"
     id="namedview9"
     showgrid="true"
     inkscape:zoom="22.627417"
     inkscape:cx="-2.2822605"
     inkscape:cy="8.7548231"
     inkscape:window-x="0"
     inkscape:window-y="0"
     inkscape:window-maximized="1"
     inkscape:current-layer="svg7384">
    <inkscape:grid
       type="xygrid"
       id="grid936" />
  </sodipodi:namedview>
  <metadata
     id="metadata90">
    <rdf:RDF>
      <cc:Work
         rdf:about="">
        <dc:format>image/svg+xml</dc:format>
        <dc:type
           rdf:resource="http://purl.org/dc/dcmitype/StillImage" />
        <dc:title>Gnome Symbolic Icon Theme</dc:title>
      </cc:Work>
    </rdf:RDF>
  </metadata>
  <title
     id="title9167">Gnome Symbolic Icon Theme</title>
  <path
     inkscape:connector-curvature="0"
     style="color:#bebebe;overflow:visible;fill:#e01b24"
     class="error"
     d="m 8.8959153,7.9999154 a 0.863,0.863 0 0 0 -0.875,0.875 v 6.2499996 c 0,0.492 0.383,0.875 0.875,0.875 h 6.2499997 a 0.863,0.863 0 0 0 0.875,-0.875 V 8.8749154 a 0.863,0.863 0 0 0 -0.875,-0.875 z m 2.1249997,1 h 2 v 2.4999996 c 0,0 0,0.5 -0.5,0.5 h -1 c -0.5,0 -0.5,-0.5 -0.5,-0.5 z m 0.5,3.9999996 h 1 c 0.277,0 0.5,0.223 0.5,0.5 v 1 c 0,0.277 -0.223,0.5 -0.5,0.5 h -1 a 0.499,0.499 0 0 1 -0.5,-0.5 v -1 c 0,-0.277 0.223,-0.5 0.5,-0.5 z"
     overflow="visible"
     id="path4" />
  <path
     style="color:#bebebe;text-indent:0;text-transform:none;fill:#bebebe"
     d="M 5.4785156 0 L 5.4824219 0.001953125 C 4.9920919 0.001953125 4.6863019 0.23041312 4.4511719 0.47070312 C 4.2111719 0.71070312 4.0097656 1.03 4.0097656 1.5 L 4.0097656 2 L 3.0097656 2 L 2.0097656 2 L 2.0097656 3 L 2.0097656 15 L 2.0097656 16 L 3.0097656 16 L 7 16 L 7 14 L 4.0097656 14 L 4.0097656 4 L 5.0097656 4 L 6.0097656 4 L 6.0097656 3 L 6.0097656 2 L 10.009766 2 L 10.009766 3 L 10.009766 4 L 11.009766 4 L 12.009766 4 L 12.009766 7 L 14.009766 7 L 14.009766 3 L 14.009766 2 L 13.009766 2 L 12.009766 2 L 12.009766 1.625 L 12.009766 1.59375 L 12.009766 1.5625 C 11.985866 1.1319 11.839536 0.84145 11.603516 0.5625 C 11.379776 0.29806 10.976766 0.03319 10.447266 0.03125 L 10.447266 0 L 10.384766 0 L 5.4785156 0 z "
     id="path10743-3" />
</svg>
