<?xml version="1.0" encoding="UTF-8" standalone="no"?>
<svg
   xmlns:dc="http://purl.org/dc/elements/1.1/"
   xmlns:cc="http://creativecommons.org/ns#"
   xmlns:rdf="http://www.w3.org/1999/02/22-rdf-syntax-ns#"
   xmlns:svg="http://www.w3.org/2000/svg"
   xmlns="http://www.w3.org/2000/svg"
   height="16"
   width="16"
   version="1.1"
   id="svg6">
  <metadata
     id="metadata12">
    <rdf:RDF>
      <cc:Work
         rdf:about="">
        <dc:format>image/svg+xml</dc:format>
        <dc:type
           rdf:resource="http://purl.org/dc/dcmitype/StillImage" />
      </cc:Work>
    </rdf:RDF>
  </metadata>
  <defs
     id="defs10" />
  <path
     id="path2"
     style="color:#000000;font-weight:400;line-height:normal;font-family:sans-serif;font-variant-ligatures:normal;font-variant-position:normal;font-variant-caps:normal;font-variant-numeric:normal;font-variant-alternates:normal;font-feature-settings:normal;text-indent:0;text-align:start;text-decoration:none;text-decoration-line:none;text-decoration-style:solid;text-decoration-color:#000000;text-transform:none;text-orientation:mixed;white-space:normal;shape-padding:0;overflow:visible;isolation:auto;mix-blend-mode:normal;fill:#bebebe;fill-opacity:1"
     overflow="visible"
     font-weight="400"
     d="M 4,4 C 2.347,4 1,5.347 1,7 1,8.304 1.843,9.406 3.008,9.818 3.017,9.471 3.08,9.14 3.174,8.82 A 1.98,1.98 0 0 1 2,7 C 2,5.883 2.884,5 4,5 h 4 c 1.11,0 2,0.89 2,2 0,1.11 -0.89,2 -2,2 H 6.998 c -0.571,0 -1,0.429 -1,1 H 8 C 9.651,10 11,8.65 11,7 11,5.35 9.651,4 8,4 Z m 3,3 c -1.65,0 -3,1.35 -3,3 0,1.65 1.35,3 3,3 h 4 c 1.654,0 3,-1.347 3,-3 A 2.997,2.997 0 0 0 11.992,7.182 3.856,3.856 0 0 1 11.826,8.18 1.98,1.98 0 0 1 13,10 c 0,1.117 -0.883,2 -2,2 H 7 C 5.89,12 5,11.11 5,10 5,8.89 5.89,8 7,8 h 1.002 c 0.571,0 1,-0.429 1,-1 z" />
</svg>
