<?xml version="1.0" encoding="UTF-8" standalone="no"?>
<svg
   xmlns:dc="http://purl.org/dc/elements/1.1/"
   xmlns:cc="http://creativecommons.org/ns#"
   xmlns:rdf="http://www.w3.org/1999/02/22-rdf-syntax-ns#"
   xmlns:svg="http://www.w3.org/2000/svg"
   xmlns="http://www.w3.org/2000/svg"
   height="16"
   width="16"
   version="1.1"
   id="svg6">
  <metadata
     id="metadata12">
    <rdf:RDF>
      <cc:Work
         rdf:about="">
        <dc:format>image/svg+xml</dc:format>
        <dc:type
           rdf:resource="http://purl.org/dc/dcmitype/StillImage" />
      </cc:Work>
    </rdf:RDF>
  </metadata>
  <defs
     id="defs10" />
  <g
     id="g881">
    <path
       id="path850-3"
       d="M 8 8 A 4.2894239 3.4400756 0 0 0 4.0625 10.078125 L 5.1542969 11.443359 A 3.9905903 4.7362423 0 0 1 8 10.019531 A 3.9905903 4.7362423 0 0 1 10 10.664062 L 10 10 L 11 10 L 11.375 10 L 11.886719 10 A 4.2894239 3.4400756 0 0 0 8 8 z "
       style="opacity:0.35;fill:#bebebe;fill-opacity:1;stroke:none;stroke-width:1px;stroke-linecap:butt;stroke-linejoin:miter;stroke-opacity:1" />
    <path
       id="path850-5"
       d="M 8,5.0039062 C 5.6078744,5.0066039 3.4192521,6 2.046875,7.559 L 3.3769531,9.23 C 4.3569422,7.696982 6.215906,7.0079013 8,7.0058594 9.7844239,7.0067935 11.639191,7.6971318 12.62,9.23 L 13.95,7.559 C 12.779178,5.8399222 10.391832,5.0052295 8,5.0039062 Z"
       style="opacity:0.35;fill:#bebebe;fill-opacity:1;stroke:none;stroke-width:1px;stroke-linecap:butt;stroke-linejoin:miter;stroke-opacity:1" />
    <path
       d="M 8,2 C 4.9568,2 2.167467,3.0512 0,5 L 1.367467,6.6666666 C 3.2992,4.9728 5.3463714,3.9936561 7.9981044,3.9936561 c 2.6527996,0 4.6098956,0.9290105 6.6365626,2.7060772 L 16,5 C 13.8336,3.0522666 11.044267,2 8,2 Z"
       overflow="visible"
       style="color:#000000;overflow:visible;opacity:0.35;fill:#bebebe;fill-opacity:1;stroke-width:1.06666672;marker:none"
       id="path2-3" />
    <path
       id="path2-36"
       d="M 8.0058594 11 C 7.1228594 11 6.0914688 11.762156 5.7304688 12.160156 L 8 15 L 10 12.498047 L 10 11.90625 C 9.5319199 11.495516 8.7340037 11 8.0058594 11 z "
       style="color:#000000;overflow:visible;opacity:0.35;fill:#bebebe;fill-opacity:1;marker:none" />
  </g>
  <path
     style="color:#bebebe;fill:#bebebe"
     d="m 11,11 h 1.375 L 13.5,12.0938 14.5938,11 H 16 v 1.4688 L 14.9062,13.5313 16,14.5938 V 16 H 14.5625 L 13.5,14.9375 12.4375,16 H 11 V 14.5938 L 12.0625,13.5313 11,12.4688 Z"
     id="path20031" />
</svg>
