<?xml version="1.0" encoding="UTF-8" standalone="no"?>
<svg
   xmlns:dc="http://purl.org/dc/elements/1.1/"
   xmlns:cc="http://creativecommons.org/ns#"
   xmlns:rdf="http://www.w3.org/1999/02/22-rdf-syntax-ns#"
   xmlns:svg="http://www.w3.org/2000/svg"
   xmlns="http://www.w3.org/2000/svg"
   height="16"
   width="16"
   version="1.1"
   id="svg8">
  <metadata
     id="metadata14">
    <rdf:RDF>
      <cc:Work
         rdf:about="">
        <dc:format>image/svg+xml</dc:format>
        <dc:type
           rdf:resource="http://purl.org/dc/dcmitype/StillImage" />
      </cc:Work>
    </rdf:RDF>
  </metadata>
  <defs
     id="defs12" />
  <path
     style="opacity:0.35;fill:#bebebe;fill-opacity:1;stroke:none;stroke-width:1px;stroke-linecap:butt;stroke-linejoin:miter;stroke-opacity:1"
     d="M 6.6894531 8.1660156 A 4.2894239 3.4400756 0 0 0 4.0625 10.078125 L 5.1542969 11.443359 A 3.9905903 4.7362423 0 0 1 6.2011719 10.539062 C 6.0496277 10.170642 6.0041683 9.7679011 6.1191406 9.3574219 C 6.2253451 8.8797743 6.4400083 8.4970662 6.6894531 8.1660156 z M 11.298828 9.2539062 C 11.226666 9.3460074 11.155141 9.4387329 11.070312 9.5253906 C 10.611117 10.032885 10.172936 10.314336 9.8867188 10.552734 C 9.8830082 10.56486 9.8749628 10.57392 9.8710938 10.585938 A 3.9905903 4.7362423 0 0 1 10.847656 11.439453 L 11.935547 10.080078 A 4.2894239 3.4400756 0 0 0 11.298828 9.2539062 z "
     id="path850-3" />
  <path
     style="opacity:0.35;fill:#bebebe;fill-opacity:1;stroke:none;stroke-width:1px;stroke-linecap:butt;stroke-linejoin:miter;stroke-opacity:1"
     d="M 11.869141 5.84375 C 11.90607 5.9734404 11.951182 6.0989285 11.974609 6.234375 L 11.976562 6.2421875 L 11.978516 6.2519531 C 12.079416 6.9035704 12.055932 7.6345179 11.814453 8.3183594 C 12.119945 8.5805903 12.394855 8.8799414 12.619141 9.2304688 L 13.949219 7.5585938 C 13.448501 6.823407 12.720046 6.2576203 11.869141 5.84375 z M 4.1230469 5.9589844 C 3.3221944 6.3775627 2.612705 6.9158192 2.046875 7.5585938 L 3.3769531 9.2304688 C 3.7090583 8.7109495 4.1481254 8.2983705 4.6464844 7.96875 L 4.1132812 7.96875 L 4.0390625 7.0507812 C 4.0086927 6.6767539 4.0441718 6.310672 4.1230469 5.9589844 z "
     id="path850-5" />
  <path
     style="color:#000000;overflow:visible;fill:#bebebe;fill-opacity:1;stroke-width:1.06666672;marker:none;opacity:0.35"
     d="M 8 2 C 4.9568 2 2.167467 3.0512 0 5 L 1.3671875 6.6660156 C 2.4349924 5.7296963 3.5426469 5.0229328 4.7636719 4.5683594 C 5.1739573 4.0118728 5.7282839 3.5594444 6.3925781 3.2929688 C 6.8348096 3.1072986 7.3024437 3.0044555 7.7734375 2.9765625 L 7.7734375 2.9726562 C 7.7761675 2.9724463 7.77852 2.9748059 7.78125 2.9746094 C 7.785972 2.9743394 7.7902019 2.9709584 7.7949219 2.9707031 L 7.7949219 2.9746094 C 7.8130629 2.9733694 7.8295413 2.9814538 7.8476562 2.9804688 L 7.8476562 2.96875 L 7.8496094 2.96875 L 7.8496094 2.9804688 C 9.191564 2.908186 10.446202 3.5393875 11.226562 4.5625 C 12.424594 5.0131918 13.521606 5.7231539 14.634766 6.6992188 L 16 5 C 13.8336 3.0522666 11.044267 2 8 2 z M 7.8535156 3.1503906 L 7.8769531 4 C 7.8796069 3.9999692 7.8821106 4.0000288 7.8847656 4 L 7.8535156 3.1503906 z "
     id="path2-3" />
  <path
     style="color:#000000;overflow:visible;fill:#bebebe;fill-opacity:1;marker:none;opacity:0.35"
     d="M 6.8027344 11.371094 C 6.3351246 11.622789 5.9289335 11.94135 5.7304688 12.160156 L 6.0664062 12.580078 C 6.1528016 12.141574 6.389493 11.726243 6.7871094 11.417969 C 6.7998084 11.407739 6.8191102 11.412244 6.8320312 11.402344 C 6.8208946 11.392888 6.8136758 11.380707 6.8027344 11.371094 z M 9.3535156 11.4375 C 9.3102573 11.478134 9.2687092 11.52026 9.2207031 11.556641 C 9.5619853 11.83634 9.8128495 12.186058 9.9316406 12.582031 L 10.269531 12.160156 C 10.092725 11.954865 9.7544795 11.672685 9.3535156 11.4375 z M 7.1269531 11.740234 L 7.1914062 11.773438 C 7.1808703 11.768538 7.1803239 11.755 7.1699219 11.75 C 7.1558579 11.7426 7.1409631 11.748034 7.1269531 11.740234 z M 7.9628906 14.955078 L 8 15 L 8.0351562 14.955078 C 8.0110595 14.954869 7.9870341 14.956191 7.9628906 14.955078 z "
     id="path2-36" />
  <path
     id="path2"
     style="color:#000000;overflow:visible;opacity:0.35;fill:#bebebe;fill-opacity:1;marker:none"
     overflow="visible"
     d="m -16.70339,3.5084746 c -2.853,0 -5.468,1.111 -7.5,2.938 l 1.281,1.437 c 0.953,-0.835 1.922,-1.45 3,-1.844 0.406,-0.529 0.96,-0.957 1.594,-1.219 v -0.03 c 0.01,-0.005 0.022,0.003 0.031,0 a 4.157,4.157 0 0 1 1.375,-0.313 c 1.359,-0.1 2.614,0.536 3.407,1.562 1.062,0.391 2.036,1.002 3.03,1.875 l 1.2820002,-1.469 c -2.0310002,-1.826 -4.6460002,-2.937 -7.5000002,-2.937 z m -3.969,5.188 c -0.32,0.203 -0.612,0.445 -0.906,0.687 l 1.344,1.4060004 a 7.643,7.643 0 0 1 2.156,-1.0620004 c 0.06,-0.086 0.122,-0.174 0.188,-0.25 h -2.688 l -0.093,-0.781 z m 7.97,0.03 c -0.035,0.68 -0.208,1.3720004 -0.657,1.9700004 0.06,0.04 0.132,0.083 0.187,0.124 l 1.375,-1.4680004 c -0.282,-0.233 -0.596,-0.43 -0.906,-0.625 z m -5.782,3.3760004 c -0.13,0.092 -0.262,0.19 -0.344,0.281 l 0.688,0.75 c 0.06,-0.062 0.117,-0.131 0.187,-0.188 0.004,-0.003 0.028,0.003 0.031,0 0.008,-0.007 -0.009,-0.024 0,-0.03 0.008,-0.007 0.024,0.005 0.032,0 a 2.16,2.16 0 0 1 -0.594,-0.813 z m 3.625,0.03 c -0.125,0.377 -0.32,0.707 -0.625,0.938 0.046,0.038 0.082,0.086 0.125,0.125 l 0.781,-0.812 c -0.07,-0.08 -0.177,-0.17 -0.281,-0.25 z" />
  <path
     id="path4"
     style="color:#bebebe;overflow:visible;fill:#bebebe;fill-opacity:1;marker:none"
     overflow="visible"
     d="m 7.848,3.9690414 c 1.458,-0.108 2.892,0.99 3.142,2.435 0.131,0.846 -0.014,1.804 -0.64,2.435 -0.382,0.431 -0.923,0.753 -1.314,1.13 0.02,0.6889996 -0.807,1.2389996 -1.424,0.8969996 -0.465,-0.216 -0.683,-0.779 -0.537,-1.2609996 0.157,-0.784 0.801,-1.312 1.396,-1.78 0.262,-0.248 0.61,-0.514 0.565,-0.919 -0.009,-0.602 -0.64,-1.06 -1.217,-0.919 -0.463,0.067 -0.83,0.512 -0.783,0.982 h -2 c -0.095,-1.17 0.65,-2.32 1.733,-2.752 0.342,-0.145 0.71,-0.228 1.08,-0.248 z m 0.188,7.9999996 c 0.649,-0.025 1.171,0.685 0.955,1.297 -0.17,0.623 -0.993,0.913 -1.514,0.532 -0.547,-0.34 -0.59,-1.21 -0.077,-1.6 a 0.998,0.998 0 0 1 0.636,-0.23 z" />
</svg>
