<?xml version="1.0" encoding="UTF-8" standalone="no"?>
<svg
   xmlns:dc="http://purl.org/dc/elements/1.1/"
   xmlns:cc="http://creativecommons.org/ns#"
   xmlns:rdf="http://www.w3.org/1999/02/22-rdf-syntax-ns#"
   xmlns:svg="http://www.w3.org/2000/svg"
   xmlns="http://www.w3.org/2000/svg"
   height="16"
   width="16"
   version="1.1"
   id="svg10">
  <metadata
     id="metadata16">
    <rdf:RDF>
      <cc:Work
         rdf:about="">
        <dc:format>image/svg+xml</dc:format>
        <dc:type
           rdf:resource="http://purl.org/dc/dcmitype/StillImage" />
      </cc:Work>
    </rdf:RDF>
  </metadata>
  <defs
     id="defs14" />
  <g
     id="g900">
    <path
       id="path850-3"
       d="M 8 8 A 4.2894239 3.4400756 0 0 0 4.0625 10.078125 L 5.1542969 11.443359 A 3.9905903 4.7362423 0 0 1 8 10.019531 A 3.9905903 4.7362423 0 0 1 10.033203 10.693359 C 10.111935 10.001857 10.411843 9.3707028 10.878906 8.8964844 A 4.2894239 3.4400756 0 0 0 8 8 z "
       style="opacity:1;fill:#bebebe;fill-opacity:1;stroke:none;stroke-width:1px;stroke-linecap:butt;stroke-linejoin:miter;stroke-opacity:1" />
    <path
       id="path850-5"
       d="M 8 5.0039062 C 5.6078744 5.0066062 3.4192521 5.9995938 2.046875 7.5585938 L 3.3769531 9.2304688 C 4.3569422 7.6974506 6.215906 7.0079013 8 7.0058594 C 9.3562867 7.0065693 10.748613 7.410842 11.771484 8.2753906 C 12.147135 8.1023829 12.5615 8 13 8 C 13.18969 8 13.374449 8.0199296 13.552734 8.0566406 L 13.949219 7.5585938 C 12.778397 5.839516 10.391832 5.0052295 8 5.0039062 z "
       style="opacity:0.35;fill:#bebebe;fill-opacity:1;stroke:none;stroke-width:1px;stroke-linecap:butt;stroke-linejoin:miter;stroke-opacity:1" />
    <path
       d="M 8,2 C 4.9568,2 2.167467,3.0512 0,5 L 1.367467,6.6666666 C 3.2992,4.9728 5.3463714,3.9936561 7.9981044,3.9936561 c 2.6527996,0 4.6098956,0.9290105 6.6365626,2.7060772 L 16,5 C 13.8336,3.0522666 11.044267,2 8,2 Z"
       overflow="visible"
       style="color:#000000;overflow:visible;opacity:0.35;fill:#bebebe;fill-opacity:1;stroke-width:1.06666672;marker:none"
       id="path2-3" />
    <path
       id="path2-36"
       d="M 8.0058594 11 C 7.1228594 11 6.0914688 11.762156 5.7304688 12.160156 L 8 15 L 9 13.748047 L 9 12.5 L 9 11.621094 L 9 11.275391 C 8.6749941 11.122506 8.335675 11 8.0058594 11 z "
       style="color:#000000;overflow:visible;fill:#bebebe;fill-opacity:1;marker:none" />
  </g>
  <path
     style="fill:#bebebe;fill-opacity:1"
     id="path2-367"
     d="m 13,9 c -1.108,0 -2,0.91 -2,2.031 V 12 h -0.5 c 0,0 -0.5,0 -0.5,0.5 v 3 c 0,0.5 0.5,0.5 0.5,0.5 h 5 c 0,0 0.5,0 0.5,-0.5 v -3 C 16,12 15.5,12 15.5,12 H 15 V 11.031 C 15,9.911 14.108,9 13,9 Z m 0,1 c 0.554,0 1,0.442 1,1 v 1 h -2 v -1 c 0,-0.558 0.446,-1 1,-1 z" />
</svg>
