<?xml version="1.0" encoding="UTF-8" standalone="no"?>
<svg
   xmlns:dc="http://purl.org/dc/elements/1.1/"
   xmlns:cc="http://creativecommons.org/ns#"
   xmlns:rdf="http://www.w3.org/1999/02/22-rdf-syntax-ns#"
   xmlns:svg="http://www.w3.org/2000/svg"
   xmlns="http://www.w3.org/2000/svg"
   height="16"
   width="16"
   version="1.1"
   id="svg8">
  <metadata
     id="metadata14">
    <rdf:RDF>
      <cc:Work
         rdf:about="">
        <dc:format>image/svg+xml</dc:format>
        <dc:type
           rdf:resource="http://purl.org/dc/dcmitype/StillImage" />
      </cc:Work>
    </rdf:RDF>
  </metadata>
  <defs
     id="defs12" />
  <g
     id="g840">
    <path
       id="path850-3"
       d="m 8,8 a 4.2894239,3.4400756 0 0 0 -3.9375,2.078125 l 1.0917969,1.365234 A 3.9905903,4.7362423 0 0 1 8,10.019531 a 3.9905903,4.7362423 0 0 1 2.847656,1.419922 l 1.087891,-1.359375 A 4.2894239,3.4400756 0 0 0 8,8 Z"
       style="opacity:1;fill:#bebebe;fill-opacity:1;stroke:none;stroke-width:1px;stroke-linecap:butt;stroke-linejoin:miter;stroke-opacity:1" />
    <path
       id="path850-5"
       d="M 8,5.0039062 C 5.6078744,5.0066039 3.4192521,6 2.046875,7.559 L 3.3769531,9.23 C 4.3569422,7.696982 6.215906,7.0079013 8,7.0058594 9.7844239,7.0067935 11.639191,7.6971318 12.62,9.23 L 13.95,7.559 C 12.779178,5.8399222 10.391832,5.0052295 8,5.0039062 Z"
       style="opacity:1;fill:#bebebe;fill-opacity:1;stroke:none;stroke-width:1px;stroke-linecap:butt;stroke-linejoin:miter;stroke-opacity:1" />
    <path
       d="M 8,2 C 4.9568,2 2.167467,3.0512 0,5 L 1.367467,6.6666666 C 3.2992,4.9728 5.3463714,3.9936561 7.9981044,3.9936561 c 2.6527996,0 4.6098956,0.9290105 6.6365626,2.7060772 L 16,5 C 13.8336,3.0522666 11.044267,2 8,2 Z"
       overflow="visible"
       style="color:#000000;overflow:visible;opacity:0.35;fill:#bebebe;fill-opacity:1;stroke-width:1.06666672;marker:none"
       id="path2-3" />
    <path
       d="m 8.0052305,11.000515 c -0.883,0 -1.9142305,0.761836 -2.2752305,1.159836 L 8,15 10.27,12.16 C 9.9100005,11.742 8.8902305,11.000515 8.0052305,11.000515 Z"
       overflow="visible"
       style="color:#000000;overflow:visible;fill:#bebebe;fill-opacity:1;marker:none"
       id="path2-36" />
  </g>
</svg>
