<?xml version="1.0" encoding="UTF-8" standalone="no"?>
<svg
   xmlns:dc="http://purl.org/dc/elements/1.1/"
   xmlns:cc="http://creativecommons.org/ns#"
   xmlns:rdf="http://www.w3.org/1999/02/22-rdf-syntax-ns#"
   xmlns:svg="http://www.w3.org/2000/svg"
   xmlns="http://www.w3.org/2000/svg"
   xmlns:sodipodi="http://sodipodi.sourceforge.net/DTD/sodipodi-0.dtd"
   xmlns:inkscape="http://www.inkscape.org/namespaces/inkscape"
   width="22"
   height="22"
   viewBox="0 0 22 22"
   version="1.1"
   id="svg7"
   sodipodi:docname="application-exit.svg"
   inkscape:version="0.92.3 (2405546, 2018-03-11)">
  <metadata
     id="metadata11">
    <rdf:RDF>
      <cc:Work
         rdf:about="">
        <dc:format>image/svg+xml</dc:format>
        <dc:type
           rdf:resource="http://purl.org/dc/dcmitype/StillImage" />
      </cc:Work>
    </rdf:RDF>
  </metadata>
  <sodipodi:namedview
     pagecolor="#ffffff"
     bordercolor="#666666"
     borderopacity="1"
     objecttolerance="10"
     gridtolerance="10"
     guidetolerance="10"
     inkscape:pageopacity="0"
     inkscape:pageshadow="2"
     inkscape:window-width="1920"
     inkscape:window-height="996"
     id="namedview9"
     showgrid="false"
     inkscape:zoom="10.727273"
     inkscape:cx="1.2386164"
     inkscape:cy="11.052196"
     inkscape:window-x="0"
     inkscape:window-y="0"
     inkscape:window-maximized="1"
     inkscape:current-layer="svg7">
    <inkscape:grid
       type="xygrid"
       id="grid824" />
  </sodipodi:namedview>
  <defs
     id="defs3">
    <style
       id="current-color-scheme"
       type="text/css">
   .ColorScheme-Text { color:#DADADA; } .ColorScheme-Highlight { color:#5294e2; }
  </style>
  </defs>
  <path
     style="color:#000000;font-variant-ligatures:normal;font-variant-position:normal;font-variant-caps:normal;font-variant-numeric:normal;font-variant-alternates:normal;font-feature-settings:normal;text-indent:0;text-decoration:none;text-decoration-line:none;text-decoration-style:solid;text-decoration-color:#000000;text-transform:none;text-orientation:mixed;dominant-baseline:auto;white-space:normal;shape-padding:0;isolation:auto;mix-blend-mode:normal;solid-color:#000000;fill:#DADADA;fill-opacity:1;fill-rule:evenodd;stroke-width:1.00000024;color-rendering:auto;image-rendering:auto;shape-rendering:auto"
     d="m 4.5072906,3.000928 c -0.7160599,-0.007 -1.3792499,0.529797 -1.4688299,1.249928 -0.0636,0.894004 -0.0149,1.82115 -0.0312,2.718593 0.005,2.887552 -0.0186,5.764732 0,8.651844 0.057,0.723349 0.67166,1.343995 1.4063199,1.374921 0.22643,5.17e-4 0.38919,-3.93e-4 0.60551,0 l -0.0195,0.0039 5.00027,1.999884 v -2.00379 c 0.8354504,-7.6e-4 1.6288104,6.35e-4 2.6016904,0 0.82222,-0.005 1.43572,-0.767392 1.40633,-1.56241 -5.9e-4,-0.478296 -1.1e-4,-0.956307 0,-1.435464 v -0.997989 -0.002 c 0.0191,-1.351723 -2.01921,-1.351723 -2.00011,0 v 0.002 0.937445 0.560515 c 0.003,0.49477 -0.53633,0.530063 -0.9063,0.498018 -0.43224,-0.0014 -0.73027,-7.98e-4 -1.1016104,0 V 7.000691 l -4.76783,-1.90614 c 0.0812,-0.05594 0.17364,-0.09619 0.2754,-0.09374 h 4.49243 c 0.5194904,3.8e-4 0.9797804,-0.0062 1.6016404,0 0.49723,0.105793 0.3976,0.685155 0.40627,1.062438 v 0.939399 c -0.0191,1.351722 2.01924,1.351722 2.00011,0 V 6.002706 c 9.3e-4,-0.542339 0.003,-1.085593 0,-1.626859 -0.0578,-0.759424 -0.72577,-1.403628 -1.50008,-1.374921 z M 15.000031,7.000697 v 0.999942 c 4e-5,0.265195 0.10542,0.519501 0.29298,0.706991 l 0.29299,0.292952 h -3.58613 c 6e-5,0.999982 0,0.999982 0,1.999884 h 3.58613 l -0.28323,0.283187 c -0.003,0.003 -0.007,0.0058 -0.01,0.0098 -0.18684,0.186799 -0.29294,0.441806 -0.29298,0.70699 v 0.999943 h 1.00005 c 0.26521,-4e-5 0.51956,-0.105413 0.70707,-0.292952 l 2.29309,-2.706875 -2.28332,-2.69711 C 16.528401,7.10993 16.269861,7.000732 15.999841,7.000732 Z m -8.0004204,3.999769 h 2.0001 v 0.999942 h -2.0001 z"
     id="path9737"
     inkscape:connector-curvature="0" />
</svg>
