<?xml version="1.0" encoding="UTF-8" standalone="no"?>
<svg
   xmlns:dc="http://purl.org/dc/elements/1.1/"
   xmlns:cc="http://creativecommons.org/ns#"
   xmlns:rdf="http://www.w3.org/1999/02/22-rdf-syntax-ns#"
   xmlns:svg="http://www.w3.org/2000/svg"
   xmlns="http://www.w3.org/2000/svg"
   xmlns:sodipodi="http://sodipodi.sourceforge.net/DTD/sodipodi-0.dtd"
   xmlns:inkscape="http://www.inkscape.org/namespaces/inkscape"
   width="22"
   height="22"
   viewBox="0 0 22 22"
   version="1.1"
   id="svg7"
   sodipodi:docname="viewlog.svg"
   inkscape:version="0.92.3 (2405546, 2018-03-11)">
  <metadata
     id="metadata11">
    <rdf:RDF>
      <cc:Work
         rdf:about="">
        <dc:format>image/svg+xml</dc:format>
        <dc:type
           rdf:resource="http://purl.org/dc/dcmitype/StillImage" />
      </cc:Work>
    </rdf:RDF>
  </metadata>
  <sodipodi:namedview
     pagecolor="#ffffff"
     bordercolor="#666666"
     borderopacity="1"
     objecttolerance="10"
     gridtolerance="10"
     guidetolerance="10"
     inkscape:pageopacity="0"
     inkscape:pageshadow="2"
     inkscape:window-width="1920"
     inkscape:window-height="1012"
     id="namedview9"
     showgrid="false"
     inkscape:zoom="32"
     inkscape:cx="3.3014867"
     inkscape:cy="12.577381"
     inkscape:window-x="0"
     inkscape:window-y="0"
     inkscape:window-maximized="1"
     inkscape:current-layer="svg7">
    <inkscape:grid
       type="xygrid"
       id="grid824" />
  </sodipodi:namedview>
  <defs
     id="defs3">
    <style
       id="current-color-scheme"
       type="text/css">
   .ColorScheme-Text { color:#DADADA; } .ColorScheme-Highlight { color:#5294e2; }
  </style>
  </defs>
  <g
     id="g834">
    <path
       id="path5-3-6"
       d="m 10,7.5 c -1.1045,0 -2,0.89549 -2,2 v 1 C 8,10.77616 7.77614,11 7.5,11 H 7 v 1 H 7.5 C 7.77614,12 8,12.22385 8,12.5 v 1 c 0,1.1045 0.89549,2 2,2 v -1 c -0.55229,0 -1,-0.44778 -1,-1 v -1 C 9,12.1175 8.86072,11.76497 8.625,11.5 8.86072,11.23504 9,10.88251 9,10.5 v -1 c 0,-0.55229 0.44778,-1 1,-1 z m 2,0 v 1 c 0.55222,0 1,0.44771 1,1 v 1 c 0,0.38251 0.13928,0.73504 0.375,1 C 13.13928,11.76497 13,12.1175 13,12.5 v 1 c 0,0.55222 -0.44771,1 -1,1 v 1 c 1.10451,0 2,-0.8955 2,-2 v -1 C 14,12.22385 14.22386,12 14.5,12 H 15 V 11 H 14.5 C 14.22386,11 14,10.77616 14,10.5 v -1 c 0,-1.10451 -0.8955,-2 -2,-2 z"
       style="color:#DADADA;fill:currentColor"
       inkscape:connector-curvature="0" />
    <path
       sodipodi:nodetypes="scccscccccccccscccc"
       id="path5"
       d="M 6.0061177,4 C 3.7574177,4 4.0080709,6 4.0080709,6 V 18 H 18.000258 V 6 c 0,-2 -2,-2 -2,-2 h -1.998047 v 3 h 1.998047 v 9 H 6.0061177 V 7 h 2 V 4 Z m 2.9980469,0 2.0000004,3 1.998046,-3 z"
       class="ColorScheme-Text"
       style="color:#DADADA;fill:currentColor"
       inkscape:connector-curvature="0" />
  </g>
</svg>
