<?xml version="1.0" encoding="UTF-8" standalone="no"?>
<svg
   xmlns:dc="http://purl.org/dc/elements/1.1/"
   xmlns:cc="http://creativecommons.org/ns#"
   xmlns:rdf="http://www.w3.org/1999/02/22-rdf-syntax-ns#"
   xmlns:svg="http://www.w3.org/2000/svg"
   xmlns="http://www.w3.org/2000/svg"
   xmlns:sodipodi="http://sodipodi.sourceforge.net/DTD/sodipodi-0.dtd"
   xmlns:inkscape="http://www.inkscape.org/namespaces/inkscape"
   width="22"
   height="22"
   viewBox="0 0 22 22"
   version="1.1"
   id="svg7"
   sodipodi:docname="zoom-original.svg"
   inkscape:version="0.92.3 (2405546, 2018-03-11)">
  <sodipodi:namedview
     pagecolor="#ffffff"
     bordercolor="#666666"
     borderopacity="1"
     objecttolerance="10"
     gridtolerance="10"
     guidetolerance="10"
     inkscape:pageopacity="0"
     inkscape:pageshadow="2"
     inkscape:window-width="959"
     inkscape:window-height="1024"
     id="namedview7"
     showgrid="false"
     inkscape:zoom="10.727273"
     inkscape:cx="11"
     inkscape:cy="11"
     inkscape:window-x="0"
     inkscape:window-y="0"
     inkscape:window-maximized="0"
     inkscape:current-layer="svg7" />
  <metadata
     id="metadata11">
    <rdf:RDF>
      <cc:Work
         rdf:about="">
        <dc:format>image/svg+xml</dc:format>
        <dc:type
           rdf:resource="http://purl.org/dc/dcmitype/StillImage" />
      </cc:Work>
    </rdf:RDF>
  </metadata>
  <defs
     id="defs3">
    <style
       id="current-color-scheme"
       type="text/css">
   .ColorScheme-Text { color:#DADADA; } .ColorScheme-Highlight { color:#5294e2; }
  </style>
  </defs>
  <path
     inkscape:connector-curvature="0"
     style="fill:#DADADA;fill-opacity:1"
     d="m 5.9999998,4.9999998 c -0.5500001,0 -1,0.446 -1,1 V 16 c 0,0.554 0.4499999,1 1,1 H 16 c 0.55,0 1,-0.446 1,-1 V 5.9999998 c 0,-0.554 -0.45,-1 -1,-1 z m 1.5019534,1.9960938 c 2.3668401,0.007 4.4973278,0 7.0937498,0 C 15.092951,7.1019336 14.991,7.6713779 15,8.0488279 v 6.4375001 c 0.003,0.494997 -0.534347,0.518866 -0.904297,0.509766 -2.096422,0.0091 -5.0964218,0 -6.6874998,0 -0.4972499,-0.10585 -0.39725,-0.694826 -0.40625,-1.072266 V 7.4863279 c -0.006,-0.26876 0.23115,-0.4962343 0.5,-0.4902343 z M 10,7.9999998 c 0,1 -0.9999998,1 -0.9999998,1 v 1 H 10 V 14 h 2 V 7.9999998 Z"
     id="path4" />
</svg>
