<?xml version="1.0" encoding="UTF-8" standalone="no"?>
<svg
   xmlns:dc="http://purl.org/dc/elements/1.1/"
   xmlns:cc="http://creativecommons.org/ns#"
   xmlns:rdf="http://www.w3.org/1999/02/22-rdf-syntax-ns#"
   xmlns:svg="http://www.w3.org/2000/svg"
   xmlns="http://www.w3.org/2000/svg"
   xmlns:sodipodi="http://sodipodi.sourceforge.net/DTD/sodipodi-0.dtd"
   xmlns:inkscape="http://www.inkscape.org/namespaces/inkscape"
   width="16"
   height="16"
   version="1.1"
   id="svg4"
   sodipodi:docname="package-x-generic-symbolic.svg"
   inkscape:version="0.92.3 (2405546, 2018-03-11)">
  <metadata
     id="metadata10">
    <rdf:RDF>
      <cc:Work
         rdf:about="">
        <dc:format>image/svg+xml</dc:format>
        <dc:type
           rdf:resource="http://purl.org/dc/dcmitype/StillImage" />
      </cc:Work>
    </rdf:RDF>
  </metadata>
  <defs
     id="defs8" />
  <sodipodi:namedview
     pagecolor="#ffffff"
     bordercolor="#666666"
     borderopacity="1"
     objecttolerance="10"
     gridtolerance="10"
     guidetolerance="10"
     inkscape:pageopacity="0"
     inkscape:pageshadow="2"
     inkscape:window-width="1280"
     inkscape:window-height="747"
     id="namedview6"
     showgrid="true"
     inkscape:measure-start="0,0"
     inkscape:measure-end="0,0"
     inkscape:zoom="20.85965"
     inkscape:cx="3.773419"
     inkscape:cy="7.3123352"
     inkscape:window-x="0"
     inkscape:window-y="0"
     inkscape:window-maximized="1"
     inkscape:current-layer="svg4">
    <inkscape:grid
       type="xygrid"
       id="grid817" />
  </sodipodi:namedview>
  <path
     style="fill:#bebebe;fill-opacity:1"
     d="M 8 0 L 1 3.5 L 1 4.75 L 1 6 L 1 12.5 L 8 16 L 15 12.5 L 15 6 L 15 4.75 L 15 3.5 L 8 0 z M 8 2.25 L 13 4.75 L 11.535156 5.4082031 L 6.6191406 2.9394531 L 8 2.25 z M 4.7734375 3.8632812 L 9.6796875 6.2441406 L 8 7 L 3 4.75 L 4.7734375 3.8632812 z M 3 6.9277344 L 7 8.7851562 L 7 13.300781 L 3 11.5 L 3 6.9277344 z M 13 6.9277344 L 13 11.25 L 9 13.25 L 9 8.7851562 L 13 6.9277344 z "
     id="path2" />
</svg>
