<?xml version="1.0" encoding="UTF-8" standalone="no"?>
<svg
   xmlns:dc="http://purl.org/dc/elements/1.1/"
   xmlns:cc="http://creativecommons.org/ns#"
   xmlns:rdf="http://www.w3.org/1999/02/22-rdf-syntax-ns#"
   xmlns:svg="http://www.w3.org/2000/svg"
   xmlns="http://www.w3.org/2000/svg"
   xmlns:sodipodi="http://sodipodi.sourceforge.net/DTD/sodipodi-0.dtd"
   xmlns:inkscape="http://www.inkscape.org/namespaces/inkscape"
   height="16"
   width="16"
   version="1.1"
   id="svg6"
   sodipodi:docname="x-office-address-book-symbolic.svg"
   inkscape:version="0.92.5 (2060ec1f9f, 2020-04-08)">
  <sodipodi:namedview
     pagecolor="#ffffff"
     bordercolor="#666666"
     borderopacity="1"
     objecttolerance="10"
     gridtolerance="10"
     guidetolerance="10"
     inkscape:pageopacity="0"
     inkscape:pageshadow="2"
     inkscape:window-width="959"
     inkscape:window-height="1015"
     id="namedview6"
     showgrid="true"
     inkscape:zoom="20.85965"
     inkscape:cx="7.4499544"
     inkscape:cy="10.749149"
     inkscape:window-x="0"
     inkscape:window-y="0"
     inkscape:window-maximized="0"
     inkscape:current-layer="svg6">
    <inkscape:grid
       type="xygrid"
       id="grid824" />
  </sodipodi:namedview>
  <metadata
     id="metadata12">
    <rdf:RDF>
      <cc:Work
         rdf:about="">
        <dc:format>image/svg+xml</dc:format>
        <dc:type
           rdf:resource="http://purl.org/dc/dcmitype/StillImage" />
      </cc:Work>
    </rdf:RDF>
  </metadata>
  <defs
     id="defs10" />
  <path
     sodipodi:nodetypes="scssccssscccsscccsss"
     d="m 8.1470549,3.2224675 c -1.393611,0.034033 -2.505518,1.1737654 -2.505101,2.5677922 0,1.4181525 1.149639,2.5677922 2.567791,2.5677922 1.4181521,0 2.5677921,-1.1496397 2.5677921,-2.5677922 0,-1.4181525 -1.14964,-2.5677922 -2.5677921,-2.5677922 -0.0209,-2.552e-4 -0.04179,-2.552e-4 -0.0627,0 z M 6.6048749,9 c -0.782225,0 -1.427774,0.4596479 -1.57227,1.198318 -0.01974,0.100921 -0.0326,0.20407 -0.0326,0.310942 0,0.0026 -1.1e-5,0.005 0,0.0076 -5e-6,0.0017 0,0.0033 0,0.005 8.25e-4,0.106667 0.01207,0.210297 0.0326,0.310945 0.144498,0.738625 0.790047,1.174683 1.572272,1.174683 H 9.814618 c 0.889098,0 1.60487,-0.596571 1.60487,-1.485671 2e-5,-0.0026 -8e-6,-0.005 0,-0.0076 -5.02e-4,-0.108464 -0.01181,-0.213707 -0.0326,-0.315959 C 11.24239,9.4596508 10.596841,9.0000029 9.814616,9.0000029 Z"
     style="color:#000000;isolation:auto;mix-blend-mode:normal;fill:#bebebe;fill-opacity:1;stroke-width:1.28389609;marker:none"
     id="path2-3-6"
     inkscape:connector-curvature="0" />
  <path
     sodipodi:nodetypes="ssssssssscsssscc"
     d="M 2,0 C 1.446,0 1,0.446 1,1 v 14 c 0,0.554 0.446,1 1,1 h 12 c 0.554,0 1,-0.446 1,-1 V 1 C 15,0.446 14.554,0 14,0 Z m 2,2 h 8.5 C 12.777,2 13,2.223 13,2.5 v 11 C 13,13.777 12.777,14 12.5,14 H 4 Z"
     style="color:#000000;isolation:auto;mix-blend-mode:normal;fill:#bebebe;marker:none;fill-opacity:1"
     id="path2-3"
     inkscape:connector-curvature="0" />
</svg>
