<?xml version="1.0" encoding="UTF-8" standalone="no"?>
<svg
   xmlns:dc="http://purl.org/dc/elements/1.1/"
   xmlns:cc="http://creativecommons.org/ns#"
   xmlns:rdf="http://www.w3.org/1999/02/22-rdf-syntax-ns#"
   xmlns:svg="http://www.w3.org/2000/svg"
   xmlns="http://www.w3.org/2000/svg"
   xmlns:sodipodi="http://sodipodi.sourceforge.net/DTD/sodipodi-0.dtd"
   xmlns:inkscape="http://www.inkscape.org/namespaces/inkscape"
   height="128"
   viewBox="0 0 33.865 33.865"
   width="128"
   version="1.1"
   id="svg142"
   sodipodi:docname="mintsources.svg"
   inkscape:version="0.92.5 (2060ec1f9f, 2020-04-08)">
  <metadata
     id="metadata148">
    <rdf:RDF>
      <cc:Work
         rdf:about="">
        <dc:format>image/svg+xml</dc:format>
        <dc:type
           rdf:resource="http://purl.org/dc/dcmitype/StillImage" />
        <dc:title />
      </cc:Work>
    </rdf:RDF>
  </metadata>
  <defs
     id="defs146" />
  <sodipodi:namedview
     pagecolor="#ffffff"
     bordercolor="#666666"
     borderopacity="1"
     objecttolerance="10"
     gridtolerance="10"
     guidetolerance="10"
     inkscape:pageopacity="0"
     inkscape:pageshadow="2"
     inkscape:window-width="1920"
     inkscape:window-height="1013"
     id="namedview144"
     showgrid="false"
     inkscape:zoom="0.921875"
     inkscape:cx="-123.11864"
     inkscape:cy="128"
     inkscape:window-x="0"
     inkscape:window-y="0"
     inkscape:window-maximized="1"
     inkscape:current-layer="svg142" />
  <g
     id="g140"
     style="stroke-width:1.03938305"
     transform="matrix(0.54545454,0,0,0.54025985,-1.250696,-1.4980932)">
    <path
       d="m 33.335855,5.2914128 c -16.12291,0 -29.10273,12.9798172 -29.10273,29.1027342 0,16.12291 12.97982,29.102728 29.10273,29.102728 16.122913,0 29.102726,-12.979818 29.102726,-29.102728 0,-16.122917 -12.979813,-29.1027342 -29.102726,-29.1027342 z m 0,16.6301332 A 12.472599,12.472599 0 0 1 45.808452,34.394147 12.472599,12.472599 0 0 1 33.335855,46.866746 12.472599,12.472599 0 0 1 20.863258,34.394147 12.472599,12.472599 0 0 1 33.335855,21.921546 Z"
       id="path132"
       inkscape:connector-curvature="0"
       style="opacity:0.2" />
    <path
       d="M 33.335868,18.243732 A 15.590748,15.590747 0 0 0 17.745118,33.834478 15.590748,15.590747 0 0 0 33.335868,49.425227 15.590748,15.590747 0 0 0 48.926615,33.834478 15.590748,15.590747 0 0 0 33.335868,18.243732 Z m 0,9.354447 c 3.444309,0 6.236296,2.791992 6.236296,6.236299 0,3.444308 -2.791987,6.2363 -6.236296,6.2363 -3.444309,0 -6.236301,-2.791992 -6.236301,-6.2363 0,-3.444307 2.791992,-6.236299 6.236301,-6.236299 z"
       id="path134"
       inkscape:connector-curvature="0"
       style="fill:#848484" />
    <path
       d="m 33.335868,4.7317498 c -16.122911,0 -29.10273,12.9798172 -29.10273,29.1027282 0,16.122912 12.979819,29.102728 29.10273,29.102728 16.12291,0 29.102726,-12.979816 29.102726,-29.102728 0,-16.122911 -12.979816,-29.1027282 -29.102726,-29.1027282 z m 0,16.6301312 A 12.472599,12.472598 0 0 1 45.808465,33.834478 12.472599,12.472598 0 0 1 33.335868,46.307077 12.472599,12.472598 0 0 1 20.863269,33.834478 12.472599,12.472598 0 0 1 33.335868,21.361881 Z"
       id="path136"
       inkscape:connector-curvature="0"
       style="fill:#e4e4e4" />
    <path
       d="m 33.335868,4.7317498 c -16.122911,0 -29.10273,12.9798172 -29.10273,29.1027282 0,0.118038 0.01185,0.232855 0.01819,0.349169 C 4.616716,18.383197 17.444374,5.7711333 33.33579,5.7711333 c 15.890059,0 28.719008,12.6098897 29.086486,28.4084527 0.0066,-0.11495 0.01629,-0.22847 0.01629,-0.345108 C 62.438507,17.711567 49.458694,4.7317498 33.335781,4.7317498 Z M 20.91605,34.869802 a 12.472599,12.472598 0 0 0 -0.0528,1.043443 12.472599,12.472598 0 0 0 0.0264,0.519692 12.472599,12.472598 0 0 1 0.0264,-0.523752 12.472599,12.472598 0 0 0 12.41982,11.437275 12.472599,12.472598 0 0 0 12.419816,-11.429156 12.472599,12.472598 0 0 1 0.03046,0.615105 12.472599,12.472598 0 0 0 0.02232,-0.619164 12.472599,12.472598 0 0 0 -0.05278,-1.035322 A 12.472599,12.472598 0 0 1 33.335864,46.307077 12.472599,12.472598 0 0 1 20.916043,34.869802 Z"
       id="path138"
       inkscape:connector-curvature="0"
       style="opacity:0.2;fill:#ffffff" />
  </g>
</svg>
