<?xml version="1.0" encoding="UTF-8" standalone="no"?>
<svg
   xmlns:dc="http://purl.org/dc/elements/1.1/"
   xmlns:cc="http://creativecommons.org/ns#"
   xmlns:rdf="http://www.w3.org/1999/02/22-rdf-syntax-ns#"
   xmlns:svg="http://www.w3.org/2000/svg"
   xmlns="http://www.w3.org/2000/svg"
   xmlns:sodipodi="http://sodipodi.sourceforge.net/DTD/sodipodi-0.dtd"
   xmlns:inkscape="http://www.inkscape.org/namespaces/inkscape"
   width="16"
   height="16"
   viewBox="0 0 16 16"
   version="1.1"
   id="svg7"
   sodipodi:docname="document-new.svg"
   inkscape:version="0.92.3 (2405546, 2018-03-11)">
  <metadata
     id="metadata11">
    <rdf:RDF>
      <cc:Work
         rdf:about="">
        <dc:format>image/svg+xml</dc:format>
        <dc:type
           rdf:resource="http://purl.org/dc/dcmitype/StillImage" />
      </cc:Work>
    </rdf:RDF>
  </metadata>
  <sodipodi:namedview
     pagecolor="#ffffff"
     bordercolor="#666666"
     borderopacity="1"
     objecttolerance="10"
     gridtolerance="10"
     guidetolerance="10"
     inkscape:pageopacity="0"
     inkscape:pageshadow="2"
     inkscape:window-width="1920"
     inkscape:window-height="1025"
     id="namedview9"
     showgrid="false"
     inkscape:zoom="14.75"
     inkscape:cx="8"
     inkscape:cy="8"
     inkscape:window-x="0"
     inkscape:window-y="0"
     inkscape:window-maximized="1"
     inkscape:current-layer="svg7" />
  <defs
     id="defs3">
    <style
       id="current-color-scheme"
       type="text/css">
   .ColorScheme-Text { color:#404040; } .ColorScheme-Highlight { color:#5294e2; }
  </style>
  </defs>
  <path
     inkscape:connector-curvature="0"
     style="display:inline;opacity:1;fill:#404040;fill-opacity:1;stroke:none"
     d="m 3.4999999,0.99866027 c -0.71602,-0.007 -1.37918,0.52954993 -1.46875,1.24999993 -0.0636,0.8944 -0.01495,1.82091 -0.03125,2.71875 0.005,2.8888298 -0.0186,5.7678598 0,8.6562498 0.057,0.72367 0.67162,1.34406 1.40625,1.375 3.0615805,0.007 6.1258512,0.002 9.1875001,0 C 13.415921,14.99366 14.02939,14.23153 14,13.43616 13.995,9.75373 14.0186,6.0556502 14,2.3736602 13.9422,1.6139002 13.274271,0.96994027 12.5,0.99866027 Z m 1,1.99999993 c 2.3668405,0.007 4.7277607,-0.0236 7.0937501,0 0.497201,0.10584 0.397581,0.68505 0.40625,1.0625 V 12.49866 c 0.003,0.49499 -0.536299,0.53206 -0.90625,0.5 -2.2316194,-0.007 -4.4567296,0.0236 -6.6875001,0 -0.4972,-0.10584 -0.39758,-0.68505 -0.40625,-1.0625 V 3.4986602 c -0.006,-0.26876 0.23115,-0.50647 0.5,-0.5 z m 3.4921877,2 c -0.554,0 -1.0000002,0.013937 -1.0000002,0.03125 v 1.96875 h -1.96875 c -0.017313,0 -0.03125,0.4459998 -0.03125,0.9999998 0,0.554 0.013937,1 0.03125,1 h 1.96875 v 1.96875 c 0,0.01731 0.4460002,0.03125 1.0000002,0.03125 0.554,0 1,-0.01394 1,-0.03125 V 8.99866 h 1.9687504 c 0.01731,0 0.03125,-0.446 0.03125,-1 0,-0.554 -0.01394,-0.9999998 -0.03125,-0.9999998 H 8.9921876 v -1.96875 c 0,-0.017313 -0.446,-0.03125 -1,-0.03125 z"
     id="path4102" />
</svg>
