<?xml version="1.0" encoding="UTF-8" standalone="no"?>
<svg
   xmlns:dc="http://purl.org/dc/elements/1.1/"
   xmlns:cc="http://creativecommons.org/ns#"
   xmlns:rdf="http://www.w3.org/1999/02/22-rdf-syntax-ns#"
   xmlns:svg="http://www.w3.org/2000/svg"
   xmlns="http://www.w3.org/2000/svg"
   xmlns:sodipodi="http://sodipodi.sourceforge.net/DTD/sodipodi-0.dtd"
   xmlns:inkscape="http://www.inkscape.org/namespaces/inkscape"
   width="16"
   height="16"
   viewBox="0 0 16 16"
   version="1.1"
   id="svg7"
   sodipodi:docname="document-revert.svg"
   inkscape:version="0.92.3 (2405546, 2018-03-11)">
  <metadata
     id="metadata11">
    <rdf:RDF>
      <cc:Work
         rdf:about="">
        <dc:format>image/svg+xml</dc:format>
        <dc:type
           rdf:resource="http://purl.org/dc/dcmitype/StillImage" />
      </cc:Work>
    </rdf:RDF>
  </metadata>
  <sodipodi:namedview
     pagecolor="#ffffff"
     bordercolor="#666666"
     borderopacity="1"
     objecttolerance="10"
     gridtolerance="10"
     guidetolerance="10"
     inkscape:pageopacity="0"
     inkscape:pageshadow="2"
     inkscape:window-width="959"
     inkscape:window-height="1011"
     id="namedview9"
     showgrid="true"
     inkscape:zoom="14.75"
     inkscape:cx="8"
     inkscape:cy="8"
     inkscape:window-x="0"
     inkscape:window-y="0"
     inkscape:window-maximized="0"
     inkscape:current-layer="svg7">
    <inkscape:grid
       type="xygrid"
       id="grid818" />
  </sodipodi:namedview>
  <defs
     id="defs3">
    <style
       id="current-color-scheme"
       type="text/css">
   .ColorScheme-Text { color:#404040; } .ColorScheme-Highlight { color:#5294e2; }
  </style>
  </defs>
  <path
     inkscape:connector-curvature="0"
     style="display:inline;opacity:1;fill:#404040;fill-opacity:1;stroke:none"
     d="m 3.5029143,0.99866015 c -0.71602,-0.007 -1.37918,0.52955015 -1.46875,1.25000015 -0.0636,0.8944 -0.01495,1.82091 -0.03125,2.71875 0.005,2.88883 -0.0186,5.7678597 0,8.6562497 0.057,0.72367 0.67162,1.34406 1.40625,1.375 3.06158,0.007 6.12585,0.002 9.1874997,0 0.82217,-0.005 1.43564,-0.76713 1.40625,-1.5625 -0.0011,-0.810733 -9.16e-4,-1.623636 0,-2.435547 v -1 c 0,-1.3332999 -0.814254,-2.2753309 -1.552734,-2.6445308 -0.73852,-0.36926 -1.447266,-0.3554688 -1.447266,-0.3554688 H 9.4169768 L 9.7001799,6.7174103 c 0.003,-0.003 0.00677,-0.00577 0.00977,-0.00977 C 9.8967755,6.5208346 10.002874,6.2658134 10.002914,6.0006134 v -1 H 9.0029143 c -0.2652,4e-5 -0.5195312,0.1054188 -0.7070312,0.2929688 L 5.5888518,8.0006131 8.2861174,10.697879 c 0.18827,0.19354 0.4467969,0.302734 0.7167969,0.302734 h 0.9999997 v -1 C 10.002874,9.7354131 9.8974956,9.4810821 9.7099455,9.2935821 L 9.4169768,9.0006131 h 1.5859372 c 0,0 0.291254,0.0138 0.552734,0.144532 0.26149,0.13074 0.447266,0.188798 0.447266,0.8554679 v 1 1.498047 c 0.003,0.49499 -0.5363,0.53206 -0.90625,0.5 -2.2316197,-0.007 -4.4567297,0.0236 -6.6874997,0 -0.4972,-0.10584 -0.39758,-0.68505 -0.40625,-1.0625 V 3.4986603 c -0.006,-0.26876 0.23115,-0.50647 0.5,-0.5 2.36684,0.007 4.72776,-0.0236 7.0937497,0 0.4972,0.10584 0.39758,0.68505 0.40625,1.0625 v 0.9394531 c -0.0191,1.35232 2.01913,1.35232 2,0 v -1 c 9.26e-4,-0.542578 0.0027,-1.0854458 0,-1.6269531 -0.0578,-0.75976 -0.72573,-1.40372015 -1.5,-1.37500015 z"
     id="path4102" />
</svg>
