<?xml version="1.0" encoding="UTF-8" standalone="no"?>
<svg
   xmlns:dc="http://purl.org/dc/elements/1.1/"
   xmlns:cc="http://creativecommons.org/ns#"
   xmlns:rdf="http://www.w3.org/1999/02/22-rdf-syntax-ns#"
   xmlns:svg="http://www.w3.org/2000/svg"
   xmlns="http://www.w3.org/2000/svg"
   xmlns:sodipodi="http://sodipodi.sourceforge.net/DTD/sodipodi-0.dtd"
   xmlns:inkscape="http://www.inkscape.org/namespaces/inkscape"
   width="16"
   height="16"
   viewBox="0 0 16 16"
   version="1.1"
   id="svg7"
   sodipodi:docname="document-open.svg"
   inkscape:version="0.92.3 (2405546, 2018-03-11)">
  <metadata
     id="metadata11">
    <rdf:RDF>
      <cc:Work
         rdf:about="">
        <dc:format>image/svg+xml</dc:format>
        <dc:type
           rdf:resource="http://purl.org/dc/dcmitype/StillImage" />
      </cc:Work>
    </rdf:RDF>
  </metadata>
  <sodipodi:namedview
     pagecolor="#ffffff"
     bordercolor="#666666"
     borderopacity="1"
     objecttolerance="10"
     gridtolerance="10"
     guidetolerance="10"
     inkscape:pageopacity="0"
     inkscape:pageshadow="2"
     inkscape:window-width="1920"
     inkscape:window-height="1025"
     id="namedview9"
     showgrid="false"
     inkscape:zoom="14.75"
     inkscape:cx="8"
     inkscape:cy="8"
     inkscape:window-x="0"
     inkscape:window-y="0"
     inkscape:window-maximized="1"
     inkscape:current-layer="svg7" />
  <defs
     id="defs3">
    <style
       id="current-color-scheme"
       type="text/css">
   .ColorScheme-Text { color:#404040; } .ColorScheme-Highlight { color:#5294e2; }
  </style>
  </defs>
  <path
     style="display:inline;fill:#404040;fill-opacity:1;stroke:none"
     d="m 3,-0.00165143 c -0.554,0 -1,0.446 -1,1 -0.554,0 -1,0.44600003 -1,1.00000003 h 1 13 c 0,-0.554 -0.446001,-1.00000003 -1,-1.00000003 H 7 c 0,-0.554 -0.446,-1 -1,-1 z M 1.5,2.9983486 c -0.831,0 -1.5,0.6192276 -1.5,1.3886719 v 7.2226565 c 0,0.769445 0.669,1.388672 1.5,1.388672 h 2.5078125 c 0.00222,-1.168738 0.00302,-2.283709 0,-4.0332035 0.01627,-0.897364 -0.032232,-1.8228699 0.03125,-2.7167969 0.089403,-0.720078 0.7501559,-1.257 1.4648438,-1.25 h 6.9921877 c 0.77283,-0.028705 1.438404,0.615633 1.496094,1.375 0.01358,2.6908162 0.0038,4.5033524 0,6.6250004 H 14.5 c 0.831,0 1.5,-0.619227 1.5,-1.388672 V 4.3870205 C 16,3.6175762 15.331,2.9983486 14.5,2.9983486 Z m 5.0039063,3.0019531 c -0.7146879,-0.007 -1.3754404,0.5299217 -1.4648438,1.25 -0.063482,0.8939263 -0.01498,1.8194325 -0.03125,2.7167969 0.00499,2.8872994 -0.018565,1.7674364 0,4.6542964 0.056894,0.723287 0.6710336,1.344066 1.4042969,1.375 3.0558843,0.007 2.1217799,0.002 5.1777346,0 0.82064,-0.005 1.431679,-0.767562 1.402344,-1.5625 -0.005,-3.680479 0.01857,-3.378553 0,-7.0585933 -0.05769,-0.7593675 -0.723264,-1.4037048 -1.496094,-1.375 z m 0.9980469,1.9980469 c 2.3624367,0.007 0.7282556,-0.023587 3.0898438,0 0.496275,0.1057739 0.395643,0.68525 0.404297,1.0625 v 4.4355464 c 0.003,0.494718 -0.535036,0.532043 -0.904297,0.5 -2.227469,-0.007 -0.4550207,0.02359 -2.6816407,0 -0.496275,-0.105794 -0.3975961,-0.68526 -0.40625,-1.0625 V 8.4983486 c -0.00599,-0.2686276 0.2296971,-0.5064766 0.4980469,-0.5 z"
     id="path3028"
     inkscape:connector-curvature="0" />
</svg>
