<?xml version="1.0" encoding="UTF-8" standalone="no"?>
<svg
   xmlns:osb="http://www.openswatchbook.org/uri/2009/osb"
   xmlns:dc="http://purl.org/dc/elements/1.1/"
   xmlns:cc="http://creativecommons.org/ns#"
   xmlns:rdf="http://www.w3.org/1999/02/22-rdf-syntax-ns#"
   xmlns:svg="http://www.w3.org/2000/svg"
   xmlns="http://www.w3.org/2000/svg"
   xmlns:sodipodi="http://sodipodi.sourceforge.net/DTD/sodipodi-0.dtd"
   xmlns:inkscape="http://www.inkscape.org/namespaces/inkscape"
   width="16"
   version="1.1"
   style="enable-background:new"
   id="svg7384"
   height="16"
   inkscape:version="0.91 r13725"
   sodipodi:docname="camera-photo-symbolic.svg">
  <sodipodi:namedview
     pagecolor="#ffffff"
     bordercolor="#666666"
     borderopacity="1"
     objecttolerance="10"
     gridtolerance="10"
     guidetolerance="10"
     inkscape:pageopacity="0"
     inkscape:pageshadow="2"
     inkscape:window-width="1920"
     inkscape:window-height="1026"
     id="namedview20"
     showgrid="false"
     inkscape:zoom="8"
     inkscape:cx="-16.127171"
     inkscape:cy="8.0995219"
     inkscape:window-x="0"
     inkscape:window-y="0"
     inkscape:window-maximized="1"
     inkscape:current-layer="svg7384">
    <inkscape:grid
       type="xygrid"
       id="grid4154" />
  </sodipodi:namedview>
  <metadata
     id="metadata90">
    <rdf:RDF>
      <cc:Work
         rdf:about="">
        <dc:format>image/svg+xml</dc:format>
        <dc:type
           rdf:resource="http://purl.org/dc/dcmitype/StillImage" />
        <dc:title>Moka Symbolic Icon Theme</dc:title>
      </cc:Work>
    </rdf:RDF>
  </metadata>
  <title
     id="title8473">Moka Symbolic Icon Theme</title>
  <defs
     id="defs7386">
    <linearGradient
       osb:paint="solid"
       id="linearGradient5606">
      <stop
         style="stop-color:#000000;stop-opacity:1;"
         offset="0"
         id="stop5608" />
    </linearGradient>
    <filter
       style="color-interpolation-filters:sRGB"
       id="filter7554">
      <feBlend
         mode="darken"
         in2="BackgroundImage"
         id="feBlend7556" />
    </filter>
  </defs>
  <path
     id="rect5238-9"
     d="m 6.9999999,1.9999995 0,1 6.0000011,0 0,-1 -6.0000011,0 z M 2,3.9999995 c -0.55201,0 -1,0.45004 -1,1 L 1,13 c 0,0.54996 0.44799,1 1,1 l 12.000001,0 c 0.55201,0 1,-0.45004 1,-1 l 0,-8.0000005 c 0,-0.54996 -0.44799,-1 -1,-1 l -2.437501,0 -0.5625,0 -6.0000001,0 -0.5625,0 -2.4374999,0 z m 1,2 1.9999999,0 0,1 -1.9999999,0 0,-1 z m 7,0 c 1.65685,0 3.000001,1.34315 3.000001,3 C 13.000001,10.65685 11.65685,12 10,12 8.3431499,12 6.9999999,10.65685 6.9999999,8.9999995 c 0,-1.65685 1.34315,-3 3.0000001,-3 z m 0,1 c -1.1045701,0 -2.0000001,0.89543 -2.0000001,2 C 7.9999999,10.10457 8.8954299,11 10,11 c 1.10457,0 2,-0.89543 2,-2.0000005 0,-1.10457 -0.89543,-2 -2,-2 z"
     style="color:#bebebe;display:inline;overflow:visible;visibility:visible;fill:#bebebe;fill-opacity:1;fill-rule:nonzero;stroke:none;stroke-width:3;marker:none;enable-background:accumulate"
     inkscape:connector-curvature="0" />
  <g
     transform="translate(-321.0002,156.00336)"
     style="display:inline"
     id="layer9" />
  <g
     transform="translate(-80,-460.99664)"
     style="display:inline"
     id="layer1" />
  <g
     transform="translate(-321.0002,156.00336)"
     style="display:inline"
     id="layer14" />
  <g
     transform="translate(-321.0002,156.00336)"
     style="display:inline"
     id="layer15" />
  <g
     transform="translate(-321.0002,156.00336)"
     style="display:inline"
     id="g71291" />
  <g
     transform="translate(-80,-310.99664)"
     style="display:inline"
     id="layer2" />
  <g
     transform="translate(-80,-310.99664)"
     style="display:inline"
     id="g6058" />
  <g
     transform="translate(-321.0002,156.00336)"
     style="display:inline"
     id="layer12" />
</svg>
