<?xml version="1.0" encoding="UTF-8" standalone="no"?>
<svg
   xmlns:dc="http://purl.org/dc/elements/1.1/"
   xmlns:cc="http://creativecommons.org/ns#"
   xmlns:rdf="http://www.w3.org/1999/02/22-rdf-syntax-ns#"
   xmlns:svg="http://www.w3.org/2000/svg"
   xmlns="http://www.w3.org/2000/svg"
   xmlns:sodipodi="http://sodipodi.sourceforge.net/DTD/sodipodi-0.dtd"
   xmlns:inkscape="http://www.inkscape.org/namespaces/inkscape"
   width="16"
   height="16"
   viewBox="0 0 16 16"
   version="1.1"
   id="svg7"
   sodipodi:docname="addCol.svg"
   inkscape:version="0.92.3 (2405546, 2018-03-11)">
  <metadata
     id="metadata11">
    <rdf:RDF>
      <cc:Work
         rdf:about="">
        <dc:format>image/svg+xml</dc:format>
        <dc:type
           rdf:resource="http://purl.org/dc/dcmitype/StillImage" />
      </cc:Work>
    </rdf:RDF>
  </metadata>
  <sodipodi:namedview
     pagecolor="#ffffff"
     bordercolor="#666666"
     borderopacity="1"
     objecttolerance="10"
     gridtolerance="10"
     guidetolerance="10"
     inkscape:pageopacity="0"
     inkscape:pageshadow="2"
     inkscape:window-width="959"
     inkscape:window-height="1011"
     id="namedview9"
     showgrid="false"
     inkscape:zoom="14.75"
     inkscape:cx="8"
     inkscape:cy="8"
     inkscape:window-x="960"
     inkscape:window-y="0"
     inkscape:window-maximized="0"
     inkscape:current-layer="svg7">
    <inkscape:grid
       type="xygrid"
       id="grid824" />
  </sodipodi:namedview>
  <defs
     id="defs3">
    <style
       id="current-color-scheme"
       type="text/css">
   .ColorScheme-Text { color:#DADADA; } .ColorScheme-Highlight { color:#5294e2; }
  </style>
  </defs>
  <path
     style="color:#DADADA;fill:currentColor"
     d="M 0.99999995,0.99999985 V 15 H 9 V 13 H 7 V 11 H 9 V 8.9999999 H 7 V 6.9999998 h 2 v -2 H 7 V 2.9999999 H 9 V 0.99999985 Z M 10,1.9999998 V 14 h 1 v -1.28125 l 3,-3.0000001 c 0,0.8541671 0,1.7083331 0,2.5625001 L 12.28125,14 h 1.4375 L 14,13.71875 V 14 h 1 V 1.9999998 h -1 v 2.28125 l -3,3 v -2.5625 c 0.977772,-0.9784923 1.776139,-1.7761384 2.71875,-2.71875 h -1.4375 L 11,3.2812499 V 1.9999998 Z M 2.9999999,2.9999999 H 5 V 4.9999998 H 2.9999999 Z M 14,5.7187498 V 8.2812499 L 11,11.28125 V 8.7187499 C 12,7.7187498 13,6.7187498 14,5.7187498 Z M 2.9999999,6.9999998 H 5 V 8.9999999 H 2.9999999 Z m 0,4.0000002 H 5 v 2 H 2.9999999 Z"
     id="path5"
     inkscape:connector-curvature="0"
     sodipodi:nodetypes="cccccccccccccccccccccccccccccccccccccccccccccccccccccccccc" />
</svg>
