<?xml version="1.0" encoding="UTF-8" standalone="no"?>
<svg
   xmlns:dc="http://purl.org/dc/elements/1.1/"
   xmlns:cc="http://creativecommons.org/ns#"
   xmlns:rdf="http://www.w3.org/1999/02/22-rdf-syntax-ns#"
   xmlns:svg="http://www.w3.org/2000/svg"
   xmlns="http://www.w3.org/2000/svg"
   xmlns:sodipodi="http://sodipodi.sourceforge.net/DTD/sodipodi-0.dtd"
   xmlns:inkscape="http://www.inkscape.org/namespaces/inkscape"
   width="16"
   height="16"
   viewBox="0 0 16 16"
   version="1.1"
   id="svg7"
   sodipodi:docname="document-properties.svg"
   inkscape:version="0.92.3 (2405546, 2018-03-11)">
  <metadata
     id="metadata11">
    <rdf:RDF>
      <cc:Work
         rdf:about="">
        <dc:format>image/svg+xml</dc:format>
        <dc:type
           rdf:resource="http://purl.org/dc/dcmitype/StillImage" />
      </cc:Work>
    </rdf:RDF>
  </metadata>
  <sodipodi:namedview
     pagecolor="#ffffff"
     bordercolor="#666666"
     borderopacity="1"
     objecttolerance="10"
     gridtolerance="10"
     guidetolerance="10"
     inkscape:pageopacity="0"
     inkscape:pageshadow="2"
     inkscape:window-width="1920"
     inkscape:window-height="1025"
     id="namedview9"
     showgrid="false"
     inkscape:zoom="14.75"
     inkscape:cx="8"
     inkscape:cy="8"
     inkscape:window-x="0"
     inkscape:window-y="0"
     inkscape:window-maximized="1"
     inkscape:current-layer="svg7" />
  <defs
     id="defs3">
    <style
       id="current-color-scheme"
       type="text/css">
   .ColorScheme-Text { color:#DADADA; } .ColorScheme-Highlight { color:#5294e2; }
  </style>
  </defs>
  <path
     inkscape:connector-curvature="0"
     d="M 6.96875,13.98241 H 4 V 2.9824095 h 4.5625 l 3.40625,3.40625 V 11.96679 l 2,3.01563 V 5.9511595 c -0.002,-0.26843 -0.11756,-0.53419 -0.3125,-0.71875 L 9.6875,1.2949095 C 9.50294,1.0999695 9.23718,0.98441951 8.96875,0.98240951 H 3 c -0.52358,5e-5 -0.99995,0.47641999 -1,0.99999999 v 12.0000005 0.25 0.71875 c 5e-5,0.52358 0.47642,0.99995 1,1 h 5.01562 z"
     id="path6682"
     sodipodi:nodetypes="ccccccccccccccccccc"
     style="color:#000000;font-style:normal;font-variant:normal;font-weight:normal;font-stretch:normal;font-size:medium;line-height:normal;font-family:Sans;-inkscape-font-specification:Sans;text-indent:0;text-align:start;text-decoration:none;text-decoration-line:none;letter-spacing:normal;word-spacing:normal;text-transform:none;writing-mode:lr-tb;direction:ltr;baseline-shift:baseline;text-anchor:start;display:inline;overflow:visible;visibility:visible;fill:#DADADA;fill-opacity:1;stroke:none;stroke-width:2;marker:none;enable-background:accumulate" />
  <path
     inkscape:connector-curvature="0"
     d="m 8.98865,7.8451595 c -0.32486,-0.059 -0.6669,-0.0455 -0.99404,-0.003 l 0.9759,1.72872 C 9.17139,9.9259495 8.94681,10.33371 8.52029,10.57997 L 7.75038,11.02448 C 7.31986,11.2638 6.84024,11.23226 6.63971,10.87701 L 5.66406,9.1481595 c -0.20685,0.25617 -0.39602,0.54042 -0.51415,0.84765 -0.56538,1.4706005 0.23676,2.8917005 1.79162,3.1741505 0.32485,0.0591 0.66688,0.0455 0.99402,0.003 0.0263,-0.004 1.5184,2.76504 1.5184,2.76504 L 12.95879,16 10.29153,11.87033 C 10.49834,11.61416 10.66226,11.32655 10.7804,11.0193 11.34574,9.5487395 10.54361,8.1276295 8.98879,7.8451695 Z"
     id="path3908-6-6"
     sodipodi:nodetypes="cccscccssccccssc"
     style="color:#000000;font-style:normal;font-variant:normal;font-weight:normal;font-stretch:normal;font-size:medium;line-height:normal;font-family:Sans;-inkscape-font-specification:Sans;text-indent:0;text-align:start;text-decoration:none;text-decoration-line:none;letter-spacing:normal;word-spacing:normal;text-transform:none;writing-mode:lr-tb;direction:ltr;text-anchor:start;display:inline;overflow:visible;visibility:visible;fill:#DADADA;fill-opacity:1;fill-rule:nonzero;stroke:none;stroke-width:3;marker:none;enable-background:accumulate" />
</svg>
