<?xml version="1.0" encoding="UTF-8" standalone="no"?>
<svg
   xmlns:dc="http://purl.org/dc/elements/1.1/"
   xmlns:cc="http://creativecommons.org/ns#"
   xmlns:rdf="http://www.w3.org/1999/02/22-rdf-syntax-ns#"
   xmlns:svg="http://www.w3.org/2000/svg"
   xmlns="http://www.w3.org/2000/svg"
   xmlns:sodipodi="http://sodipodi.sourceforge.net/DTD/sodipodi-0.dtd"
   xmlns:inkscape="http://www.inkscape.org/namespaces/inkscape"
   width="16"
   height="16"
   viewBox="0 0 16 16"
   version="1.1"
   id="svg7"
   sodipodi:docname="pasteCol.svg"
   inkscape:version="0.92.3 (2405546, 2018-03-11)">
  <metadata
     id="metadata11">
    <rdf:RDF>
      <cc:Work
         rdf:about="">
        <dc:format>image/svg+xml</dc:format>
        <dc:type
           rdf:resource="http://purl.org/dc/dcmitype/StillImage" />
      </cc:Work>
    </rdf:RDF>
  </metadata>
  <sodipodi:namedview
     pagecolor="#ffffff"
     bordercolor="#666666"
     borderopacity="1"
     objecttolerance="10"
     gridtolerance="10"
     guidetolerance="10"
     inkscape:pageopacity="0"
     inkscape:pageshadow="2"
     inkscape:window-width="1920"
     inkscape:window-height="1012"
     id="namedview9"
     showgrid="false"
     inkscape:zoom="14.75"
     inkscape:cx="-4.9152542"
     inkscape:cy="8"
     inkscape:window-x="0"
     inkscape:window-y="0"
     inkscape:window-maximized="1"
     inkscape:current-layer="svg7">
    <inkscape:grid
       type="xygrid"
       id="grid824" />
  </sodipodi:namedview>
  <defs
     id="defs3">
    <style
       id="current-color-scheme"
       type="text/css">
   .ColorScheme-Text { color:#DADADA; } .ColorScheme-Highlight { color:#5294e2; }
  </style>
  </defs>
  <path
     inkscape:connector-curvature="0"
     style="color:#DADADA;fill:currentColor"
     d="M 1,1 V 15 H 9.0000001 V 13 H 7 V 11 H 9.0000001 V 9 H 7 V 7 H 9.0000001 V 5 H 7 V 3 H 9.0000001 V 1 Z m 9,1 v 7 h 1 V 8.71875 L 12.71875,7 l 1,-1 L 14,5.71875 v 2.5625 L 13.28125,9 H 15 V 2 H 14 V 4.28125 L 12.28125,6 l -1,1 L 11,7.28125 V 4.71875 L 12.71875,3 l 1,-1 h -1.4375 l -1,1 L 11,3.28125 V 2 Z M 3.0000001,3 H 5 V 5 H 3.0000001 Z m 0,4 H 5 V 9 H 3.0000001 Z M 12,10 v 2 h -2 v 2 h 2 v 2 h 2 v -2 h 2 V 12 H 14 V 10 Z M 3.0000001,11 H 5 v 2 H 3.0000001 Z"
     id="path5" />
</svg>
