<?xml version="1.0" encoding="UTF-8" standalone="no"?>
<svg
   xmlns:dc="http://purl.org/dc/elements/1.1/"
   xmlns:cc="http://creativecommons.org/ns#"
   xmlns:rdf="http://www.w3.org/1999/02/22-rdf-syntax-ns#"
   xmlns:svg="http://www.w3.org/2000/svg"
   xmlns="http://www.w3.org/2000/svg"
   xmlns:sodipodi="http://sodipodi.sourceforge.net/DTD/sodipodi-0.dtd"
   xmlns:inkscape="http://www.inkscape.org/namespaces/inkscape"
   height="16"
   width="16"
   version="1.1"
   id="svg6"
   sodipodi:docname="viewlog.svg"
   inkscape:version="0.92.3 (2405546, 2018-03-11)">
  <metadata
     id="metadata12">
    <rdf:RDF>
      <cc:Work
         rdf:about="">
        <dc:format>image/svg+xml</dc:format>
        <dc:type
           rdf:resource="http://purl.org/dc/dcmitype/StillImage" />
      </cc:Work>
    </rdf:RDF>
  </metadata>
  <defs
     id="defs10" />
  <sodipodi:namedview
     pagecolor="#ffffff"
     bordercolor="#666666"
     borderopacity="1"
     objecttolerance="10"
     gridtolerance="10"
     guidetolerance="10"
     inkscape:pageopacity="0"
     inkscape:pageshadow="2"
     inkscape:window-width="1920"
     inkscape:window-height="1012"
     id="namedview8"
     showgrid="false"
     inkscape:zoom="41.7193"
     inkscape:cx="5.7617802"
     inkscape:cy="5.2396565"
     inkscape:window-x="0"
     inkscape:window-y="0"
     inkscape:window-maximized="1"
     inkscape:current-layer="svg6">
    <inkscape:grid
       type="xygrid"
       id="grid1135" />
  </sodipodi:namedview>
  <g
     id="g822">
    <path
       id="path5-3-6"
       d="M 7 4.5 C 5.8955 4.5 5 5.39549 5 6.5 L 5 7.5 C 5 7.77616 4.77614 8 4.5 8 L 4 8 L 4 9 L 4.5 9 C 4.77614 9 5 9.22385 5 9.5 L 5 10.5 C 5 11.6045 5.89549 12.5 7 12.5 L 7 11.5 C 6.44771 11.5 6 11.05222 6 10.5 L 6 9.5 C 6 9.1175 5.86072 8.76497 5.625 8.5 C 5.86072 8.23504 6 7.88251 6 7.5 L 6 6.5 C 6 5.94771 6.44778 5.5 7 5.5 L 7 4.5 z M 9 4.5 L 9 5.5 C 9.55222 5.5 10 5.94771 10 6.5 L 10 7.5 C 10 7.88251 10.13928 8.23504 10.375 8.5 C 10.13928 8.76497 10 9.1175 10 9.5 L 10 10.5 C 10 11.05222 9.55229 11.5 9 11.5 L 9 12.5 C 10.10451 12.5 11 11.6045 11 10.5 L 11 9.5 C 11 9.22385 11.22386 9 11.5 9 L 12 9 L 12 8 L 11.5 8 C 11.22386 8 11 7.77616 11 7.5 L 11 6.5 C 11 5.39549 10.1045 4.5 9 4.5 z "
       style="color:#DADADA;fill:currentColor" />
    <path
       sodipodi:nodetypes="scccscccccccccscccc"
       id="path5"
       d="M 3.0061179,1 C 0.7574179,1 1.0080711,3 1.0080711,3 V 15 H 15.000258 V 3 c 0,-2 -2,-2 -2,-2 h -1.998047 v 3 h 1.998047 v 9 H 3.0061179 V 4 h 2 V 1 Z M 6.0041648,1 8.0041652,4 10.002211,1 Z"
       class="ColorScheme-Text"
       style="color:#DADADA;fill:currentColor"
       inkscape:connector-curvature="0" />
  </g>
</svg>
