<?xml version="1.0" encoding="UTF-8" standalone="no"?>
<svg
   xmlns:dc="http://purl.org/dc/elements/1.1/"
   xmlns:cc="http://creativecommons.org/ns#"
   xmlns:rdf="http://www.w3.org/1999/02/22-rdf-syntax-ns#"
   xmlns:svg="http://www.w3.org/2000/svg"
   xmlns="http://www.w3.org/2000/svg"
   width="16"
   height="16"
   viewBox="0 0 16 16"
   version="1.1"
   id="svg7">
  <metadata
     id="metadata11">
    <rdf:RDF>
      <cc:Work
         rdf:about="">
        <dc:format>image/svg+xml</dc:format>
        <dc:type
           rdf:resource="http://purl.org/dc/dcmitype/StillImage" />
      </cc:Work>
    </rdf:RDF>
  </metadata>
  <defs
     id="defs3">
    <style
       id="current-color-scheme"
       type="text/css">
   .ColorScheme-Text { color:#DADADA; } .ColorScheme-Highlight { color:#5294e2; }
  </style>
  </defs>
  <path
     style="fill:#DADADA;fill-opacity:1"
     d="M 3 2 C 2.45 2 2 2.446 2 3 L 2 13 C 2 13.554 2.45 14 3 14 L 13 14 C 13.55 14 14 13.554 14 13 L 14 3 C 14 2.446 13.55 2 13 2 L 3 2 z M 4.5019531 3.9960938 C 6.8687931 4.0030937 8.9992814 3.9960938 11.595703 3.9960938 C 12.092951 4.1019338 11.991 4.6713781 12 5.0488281 L 12 11.486328 C 12.003 11.981325 11.465653 12.005194 11.095703 11.996094 C 8.9992814 12.005194 5.9992811 11.996094 4.4082031 11.996094 C 3.9109531 11.890244 4.0109531 11.301268 4.0019531 10.923828 L 4.0019531 4.4863281 C 3.9959531 4.2175681 4.2331031 3.9900938 4.5019531 3.9960938 z M 7 5 C 7 6 6 6 6 6 L 6 7 L 7 7 L 7 11 L 9 11 L 9 5 L 7 5 z "
     id="path4" />
</svg>
