<?xml version="1.0" encoding="UTF-8" standalone="no"?>
<svg
   xmlns:dc="http://purl.org/dc/elements/1.1/"
   xmlns:cc="http://creativecommons.org/ns#"
   xmlns:rdf="http://www.w3.org/1999/02/22-rdf-syntax-ns#"
   xmlns:svg="http://www.w3.org/2000/svg"
   xmlns="http://www.w3.org/2000/svg"
   xmlns:sodipodi="http://sodipodi.sourceforge.net/DTD/sodipodi-0.dtd"
   xmlns:inkscape="http://www.inkscape.org/namespaces/inkscape"
   width="22"
   height="22"
   viewBox="0 0 22 22"
   version="1.1"
   id="svg7"
   sodipodi:docname="addCol.svg"
   inkscape:version="0.92.3 (2405546, 2018-03-11)">
  <metadata
     id="metadata11">
    <rdf:RDF>
      <cc:Work
         rdf:about="">
        <dc:format>image/svg+xml</dc:format>
        <dc:type
           rdf:resource="http://purl.org/dc/dcmitype/StillImage" />
      </cc:Work>
    </rdf:RDF>
  </metadata>
  <sodipodi:namedview
     pagecolor="#ffffff"
     bordercolor="#666666"
     borderopacity="1"
     objecttolerance="10"
     gridtolerance="10"
     guidetolerance="10"
     inkscape:pageopacity="0"
     inkscape:pageshadow="2"
     inkscape:window-width="959"
     inkscape:window-height="1011"
     id="namedview9"
     showgrid="false"
     inkscape:zoom="30.341309"
     inkscape:cx="13.393669"
     inkscape:cy="10.673552"
     inkscape:window-x="0"
     inkscape:window-y="0"
     inkscape:window-maximized="0"
     inkscape:current-layer="svg7">
    <inkscape:grid
       type="xygrid"
       id="grid833" />
  </sodipodi:namedview>
  <defs
     id="defs3">
    <style
       id="current-color-scheme"
       type="text/css">
   .ColorScheme-Text { color:#404040; } .ColorScheme-Highlight { color:#5294e2; }
  </style>
  </defs>
  <path
     style="color:#404040;fill:currentColor"
     d="m 4,4 v 14 h 8 v -2 h -2 v -2 h 2 v -2 h -2 v -2 h 2 V 8 H 10 V 6 h 2 V 4 Z m 9,1 v 12 h 1 v -1.28125 l 3,-3 c 0,0.854167 0,1.708333 0,2.5625 L 15.28125,17 h 1.4375 L 17,16.71875 V 17 h 1 V 5 h -1 v 2.28125 l -3,3 V 7.71875 C 14.977772,6.7402576 15.776139,5.9426115 16.71875,5 h -1.4375 L 14,6.28125 V 5 Z M 6,6 H 8 V 8 H 6 Z m 11,2.71875 v 2.5625 l -3,3 v -2.5625 c 1,-1 2,-2 3,-3 z M 6,10 h 2 v 2 H 6 Z m 0,4 h 2 v 2 H 6 Z"
     id="path5"
     inkscape:connector-curvature="0"
     sodipodi:nodetypes="cccccccccccccccccccccccccccccccccccccccccccccccccccccccccc" />
</svg>
