<?xml version="1.0" encoding="UTF-8" standalone="no"?>
<svg
   xmlns:dc="http://purl.org/dc/elements/1.1/"
   xmlns:cc="http://creativecommons.org/ns#"
   xmlns:rdf="http://www.w3.org/1999/02/22-rdf-syntax-ns#"
   xmlns:svg="http://www.w3.org/2000/svg"
   xmlns="http://www.w3.org/2000/svg"
   xmlns:sodipodi="http://sodipodi.sourceforge.net/DTD/sodipodi-0.dtd"
   xmlns:inkscape="http://www.inkscape.org/namespaces/inkscape"
   width="22"
   height="22"
   viewBox="0 0 22 22"
   version="1.1"
   id="svg7"
   sodipodi:docname="document-revert-rtl.svg"
   inkscape:version="0.92.3 (2405546, 2018-03-11)">
  <metadata
     id="metadata11">
    <rdf:RDF>
      <cc:Work
         rdf:about="">
        <dc:format>image/svg+xml</dc:format>
        <dc:type
           rdf:resource="http://purl.org/dc/dcmitype/StillImage" />
      </cc:Work>
    </rdf:RDF>
  </metadata>
  <sodipodi:namedview
     pagecolor="#ffffff"
     bordercolor="#666666"
     borderopacity="1"
     objecttolerance="10"
     gridtolerance="10"
     guidetolerance="10"
     inkscape:pageopacity="0"
     inkscape:pageshadow="2"
     inkscape:window-width="1920"
     inkscape:window-height="1012"
     id="namedview9"
     showgrid="false"
     inkscape:zoom="10.727273"
     inkscape:cx="11"
     inkscape:cy="11"
     inkscape:window-x="0"
     inkscape:window-y="0"
     inkscape:window-maximized="1"
     inkscape:current-layer="svg7">
    <inkscape:grid
       type="xygrid"
       id="grid824" />
  </sodipodi:namedview>
  <defs
     id="defs3">
    <style
       id="current-color-scheme"
       type="text/css">
   .ColorScheme-Text { color:#404040; } .ColorScheme-Highlight { color:#5294e2; }
  </style>
  </defs>
  <path
     inkscape:connector-curvature="0"
     style="display:inline;opacity:1;fill:#404040;fill-opacity:1;stroke:none"
     d="m 15.4971,3.998675 c 0.71602,-0.007 1.37918,0.5295502 1.46875,1.2500002 0.0636,0.8944 0.01495,1.82091 0.03125,2.71875 -0.005,2.8888298 0.0186,5.7678598 0,8.6562498 -0.057,0.72367 -0.67162,1.34406 -1.40625,1.375 -3.06158,0.007 -6.1258493,0.002 -9.1874993,0 -0.82217,-0.005 -1.43564,-0.76713 -1.40625,-1.5625 0.0011,-0.810733 9.16e-4,-1.623636 0,-2.435547 v -1 c 0,-1.3333 0.814254,-2.275331 1.552734,-2.644531 0.73852,-0.3692598 1.447266,-0.355469 1.447266,-0.355469 h 1.585937 L 9.2998347,9.7174252 c -0.003,-0.003 -0.0068,-0.0058 -0.0098,-0.0098 -0.186825,-0.186806 -0.292924,-0.441827 -0.292964,-0.707027 v -1 h 1 c 0.2652003,4e-5 0.5195313,0.105419 0.7070313,0.292969 l 2.70703,2.7070308 -2.697264,2.697266 c -0.18827,0.19354 -0.446797,0.302734 -0.7167973,0.302734 h -1 v -1 c 4e-5,-0.2652 0.105419,-0.519531 0.292969,-0.707031 l 0.292968,-0.292969 h -1.585937 c 0,0 -0.291254,0.0138 -0.552734,0.144532 -0.26149,0.13074 -0.447266,0.188798 -0.447266,0.855468 v 1 1.498047 c -0.003,0.49499 0.5363,0.53206 0.90625,0.5 2.2316203,-0.007 4.4567293,0.0236 6.6874993,0 0.4972,-0.10584 0.39758,-0.68505 0.40625,-1.0625 V 6.4986452 c 0.006,-0.26876 -0.23115,-0.50647 -0.5,-0.5 -2.36684,0.007 -4.7277593,-0.0236 -7.0937493,0 -0.4972,0.10584 -0.39758,0.68505 -0.40625,1.0625 v 0.939453 c 0.0191,1.35232 -2.01913,1.35232 -2,0 v -1 c -9.26e-4,-0.542578 -0.0027,-1.085446 0,-1.626953 0.0578,-0.75976 0.72573,-1.4037202 1.5,-1.3750002 z"
     id="path4102" />
</svg>
