<?xml version="1.0" encoding="UTF-8" standalone="no"?>
<svg
   xmlns:dc="http://purl.org/dc/elements/1.1/"
   xmlns:cc="http://creativecommons.org/ns#"
   xmlns:rdf="http://www.w3.org/1999/02/22-rdf-syntax-ns#"
   xmlns:svg="http://www.w3.org/2000/svg"
   xmlns="http://www.w3.org/2000/svg"
   xmlns:sodipodi="http://sodipodi.sourceforge.net/DTD/sodipodi-0.dtd"
   xmlns:inkscape="http://www.inkscape.org/namespaces/inkscape"
   width="22"
   height="22"
   viewBox="0 0 22 22"
   version="1.1"
   id="svg7"
   sodipodi:docname="document-save-as.svg"
   inkscape:version="0.92.3 (2405546, 2018-03-11)">
  <metadata
     id="metadata11">
    <rdf:RDF>
      <cc:Work
         rdf:about="">
        <dc:format>image/svg+xml</dc:format>
        <dc:type
           rdf:resource="http://purl.org/dc/dcmitype/StillImage" />
      </cc:Work>
    </rdf:RDF>
  </metadata>
  <sodipodi:namedview
     pagecolor="#ffffff"
     bordercolor="#666666"
     borderopacity="1"
     objecttolerance="10"
     gridtolerance="10"
     guidetolerance="10"
     inkscape:pageopacity="0"
     inkscape:pageshadow="2"
     inkscape:window-width="1920"
     inkscape:window-height="1012"
     id="namedview9"
     showgrid="false"
     inkscape:zoom="10.727273"
     inkscape:cx="11"
     inkscape:cy="11"
     inkscape:window-x="0"
     inkscape:window-y="0"
     inkscape:window-maximized="1"
     inkscape:current-layer="svg7">
    <inkscape:grid
       type="xygrid"
       id="grid824" />
  </sodipodi:namedview>
  <defs
     id="defs3">
    <style
       id="current-color-scheme"
       type="text/css">
   .ColorScheme-Text { color:#404040; } .ColorScheme-Highlight { color:#5294e2; }
  </style>
  </defs>
  <path
     style="fill:#404040;fill-opacity:1"
     d="m 7,3.0000001 c 0,0 -1,0 -1,1 V 15 c 0,1 1,1 1,1 h 11 c 0,0 1,0 1,-1 V 5.0000001 l -2,-2 H 8 Z m 2,1 h 7 c 0,1.3333333 0,2.6666667 0,4 0,1 -1,1 -1,1 h -5 c 0,0 -1,0 -1,-1 0,-1.3333333 0,-2.6666667 0,-4 z m 4,1 v 3 h 2 v -3 z m -9,2 c -1,0 -1,1 -1,1 V 18 c 0,1 1,1 1,1 h 11 c 0,0 1,0 1,-1 V 17 H 5 V 7.0000001 Z M 9,10 h 7 c 0,0 1,0 1,1 v 4 H 8 v -4 c 0,-1 1,-1 1,-1 z"
     id="path2"
     inkscape:connector-curvature="0"
     sodipodi:nodetypes="cssccsccccccccccccccccscsccscccsccsccsc" />
</svg>
