<?xml version="1.0" encoding="UTF-8" standalone="no"?>
<svg
   xmlns:dc="http://purl.org/dc/elements/1.1/"
   xmlns:cc="http://creativecommons.org/ns#"
   xmlns:rdf="http://www.w3.org/1999/02/22-rdf-syntax-ns#"
   xmlns:svg="http://www.w3.org/2000/svg"
   xmlns="http://www.w3.org/2000/svg"
   xmlns:sodipodi="http://sodipodi.sourceforge.net/DTD/sodipodi-0.dtd"
   xmlns:inkscape="http://www.inkscape.org/namespaces/inkscape"
   width="22"
   height="22"
   viewBox="0 0 22 22"
   version="1.1"
   id="svg7"
   sodipodi:docname="document-open.svg"
   inkscape:version="0.92.3 (2405546, 2018-03-11)">
  <metadata
     id="metadata11">
    <rdf:RDF>
      <cc:Work
         rdf:about="">
        <dc:format>image/svg+xml</dc:format>
        <dc:type
           rdf:resource="http://purl.org/dc/dcmitype/StillImage" />
      </cc:Work>
    </rdf:RDF>
  </metadata>
  <sodipodi:namedview
     pagecolor="#ffffff"
     bordercolor="#666666"
     borderopacity="1"
     objecttolerance="10"
     gridtolerance="10"
     guidetolerance="10"
     inkscape:pageopacity="0"
     inkscape:pageshadow="2"
     inkscape:window-width="1920"
     inkscape:window-height="1025"
     id="namedview9"
     showgrid="false"
     inkscape:zoom="10.727273"
     inkscape:cx="11"
     inkscape:cy="11"
     inkscape:window-x="0"
     inkscape:window-y="0"
     inkscape:window-maximized="1"
     inkscape:current-layer="svg7">
    <inkscape:grid
       type="xygrid"
       id="grid824" />
  </sodipodi:namedview>
  <defs
     id="defs3">
    <style
       id="current-color-scheme"
       type="text/css">
   .ColorScheme-Text { color:#404040; } .ColorScheme-Highlight { color:#5294e2; }
  </style>
  </defs>
  <path
     style="display:inline;fill:#404040;fill-opacity:1;stroke:none"
     d="m 6,2.9991744 c -0.554,0 -1,0.446 -1,1 -0.554,0 -1,0.446 -1,1 h 1 13 c 0,-0.554 -0.446001,-1 -1,-1 H 9.9999999 c 0,-0.554 -0.446,-1 -1,-1 z m -1.5,3 c -0.831,0 -1.5,0.6192276 -1.5,1.3886719 v 7.2226567 c 0,0.769445 0.669,1.388672 1.5,1.388672 h 2.5078125 c 0.00222,-1.168738 0.00302,-2.283709 0,-4.033204 0.01627,-0.897364 -0.032232,-1.82287 0.03125,-2.7167966 0.089403,-0.720078 0.7501559,-1.257 1.4648438,-1.25 h 6.9921877 c 0.77283,-0.028705 1.438404,0.615633 1.496094,1.375 0.01358,2.6908166 0.0038,4.5033526 0,6.6250006 H 17.5 c 0.831,0 1.5,-0.619227 1.5,-1.388672 V 7.3878463 C 19,6.618402 18.331,5.9991744 17.5,5.9991744 Z m 5.0039059,3.0019531 c -0.7146875,-0.007 -1.37544,0.5299217 -1.4648434,1.2499995 -0.063482,0.893927 -0.01498,1.819433 -0.03125,2.716797 0.00499,2.8873 -0.018565,1.767437 0,4.654297 0.056894,0.723287 0.6710336,1.344066 1.4042964,1.375 3.0558851,0.007 2.1217801,0.002 5.1777351,0 0.82064,-0.005 1.431679,-0.767562 1.402344,-1.5625 -0.005,-3.680479 0.01857,-3.378553 0,-7.058594 C 15.934498,9.61676 15.268924,8.9724227 14.496094,9.0011275 Z m 0.9980471,1.9980465 c 2.362437,0.007 0.728256,-0.02359 3.089844,0 0.496275,0.105774 0.395643,0.68525 0.404297,1.0625 v 4.435547 c 0.003,0.494718 -0.535036,0.532043 -0.904297,0.5 -2.227469,-0.007 -0.455021,0.02359 -2.681641,0 -0.4962751,-0.105794 -0.397596,-0.68526 -0.40625,-1.0625 v -4.435547 c -0.006,-0.268627 0.229697,-0.506476 0.498047,-0.5 z"
     id="path3028"
     inkscape:connector-curvature="0" />
</svg>
