<?xml version="1.0" encoding="UTF-8" standalone="no"?>
<svg
   xmlns:dc="http://purl.org/dc/elements/1.1/"
   xmlns:cc="http://creativecommons.org/ns#"
   xmlns:rdf="http://www.w3.org/1999/02/22-rdf-syntax-ns#"
   xmlns:svg="http://www.w3.org/2000/svg"
   xmlns="http://www.w3.org/2000/svg"
   xmlns:sodipodi="http://sodipodi.sourceforge.net/DTD/sodipodi-0.dtd"
   xmlns:inkscape="http://www.inkscape.org/namespaces/inkscape"
   width="22"
   height="22"
   viewBox="0 0 22 22"
   version="1.1"
   id="svg7"
   sodipodi:docname="document-properties.svg"
   inkscape:version="0.92.3 (2405546, 2018-03-11)">
  <metadata
     id="metadata11">
    <rdf:RDF>
      <cc:Work
         rdf:about="">
        <dc:format>image/svg+xml</dc:format>
        <dc:type
           rdf:resource="http://purl.org/dc/dcmitype/StillImage" />
      </cc:Work>
    </rdf:RDF>
  </metadata>
  <sodipodi:namedview
     pagecolor="#ffffff"
     bordercolor="#666666"
     borderopacity="1"
     objecttolerance="10"
     gridtolerance="10"
     guidetolerance="10"
     inkscape:pageopacity="0"
     inkscape:pageshadow="2"
     inkscape:window-width="1920"
     inkscape:window-height="1025"
     id="namedview9"
     showgrid="false"
     inkscape:zoom="7.5853273"
     inkscape:cx="18.373823"
     inkscape:cy="5.3337574"
     inkscape:window-x="0"
     inkscape:window-y="0"
     inkscape:window-maximized="1"
     inkscape:current-layer="svg7">
    <inkscape:grid
       type="xygrid"
       id="grid832" />
  </sodipodi:namedview>
  <defs
     id="defs3">
    <style
       id="current-color-scheme"
       type="text/css">
   .ColorScheme-Text { color:#404040; } .ColorScheme-Highlight { color:#5294e2; }
  </style>
  </defs>
  <path
     inkscape:connector-curvature="0"
     d="m 9.9687497,16.98241 h -2.96875 v -11 H 11.5625 l 3.40625,3.40625 v 5.57813 l 2,3.01563 V 8.95116 C 16.96675,8.68273 16.85119,8.41697 16.65625,8.23241 L 12.6875,4.29491 C 12.50294,4.09997 12.23718,3.98442 11.96875,3.98241 H 5.9999997 C 5.47642,3.98246 5.00005,4.45883 5,4.98241 v 12 0.25 0.71875 c 5e-5,0.52358 0.47642,0.99995 0.9999997,1 H 11.01562 Z"
     id="path6682"
     sodipodi:nodetypes="ccccccccccccccccccc"
     style="color:#000000;font-style:normal;font-variant:normal;font-weight:normal;font-stretch:normal;font-size:medium;line-height:normal;font-family:Sans;-inkscape-font-specification:Sans;text-indent:0;text-align:start;text-decoration:none;text-decoration-line:none;letter-spacing:normal;word-spacing:normal;text-transform:none;writing-mode:lr-tb;direction:ltr;baseline-shift:baseline;text-anchor:start;display:inline;overflow:visible;visibility:visible;fill:#404040;fill-opacity:1;stroke:none;stroke-width:2;marker:none;enable-background:accumulate" />
  <path
     inkscape:connector-curvature="0"
     d="m 11.98865,10.84516 c -0.32486,-0.059 -0.6669,-0.0455 -0.99404,-0.003 l 0.9759,1.72872 c 0.20088,0.35507 -0.0237,0.762831 -0.45022,1.009091 L 10.75038,14.02448 C 10.31986,14.2638 9.8402397,14.23226 9.6397097,13.877011 l -0.97565,-1.728851 c -0.20685,0.25617 -0.39602,0.54042 -0.51415,0.84765 -0.56538,1.4706 0.23676,2.8917 1.79162,3.17415 0.3248503,0.0591 0.6668803,0.0455 0.9940203,0.003 0.0263,-0.004 1.5184,2.76504 1.5184,2.76504 L 15.95879,19 13.29153,14.87033 c 0.20681,-0.25617 0.37073,-0.54378 0.48887,-0.85103 0.56534,-1.47056 -0.23679,-2.89167 -1.79161,-3.17413 z"
     id="path3908-6-6"
     sodipodi:nodetypes="cccscccssccccssc"
     style="color:#000000;font-style:normal;font-variant:normal;font-weight:normal;font-stretch:normal;font-size:medium;line-height:normal;font-family:Sans;-inkscape-font-specification:Sans;text-indent:0;text-align:start;text-decoration:none;text-decoration-line:none;letter-spacing:normal;word-spacing:normal;text-transform:none;writing-mode:lr-tb;direction:ltr;text-anchor:start;display:inline;overflow:visible;visibility:visible;fill:#404040;fill-opacity:1;fill-rule:nonzero;stroke:none;stroke-width:3;marker:none;enable-background:accumulate" />
</svg>
