<?xml version="1.0" encoding="UTF-8" standalone="no"?>
<svg
   xmlns:dc="http://purl.org/dc/elements/1.1/"
   xmlns:cc="http://creativecommons.org/ns#"
   xmlns:rdf="http://www.w3.org/1999/02/22-rdf-syntax-ns#"
   xmlns:svg="http://www.w3.org/2000/svg"
   xmlns="http://www.w3.org/2000/svg"
   xmlns:sodipodi="http://sodipodi.sourceforge.net/DTD/sodipodi-0.dtd"
   xmlns:inkscape="http://www.inkscape.org/namespaces/inkscape"
   width="22"
   height="22"
   viewBox="0 0 22 22"
   version="1.1"
   id="svg7"
   sodipodi:docname="pasteCol.svg"
   inkscape:version="0.92.3 (2405546, 2018-03-11)">
  <metadata
     id="metadata11">
    <rdf:RDF>
      <cc:Work
         rdf:about="">
        <dc:format>image/svg+xml</dc:format>
        <dc:type
           rdf:resource="http://purl.org/dc/dcmitype/StillImage" />
      </cc:Work>
    </rdf:RDF>
  </metadata>
  <sodipodi:namedview
     pagecolor="#ffffff"
     bordercolor="#666666"
     borderopacity="1"
     objecttolerance="10"
     gridtolerance="10"
     guidetolerance="10"
     inkscape:pageopacity="0"
     inkscape:pageshadow="2"
     inkscape:window-width="1920"
     inkscape:window-height="1012"
     id="namedview9"
     showgrid="false"
     inkscape:zoom="21.454545"
     inkscape:cx="2.5395005"
     inkscape:cy="8.4307741"
     inkscape:window-x="0"
     inkscape:window-y="0"
     inkscape:window-maximized="1"
     inkscape:current-layer="svg7">
    <inkscape:grid
       type="xygrid"
       id="grid818" />
  </sodipodi:namedview>
  <defs
     id="defs3">
    <style
       id="current-color-scheme"
       type="text/css">
   .ColorScheme-Text { color:#404040; } .ColorScheme-Highlight { color:#5294e2; }
  </style>
  </defs>
  <path
     style="color:#404040;fill:currentColor"
     d="M 4 4 L 4 18 L 12 18 L 12 16 L 10 16 L 10 14 L 12 14 L 12 12 L 10 12 L 10 10 L 12 10 L 12 8 L 10 8 L 10 6 L 12 6 L 12 4 L 4 4 z M 13 5 L 13 12 L 14 12 L 14 11.71875 L 15.71875 10 L 16.71875 9 L 17 8.71875 L 17 11.28125 L 16.28125 12 L 18 12 L 18 5 L 17 5 L 17 7.28125 L 15.28125 9 L 14.28125 10 L 14 10.28125 L 14 7.71875 L 15.71875 6 L 16.71875 5 L 15.28125 5 L 14.28125 6 L 14 6.28125 L 14 5 L 13 5 z M 6 6 L 8 6 L 8 8 L 6 8 L 6 6 z M 6 10 L 8 10 L 8 12 L 6 12 L 6 10 z M 15 13 L 15 15 L 13 15 L 13 17 L 15 17 L 15 19 L 17 19 L 17 17 L 19 17 L 19 15 L 17 15 L 17 13 L 15 13 z M 6 14 L 8 14 L 8 16 L 6 16 L 6 14 z "
     id="path5" />
</svg>
