<?xml version="1.0" encoding="UTF-8" standalone="no"?>
<svg
   xmlns:dc="http://purl.org/dc/elements/1.1/"
   xmlns:cc="http://creativecommons.org/ns#"
   xmlns:rdf="http://www.w3.org/1999/02/22-rdf-syntax-ns#"
   xmlns:svg="http://www.w3.org/2000/svg"
   xmlns="http://www.w3.org/2000/svg"
   xmlns:sodipodi="http://sodipodi.sourceforge.net/DTD/sodipodi-0.dtd"
   xmlns:inkscape="http://www.inkscape.org/namespaces/inkscape"
   width="22"
   height="22"
   viewBox="0 0 22 22"
   version="1.1"
   id="svg7"
   sodipodi:docname="tools-check-spelling.svg"
   inkscape:version="0.92.3 (2405546, 2018-03-11)">
  <metadata
     id="metadata11">
    <rdf:RDF>
      <cc:Work
         rdf:about="">
        <dc:format>image/svg+xml</dc:format>
        <dc:type
           rdf:resource="http://purl.org/dc/dcmitype/StillImage" />
      </cc:Work>
    </rdf:RDF>
  </metadata>
  <sodipodi:namedview
     pagecolor="#ffffff"
     bordercolor="#666666"
     borderopacity="1"
     objecttolerance="10"
     gridtolerance="10"
     guidetolerance="10"
     inkscape:pageopacity="0"
     inkscape:pageshadow="2"
     inkscape:window-width="1920"
     inkscape:window-height="1012"
     id="namedview9"
     showgrid="true"
     inkscape:zoom="32"
     inkscape:cx="15.504219"
     inkscape:cy="5.9062672"
     inkscape:window-x="0"
     inkscape:window-y="0"
     inkscape:window-maximized="1"
     inkscape:current-layer="svg7">
    <inkscape:grid
       type="xygrid"
       id="grid827" />
  </sodipodi:namedview>
  <defs
     id="defs3">
    <style
       id="current-color-scheme"
       type="text/css">
   .ColorScheme-Text { color:#404040; } .ColorScheme-Highlight { color:#5294e2; }
  </style>
  </defs>
  <path
     style="fill:#404040;fill-opacity:1"
     d="M 10.994141,4.9765625 V 14 h 3.001954 c 0.93855,0 1.768828,-0.372534 2.298828,-0.958984 0.53,-0.58644 0.765739,-1.336606 0.755859,-2.066406 -0.01,-0.72982 -0.262222,-1.4657695 -0.789062,-2.0429695 -0.53,-0.5769999 -1.349531,-0.955078 -2.269531,-0.955078 h -1.001954 v -3 z m -5.9941407,1 L 4.9952103,8 h 3.0000005 c 0,0.3511268 0,0.7123535 0.0048,0.9941405 H 6.996094 c -1.7159001,0 -3.0300875,1.1254745 -3.0546875,2.4843745 -0.0123,0.67945 0.3058281,1.362966 0.8613281,1.822266 C 5.3582346,13.760052 6.1180939,14 6.996094,14 H 10 V 8.0703125 C 10,6.8991125 9.112866,5.9882812 7.9160159,5.9882812 Z m 7.9941407,4 h 1.001954 c 0.42179,0 0.625509,0.1256935 0.787109,0.3027335 0.161601,0.17705 0.263838,0.446847 0.267578,0.722657 0.004,0.27581 -0.0886,0.529485 -0.240234,0.697265 C 14.658928,11.866989 14.454855,12 13.996095,12 H 12.994141 Z M 6.996094,10.994141 H 7.9999999 V 12 H 6.996094 c -0.5194101,0 -0.7937919,-0.135944 -0.9199219,-0.240234 -0.12614,-0.10428 -0.1360656,-0.174134 -0.1347657,-0.246094 0.003,-0.14393 0.084891,-0.519531 1.0546876,-0.519531 z M 5.5058596,14.792968 3.150391,17.146483 c -0.4713545,0.472658 0.2376299,1.179689 0.7089843,0.707033 l 1.6464843,-1.646485 2.0000003,2 2.0000001,-2 2,2 2,-2 2,2 2.353516,-2.353515 c 0.471354,-0.472656 -0.23763,-1.179688 -0.708984,-0.707032 l -1.644532,1.646485 -2,-2 -2,2 -2,-2 -2.0000001,2 z"
     id="path5-3"
     inkscape:connector-curvature="0"
     sodipodi:nodetypes="ccscccscccccccsscscscccscccsccsccsccsccccccccccccccccc" />
</svg>
