<?xml version="1.0" encoding="UTF-8" standalone="no"?>
<svg
   xmlns:dc="http://purl.org/dc/elements/1.1/"
   xmlns:cc="http://creativecommons.org/ns#"
   xmlns:rdf="http://www.w3.org/1999/02/22-rdf-syntax-ns#"
   xmlns:svg="http://www.w3.org/2000/svg"
   xmlns="http://www.w3.org/2000/svg"
   xmlns:sodipodi="http://sodipodi.sourceforge.net/DTD/sodipodi-0.dtd"
   xmlns:inkscape="http://www.inkscape.org/namespaces/inkscape"
   width="22"
   height="22"
   viewBox="0 0 22 22"
   version="1.1"
   id="svg7"
   sodipodi:docname="zoom-in.svg"
   inkscape:version="0.92.3 (2405546, 2018-03-11)">
  <sodipodi:namedview
     pagecolor="#ffffff"
     bordercolor="#666666"
     borderopacity="1"
     objecttolerance="10"
     gridtolerance="10"
     guidetolerance="10"
     inkscape:pageopacity="0"
     inkscape:pageshadow="2"
     inkscape:window-width="959"
     inkscape:window-height="1024"
     id="namedview7"
     showgrid="false"
     inkscape:zoom="10.727273"
     inkscape:cx="11"
     inkscape:cy="11"
     inkscape:window-x="0"
     inkscape:window-y="0"
     inkscape:window-maximized="0"
     inkscape:current-layer="svg7" />
  <metadata
     id="metadata11">
    <rdf:RDF>
      <cc:Work
         rdf:about="">
        <dc:format>image/svg+xml</dc:format>
        <dc:type
           rdf:resource="http://purl.org/dc/dcmitype/StillImage" />
      </cc:Work>
    </rdf:RDF>
  </metadata>
  <defs
     id="defs3">
    <style
       id="current-color-scheme"
       type="text/css">
   .ColorScheme-Text { color:#404040; } .ColorScheme-Highlight { color:#5294e2; }
  </style>
  </defs>
  <path
     inkscape:connector-curvature="0"
     style="fill:#404040;fill-opacity:1"
     d="m 5.9999998,4.9999998 c -0.55,0 -1,0.446 -1,1 V 16 c 0,0.554 0.45,1 1,1 H 16 c 0.55,0 1,-0.446 1,-1 V 5.9999998 c 0,-0.554 -0.45,-1 -1,-1 z m 1.5019531,1.9960938 c 2.36684,0.007 4.4973281,0 7.0937501,0 0.474083,0.1009092 0.402211,0.6185323 0.402344,0.9941406 3.5e-5,0.00345 0.002,0.0063 0.002,0.00977 v 0.048828 5.9511718 0.486328 c 0.003,0.494997 -0.534347,0.518866 -0.904297,0.509766 -0.02388,1.03e-4 -0.05206,-9.9e-5 -0.07617,0 -0.0069,1.4e-4 -0.01262,0.0039 -0.01953,0.0039 H 7.9999998 c -0.00691,0 -0.012655,-0.0038 -0.019531,-0.0039 -0.1553375,-1.16e-4 -0.4361133,0 -0.5722657,0 -0.4569478,-0.09728 -0.4060469,-0.59468 -0.4023439,-0.968754 -2.753e-4,-0.0097 -0.00586,-0.01762 -0.00586,-0.02734 V 7.9999998 c 0,-0.00346 0.00192,-0.00631 0.00195,-0.00977 V 7.4863279 c -0.006,-0.26876 0.23115,-0.4962343 0.5,-0.4902343 z m 2.4980469,1.0039062 v 2 h -2 V 12 h 2 v 2 H 12 v -2 h 2 V 9.9999998 h -2 v -2 z"
     id="path4" />
</svg>
