<?xml version="1.0" encoding="UTF-8" standalone="no"?>
<svg
   xmlns:dc="http://purl.org/dc/elements/1.1/"
   xmlns:cc="http://creativecommons.org/ns#"
   xmlns:rdf="http://www.w3.org/1999/02/22-rdf-syntax-ns#"
   xmlns:svg="http://www.w3.org/2000/svg"
   xmlns="http://www.w3.org/2000/svg"
   width="22"
   height="22"
   viewBox="0 0 22 22"
   version="1.1"
   id="svg7">
  <metadata
     id="metadata11">
    <rdf:RDF>
      <cc:Work
         rdf:about="">
        <dc:format>image/svg+xml</dc:format>
        <dc:type
           rdf:resource="http://purl.org/dc/dcmitype/StillImage" />
      </cc:Work>
    </rdf:RDF>
  </metadata>
  <defs
     id="defs3">
    <style
       id="current-color-scheme"
       type="text/css">
   .ColorScheme-Text { color:#404040; } .ColorScheme-Highlight { color:#5294e2; }
  </style>
  </defs>
  <path
     style="fill:#404040;fill-opacity:1"
     d="M 6,5 C 5.45,5 5,5.446 5,6 v 10 c 0,0.554 0.45,1 1,1 h 10 c 0.55,0 1,-0.446 1,-1 V 6 C 17,5.446 16.55,5 16,5 Z m 1.5019531,1.9960938 c 2.36684,0.007 4.4973279,0 7.0937499,0 0.474083,0.1009092 0.402211,0.6185323 0.402344,0.9941406 C 14.998082,7.9936884 15,7.9965375 15,8 V 8.0488281 14 14.486328 c 0.003,0.494997 -0.534347,0.518866 -0.904297,0.509766 -0.02388,1.03e-4 -0.05206,-9.9e-5 -0.07617,0 C 14.012653,14.996234 14.006908,15 14,15 H 8 c -0.00691,0 -0.012655,-0.0038 -0.019531,-0.0039 -0.1553375,-1.16e-4 -0.4361133,0 -0.5722657,0 C 6.9512555,14.898817 7.0021564,14.401418 7.0058594,14.027344 7.0055841,14.01769 7,14.009722 7,14 V 8 C 7,7.99654 7.00192,7.99369 7.00195,7.99023 V 7.4863281 c -0.006,-0.26876 0.23115,-0.4962343 0.5,-0.4902343 z M 8,8 v 2 H 9 V 9 h 1 V 8 Z m 4,0 v 1 h 1 v 1 h 1 V 8 Z m -4,4 v 2 h 2 V 13 H 9 v -1 z m 5,0 v 1 h -1 v 1 h 2 v -2 z"
     id="path4" />
</svg>
