<?xml version="1.0" encoding="UTF-8" standalone="no"?>
<svg
   xmlns:dc="http://purl.org/dc/elements/1.1/"
   xmlns:cc="http://creativecommons.org/ns#"
   xmlns:rdf="http://www.w3.org/1999/02/22-rdf-syntax-ns#"
   xmlns:svg="http://www.w3.org/2000/svg"
   xmlns="http://www.w3.org/2000/svg"
   xmlns:xlink="http://www.w3.org/1999/xlink"
   xmlns:sodipodi="http://sodipodi.sourceforge.net/DTD/sodipodi-0.dtd"
   xmlns:inkscape="http://www.inkscape.org/namespaces/inkscape"
   width="48"
   height="48"
   version="1"
   id="svg44"
   sodipodi:docname="notification-network-wireless-disconnected.svg"
   inkscape:version="0.92.3 (2405546, 2018-03-11)">
  <metadata
     id="metadata48">
    <rdf:RDF>
      <cc:Work
         rdf:about="">
        <dc:format>image/svg+xml</dc:format>
        <dc:type
           rdf:resource="http://purl.org/dc/dcmitype/StillImage" />
      </cc:Work>
    </rdf:RDF>
  </metadata>
  <sodipodi:namedview
     pagecolor="#ffffff"
     bordercolor="#666666"
     borderopacity="1"
     objecttolerance="10"
     gridtolerance="10"
     guidetolerance="10"
     inkscape:pageopacity="0"
     inkscape:pageshadow="2"
     inkscape:window-width="1001"
     inkscape:window-height="728"
     id="namedview46"
     showgrid="false"
     inkscape:zoom="6.9532167"
     inkscape:cx="22.600485"
     inkscape:cy="22.983315"
     inkscape:window-x="240"
     inkscape:window-y="592"
     inkscape:window-maximized="0"
     inkscape:current-layer="svg44" />
  <defs
     id="defs14">
    <clipPath
       id="clipPath5078"
       clipPathUnits="userSpaceOnUse">
      <path
         fill="#2095f2"
         d="m160 247c-7.9134 0-15.037 2.8117-20.945 7.1718l20.94 22.82 20.78-22.9c-5.88-4.31-12.93-7.09-20.78-7.09z"
         id="path2" />
    </clipPath>
    <filter
       id="filter5060"
       style="color-interpolation-filters:sRGB"
       width="1.205"
       height="1.288"
       x="-.1"
       y="-.14">
      <feGaussianBlur
         stdDeviation="1.443"
         id="feGaussianBlur5" />
    </filter>
    <clipPath
       id="clipPath5085"
       clipPathUnits="userSpaceOnUse">
      <path
         fill="#2095f2"
         d="m160 247c-7.9134 0-15.037 2.8117-20.945 7.1718l20.94 22.82 20.78-22.9c-5.88-4.31-12.93-7.09-20.78-7.09z"
         id="path8" />
    </clipPath>
    <filter
       id="filter5064"
       style="color-interpolation-filters:sRGB"
       width="1.274"
       height="1.385"
       x="-.14"
       y="-.19">
      <feGaussianBlur
         stdDeviation="1.443"
         id="feGaussianBlur11" />
    </filter>
    <radialGradient
       inkscape:collect="always"
       xlink:href="#linearGradient2521-766"
       id="radialGradient3385-186"
       cx="0.10470093"
       cy="-19.536638"
       fx="0.10470093"
       fy="-19.536638"
       r="4.5943856"
       gradientTransform="matrix(8.3080024e-7,8.6383219,-10.432547,1.0033618e-6,-203.7122,-0.5931084)"
       gradientUnits="userSpaceOnUse" />
    <linearGradient
       id="linearGradient2521-766">
      <stop
         id="stop3296"
         offset="0"
         style="stop-color:#c5c5c5;stop-opacity:1;" />
      <stop
         id="stop3298"
         offset="1"
         style="stop-color:#7d7d7d;stop-opacity:1;" />
    </linearGradient>
    <radialGradient
       inkscape:collect="always"
       xlink:href="#linearGradient2521-766"
       id="radialGradient3368-801"
       cx="47.875648"
       cy="-3.5826292"
       fx="47.875648"
       fy="-3.5826292"
       r="22.884054"
       gradientTransform="matrix(2.6708795e-8,1.7378252,-2.0934422,3.2174306e-8,-7.3756773,-82.760394)"
       gradientUnits="userSpaceOnUse" />
    <radialGradient
       inkscape:collect="always"
       xlink:href="#linearGradient2521-766"
       id="radialGradient3372-330"
       cx="0.24897389"
       cy="-57.652908"
       fx="0.24897389"
       fy="-57.652908"
       r="16.754038"
       gradientTransform="matrix(-6.1323916e-8,2.3786212,-2.8469673,-7.3398481e-8,-163.88697,-0.5789265)"
       gradientUnits="userSpaceOnUse" />
    <radialGradient
       inkscape:collect="always"
       xlink:href="#linearGradient2521-766"
       id="radialGradient3374-192"
       cx="0.39334029"
       cy="-64.223083"
       fx="0.39334029"
       fy="-64.223083"
       r="10.949134"
       gradientTransform="matrix(3.9099873e-7,3.6854511,-4.3396167,4.604008e-7,-278.31023,-1.5533348)"
       gradientUnits="userSpaceOnUse" />
  </defs>
  <g
     transform="translate(0.00708083)"
     id="g886">
    <path
       inkscape:connector-curvature="0"
       sodipodi:nodetypes="ccczc"
       id="path2538"
       d="m 28.574733,35.052298 c -0.200831,0.173216 -4.633541,4.881645 -4.633541,4.881645 0,0 -4.390501,-4.748218 -4.55523,-4.881645 0.294385,-0.221168 1.495905,-1.090918 4.564801,-1.078514 3.019728,0.01221 4.393969,0.864131 4.62397,1.078514 z"
       style="overflow:visible;opacity:0.4;fill:url(#radialGradient3385-186);fill-opacity:1;fill-rule:evenodd;stroke:none;stroke-width:5.33333349;stroke-linecap:round;stroke-linejoin:miter;stroke-miterlimit:4;stroke-dasharray:none;stroke-opacity:1" />
    <path
       inkscape:connector-curvature="0"
       id="path2513"
       d="m 3.1159451,17.376485 c 0,0 6.6138633,-7.310428 20.8428739,-7.310428 14.159063,0 20.925236,7.322834 20.925236,7.322834"
       style="overflow:visible;opacity:0.4;fill:none;fill-rule:evenodd;stroke:url(#radialGradient3368-801);stroke-width:4;stroke-linecap:butt;stroke-linejoin:miter;stroke-miterlimit:4;stroke-dasharray:none;stroke-opacity:1" />
    <path
       inkscape:connector-curvature="0"
       id="path2511"
       d="m 9.204781,23.851864 c 0,0 4.763209,-5.161704 14.754038,-4.978058 10.073702,0.185169 14.754038,5.06096 14.754038,5.06096"
       style="overflow:visible;opacity:0.4;fill:none;fill-rule:evenodd;stroke:url(#radialGradient3372-330);stroke-width:4;stroke-linecap:butt;stroke-linejoin:miter;stroke-miterlimit:4;stroke-dasharray:none;stroke-opacity:1" />
    <path
       inkscape:connector-curvature="0"
       sodipodi:nodetypes="csc"
       id="path3209"
       d="m 14.988249,30.322943 c 0,0 2.170265,-2.750913 8.819479,-2.821031 6.566322,-0.06924 9.078788,2.821031 9.078788,2.821031"
       style="overflow:visible;opacity:0.4;fill:none;fill-rule:evenodd;stroke:url(#radialGradient3374-192);stroke-width:4;stroke-linecap:butt;stroke-linejoin:miter;stroke-miterlimit:4;stroke-dasharray:none;stroke-opacity:1" />
  </g>
  <path
     fill="#fff"
     opacity=".1"
     d="m24.001 14.993c-6.3037 0-12.155 2.069-16.854 5.5606l0.56445 0.61328c4.6011-3.2483 10.231-5.1738 16.289-5.1738 6.0605 0 11.689 1.9275 16.291 5.1777l0.561-0.618c-4.698-3.492-10.547-5.561-16.851-5.561z"
     id="path28" />
  <circle
     fill="#db3c30"
     cx="34"
     cy="36"
     r="10"
     id="circle34" />
  <path
     opacity=".2"
     d="m43.979 36.414a10 10 0 0 1 -9.979 9.586 10 10 0 0 1 -9.979 -9.414 10 10 0 0 0 -0.021 0.414 10 10 0 0 0 10 10 10 10 0 0 0 10 -10 10 10 0 0 0 -0.021 -0.586z"
     id="path36" />
  <g
     fill="#fff"
     transform="matrix(.70711 -.70711 .70711 .70711 -15.497 34.846)"
     id="g42">
    <rect
       width="12"
       height="2"
       x="28"
       y="35"
       id="rect38" />
    <rect
       width="12"
       height="2"
       x="-42"
       y="33"
       transform="rotate(-90)"
       id="rect40" />
  </g>
</svg>
