<?xml version="1.0" encoding="UTF-8" standalone="no"?>
<svg
   xmlns:osb="http://www.openswatchbook.org/uri/2009/osb"
   xmlns:dc="http://purl.org/dc/elements/1.1/"
   xmlns:cc="http://creativecommons.org/ns#"
   xmlns:rdf="http://www.w3.org/1999/02/22-rdf-syntax-ns#"
   xmlns:svg="http://www.w3.org/2000/svg"
   xmlns="http://www.w3.org/2000/svg"
   xmlns:sodipodi="http://sodipodi.sourceforge.net/DTD/sodipodi-0.dtd"
   xmlns:inkscape="http://www.inkscape.org/namespaces/inkscape"
   width="16"
   version="1.1"
   style="enable-background:new"
   id="svg7384"
   height="16"
   inkscape:version="0.91 r13725"
   sodipodi:docname="applets-screenshooter-symbolic.svg">
  <sodipodi:namedview
     pagecolor="#ffffff"
     bordercolor="#666666"
     borderopacity="1"
     objecttolerance="10"
     gridtolerance="10"
     guidetolerance="10"
     inkscape:pageopacity="0"
     inkscape:pageshadow="2"
     inkscape:window-width="1920"
     inkscape:window-height="1026"
     id="namedview20"
     showgrid="true"
     inkscape:zoom="32"
     inkscape:cx="6.07151"
     inkscape:cy="9.4946513"
     inkscape:window-x="0"
     inkscape:window-y="0"
     inkscape:window-maximized="1"
     inkscape:current-layer="svg7384">
    <inkscape:grid
       type="xygrid"
       id="grid4154" />
  </sodipodi:namedview>
  <metadata
     id="metadata90">
    <rdf:RDF>
      <cc:Work
         rdf:about="">
        <dc:format>image/svg+xml</dc:format>
        <dc:type
           rdf:resource="http://purl.org/dc/dcmitype/StillImage" />
        <dc:title>Moka Symbolic Icon Theme</dc:title>
      </cc:Work>
    </rdf:RDF>
  </metadata>
  <title
     id="title8473">Moka Symbolic Icon Theme</title>
  <defs
     id="defs7386">
    <linearGradient
       osb:paint="solid"
       id="linearGradient5606">
      <stop
         style="stop-color:#000000;stop-opacity:1;"
         offset="0"
         id="stop5608" />
    </linearGradient>
    <filter
       style="color-interpolation-filters:sRGB"
       id="filter7554">
      <feBlend
         mode="darken"
         in2="BackgroundImage"
         id="feBlend7556" />
    </filter>
    <filter
       style="color-interpolation-filters:sRGB"
       id="filter7554-7">
      <feBlend
         mode="darken"
         in2="BackgroundImage"
         id="feBlend7556-5" />
    </filter>
    <filter
       style="color-interpolation-filters:sRGB"
       id="filter7554-0">
      <feBlend
         mode="darken"
         in2="BackgroundImage"
         id="feBlend7556-9" />
    </filter>
  </defs>
  <path
     style="color:#bebebe;display:inline;overflow:visible;visibility:visible;fill:#bebebe;fill-opacity:1;fill-rule:nonzero;stroke:none;stroke-width:3;marker:none;enable-background:accumulate"
     d="M 2 0 C 0.80008 0 0 0.7984 0 2 L 0 11.875 C 0 13.0766 0.80008 14 2 14 L 2 2.25 C 2 2.1262 2.0566 2 2.1875 2 L 13.8125 2 C 13.9434 2 14 2.1262 14 2.25 L 14 6 L 16 6 L 16 2 C 16 0.7984 15.19992 0 14 0 L 2 0 z M 9 6 L 9 7 L 13 7 L 13 6 L 9 6 z M 4 8 C 3.44799 8 3 8.45004 3 9 L 3 15 C 3 15.54996 3.44799 16 4 16 L 14 16 C 14.55201 16 15 15.54996 15 15 L 15 9 C 15 8.45004 14.55201 8 14 8 L 12.5625 8 L 12 8 L 6 8 L 5.4375 8 L 4 8 z M 4 9 L 6 9 L 6 10 L 4 10 L 4 9 z M 11 9 C 12.65685 9 14 10.34315 14 12 C 14 13.65685 12.65685 15 11 15 C 9.3431499 15 8 13.65685 8 12 C 8 10.34315 9.3431499 9 11 9 z M 11 10 C 9.8954299 10 9 10.89543 9 12 C 9 13.10457 9.8954299 14 11 14 C 12.10457 14 13 13.10457 13 12 C 13 10.89543 12.10457 10 11 10 z "
     id="rect5238-9" />
  <g
     transform="translate(-321.0002,156.00336)"
     style="display:inline"
     id="layer9" />
  <g
     transform="translate(-80,-460.99664)"
     style="display:inline"
     id="layer1" />
  <g
     transform="translate(-321.0002,156.00336)"
     style="display:inline"
     id="layer14" />
  <g
     transform="translate(-321.0002,156.00336)"
     style="display:inline"
     id="layer15" />
  <g
     transform="translate(-321.0002,156.00336)"
     style="display:inline"
     id="g71291" />
  <g
     transform="translate(-80,-310.99664)"
     style="display:inline"
     id="layer2" />
  <g
     transform="translate(-80,-310.99664)"
     style="display:inline"
     id="g6058" />
  <g
     transform="translate(-321.0002,156.00336)"
     style="display:inline"
     id="layer12" />
</svg>
