<?xml version="1.0" encoding="UTF-8" standalone="no"?>
<svg
   xmlns:dc="http://purl.org/dc/elements/1.1/"
   xmlns:cc="http://creativecommons.org/ns#"
   xmlns:rdf="http://www.w3.org/1999/02/22-rdf-syntax-ns#"
   xmlns:svg="http://www.w3.org/2000/svg"
   xmlns="http://www.w3.org/2000/svg"
   xmlns:sodipodi="http://sodipodi.sourceforge.net/DTD/sodipodi-0.dtd"
   xmlns:inkscape="http://www.inkscape.org/namespaces/inkscape"
   width="16"
   height="16"
   version="1.1"
   id="svg16"
   sodipodi:docname="preferences-desktop-screensaver-symbolic.svg"
   inkscape:version="0.92.3 (2405546, 2018-03-11)">
  <metadata
     id="metadata22">
    <rdf:RDF>
      <cc:Work
         rdf:about="">
        <dc:format>image/svg+xml</dc:format>
        <dc:type
           rdf:resource="http://purl.org/dc/dcmitype/StillImage" />
      </cc:Work>
    </rdf:RDF>
  </metadata>
  <defs
     id="defs20" />
  <sodipodi:namedview
     pagecolor="#ffffff"
     bordercolor="#666666"
     borderopacity="1"
     objecttolerance="10"
     gridtolerance="10"
     guidetolerance="10"
     inkscape:pageopacity="0"
     inkscape:pageshadow="2"
     inkscape:window-width="737"
     inkscape:window-height="480"
     id="namedview18"
     showgrid="false"
     inkscape:zoom="14.75"
     inkscape:cx="8.5791729"
     inkscape:cy="8"
     inkscape:window-x="0"
     inkscape:window-y="0"
     inkscape:window-maximized="0"
     inkscape:current-layer="svg16" />
  <path
     style="fill:#bebebe;fill-opacity:1"
     d="M 10.48,4.69 C 10.8,5.08 11,5.58 11,6.12 11,7.37 9.99,8.38 8.74,8.38 8.2,8.38 7.7,8.18 7.31,7.86 7.59,9.02 8.63,9.88 9.87,9.88 11.32,9.88 12.5,8.7 12.5,7.25 12.5,6.01 11.64,4.96 10.48,4.69 Z"
     id="path2" />
  <path
     style="fill:#bebebe;fill-opacity:1"
     d="M 5.5,7.5 5,6 3.5,5.5 5,5 5.5,3.5 6,5 7.5,5.5 6,6 Z"
     id="path4" />
  <path
     style="fill:#bebebe;fill-opacity:1"
     d="M 2,0 C 0,0 0,2 0,2 V 11 C 0,11 0,13 2,13 H 14 C 14,13 16,13 16,11 V 2 C 16,2 16,0 14,0 Z M 2,2 H 14 V 11 H 2 Z M 3,15 V 16 H 13 V 15 C 13,14 12,14 12,14 H 4 C 4,14 3,14 3,15 Z"
     id="path6" />
  <path
     style="fill:#bebebe;fill-opacity:1"
     d="M 8,3.5 A 0.5,0.5 0 0 1 7.5,4 0.5,0.5 0 0 1 7,3.5 0.5,0.5 0 0 1 7.5,3 0.5,0.5 0 0 1 8,3.5 Z"
     id="path8" />
  <path
     style="fill:#bebebe;fill-opacity:1"
     d="M 13,3.5 A 0.5,0.5 0 0 1 12.5,4 0.5,0.5 0 0 1 12,3.5 0.5,0.5 0 0 1 12.5,3 0.5,0.5 0 0 1 13,3.5 Z"
     id="path10" />
  <path
     style="fill:#bebebe;fill-opacity:1"
     d="M 9,5.5 A 0.5,0.5 0 0 1 8.5,6 0.5,0.5 0 0 1 8,5.5 0.5,0.5 0 0 1 8.5,5 0.5,0.5 0 0 1 9,5.5 Z"
     id="path12" />
  <path
     style="fill:#bebebe;fill-opacity:1"
     d="M 5,8.5 A 0.5,0.5 0 0 1 4.5,9 0.5,0.5 0 0 1 4,8.5 0.5,0.5 0 0 1 4.5,8 0.5,0.5 0 0 1 5,8.5 Z"
     id="path14" />
</svg>
