<?xml version="1.0" encoding="UTF-8" standalone="no"?>
<svg
   xmlns:osb="http://www.openswatchbook.org/uri/2009/osb"
   xmlns:dc="http://purl.org/dc/elements/1.1/"
   xmlns:cc="http://creativecommons.org/ns#"
   xmlns:rdf="http://www.w3.org/1999/02/22-rdf-syntax-ns#"
   xmlns:svg="http://www.w3.org/2000/svg"
   xmlns="http://www.w3.org/2000/svg"
   width="16"
   version="1.1"
   style="enable-background:new"
   id="svg7384"
   height="16">
  <metadata
     id="metadata90">
    <rdf:RDF>
      <cc:Work
         rdf:about="">
        <dc:format>image/svg+xml</dc:format>
        <dc:type
           rdf:resource="http://purl.org/dc/dcmitype/StillImage" />
        <dc:title>Moka Symbolic Icon Theme</dc:title>
      </cc:Work>
    </rdf:RDF>
  </metadata>
  <title
     id="title8473">Moka Symbolic Icon Theme</title>
  <defs
     id="defs7386">
    <linearGradient
       osb:paint="solid"
       id="linearGradient5606">
      <stop
         style="stop-color:#000000;stop-opacity:1;"
         offset="0"
         id="stop5608" />
    </linearGradient>
    <filter
       style="color-interpolation-filters:sRGB"
       id="filter7554">
      <feBlend
         mode="darken"
         in2="BackgroundImage"
         id="feBlend7556" />
    </filter>
  </defs>
  <g
     transform="translate(-661.0002,-14.99664)"
     style="display:inline"
     id="layer9" />
  <g
     transform="translate(-661.0002,-14.99664)"
     style="display:inline;filter:url(#filter7554)"
     id="layer10" />
  <g
     transform="translate(-420,-631.99664)"
     style="display:inline"
     id="layer1" />
  <g
     transform="translate(-661.0002,-14.99664)"
     style="display:inline"
     id="layer14" />
  <g
     transform="translate(-661.0002,-14.99664)"
     style="display:inline"
     id="layer15" />
  <g
     transform="translate(-661.0002,-14.99664)"
     style="display:inline"
     id="g71291" />
  <g
     transform="translate(-420,-481.99664)"
     style="display:inline"
     id="layer2" />
  <g
     transform="translate(-661.0002,-14.99664)"
     style="display:inline"
     id="layer12" />
  <path
     id="path883"
     style="fill:#bebebe;stroke:none;stroke-width:1.99866;stroke-linecap:round;stroke-linejoin:round;stroke-opacity:1;stop-color:#000000;fill-opacity:1"
     d="m 11.004999,2.0253903 c -2.2061771,0 -3.9946367,1.790861 -3.9946367,3.9999999 5.1e-5,2.090917 1.6083105,3.8290123 3.6903577,3.9882808 C 8.3692287,10.084051 6.7763765,10.97937 6,13 c 0,1.108 0.8908039,2 1.9973181,2 h 5.9919549 c 1.106514,0 1.997318,-0.892 1.997318,-2 -0.05056,-1.676671 -2.320922,-2.893662 -4.718275,-2.982423 2.099724,-0.1388968 3.731786,-1.8850611 3.731318,-3.9921868 0,-2.2091389 -1.788458,-3.9999999 -3.994635,-3.9999999 z m -8.0750956,1.988281 c -1.6340299,0.02877 -2.94356552,1.363523 -2.94331286,3.0000003 6.3615e-4,1.6297622 1.30055466,2.9609107 2.92770876,2.9980464 -1.4657488,0.06475 -2.86676759,1.679019 -2.90625358,2.988281 0,1.108 0.89080388,2 1.99731808,2 h 2.9959771 c 0.1592232,0 0.3120401,-0.02367 0.460319,-0.05859 C 4.9988203,14.221806 4.903712,13.781493 4.9273193,13.000734 5.1951058,11.999999 5.5929456,11.417604 6,11.058594 5.45781,10.515676 4.140365,10.060925 3.0976471,10.011718 4.706417,9.9497943 5.9786846,8.6257911 5.9785448,7.0136716 c 0,-1.6568543 -1.3413449,-3.0000003 -2.9959771,-3.0000003 -0.017556,-1.54e-4 -0.035113,-1.54e-4 -0.052669,0 z" />
</svg>
