<?xml version="1.0" encoding="UTF-8" standalone="no"?>
<!-- Created with Inkscape (http://www.inkscape.org/) -->

<svg
   xmlns:dc="http://purl.org/dc/elements/1.1/"
   xmlns:cc="http://creativecommons.org/ns#"
   xmlns:rdf="http://www.w3.org/1999/02/22-rdf-syntax-ns#"
   xmlns:svg="http://www.w3.org/2000/svg"
   xmlns="http://www.w3.org/2000/svg"
   xmlns:sodipodi="http://sodipodi.sourceforge.net/DTD/sodipodi-0.dtd"
   xmlns:inkscape="http://www.inkscape.org/namespaces/inkscape"
   width="16"
   height="16"
   viewBox="0 0 16 16"
   id="svg2"
   version="1.1"
   inkscape:version="0.91 r13725"
   sodipodi:docname="utilities-terminal-symbolic.svg">
  <defs
     id="defs4">
    <linearGradient
       id="outerBackgroundGradient-5-6">
      <stop
         style="stop-color:#1e1e1e;stop-opacity:1;"
         offset="0"
         id="stop3864-8-6-9-1" />
      <stop
         style="stop-color:#3a3a3a;stop-opacity:1;"
         offset="1"
         id="stop3866-9-1-9-3" />
    </linearGradient>
  </defs>
  <sodipodi:namedview
     id="base"
     pagecolor="#ffffff"
     bordercolor="#666666"
     borderopacity="1.0"
     inkscape:pageopacity="0.0"
     inkscape:pageshadow="2"
     inkscape:zoom="45.254834"
     inkscape:cx="5.0081276"
     inkscape:cy="6.6127249"
     inkscape:document-units="px"
     inkscape:current-layer="layer1"
     showgrid="true"
     units="px"
     inkscape:window-width="1920"
     inkscape:window-height="1026"
     inkscape:window-x="0"
     inkscape:window-y="0"
     inkscape:window-maximized="1">
    <inkscape:grid
       type="xygrid"
       id="grid4136" />
  </sodipodi:namedview>
  <metadata
     id="metadata7">
    <rdf:RDF>
      <cc:Work
         rdf:about="">
        <dc:format>image/svg+xml</dc:format>
        <dc:type
           rdf:resource="http://purl.org/dc/dcmitype/StillImage" />
        <dc:title />
      </cc:Work>
    </rdf:RDF>
  </metadata>
  <g
     inkscape:label="Ebene 1"
     inkscape:groupmode="layer"
     id="layer1"
     transform="translate(0,-1036.3622)">
    <path
       style="color:#bebebe;font-style:normal;font-variant:normal;font-weight:normal;font-stretch:normal;font-size:medium;line-height:normal;font-family:'Bitstream Vera Sans';-inkscape-font-specification:'Bitstream Vera Sans';text-indent:0;text-align:start;text-decoration:none;text-decoration-line:none;letter-spacing:normal;word-spacing:normal;text-transform:none;direction:ltr;block-progression:tb;writing-mode:lr-tb;text-anchor:start;display:inline;overflow:visible;visibility:visible;fill:#bebebe;fill-opacity:1;stroke:none;stroke-width:2;marker:none;enable-background:accumulate"
       d="M 2.1875,0 C 0.98196,0 0,1.01665 0,2.21875 l 0,10.5625 C 0,13.98325 0.98197,15 2.1875,15 l 11.625,0 C 15.01803,15 16,13.98325 16,12.78125 L 16,2.21875 C 16,1.01665 15.01804,0 13.8125,0 Z m 1.8146485,4 1.0097657,0 0,0.5703125 c 0.278745,0.056 0.5353644,0.1635189 0.7714843,0.3242187 0.2393901,0.1574002 0.4569006,0.3531376 0.6503907,0.5859376 L 5.8380861,6.2324219 c 0,0 -0.1793137,-0.224025 -0.2617187,-0.328125 -0.065595,-0.076 -0.15413,-0.1504563 -0.265625,-0.2226563 -0.108225,-0.072 -0.2230413,-0.1228437 -0.3476563,-0.1523437 l 0,1.4804687 c 0.26563,0.085 0.499795,0.1801563 0.703125,0.2851563 0.20332,0.1049 0.3713944,0.2275344 0.5058594,0.3652343 0.13773,0.1377 0.2416719,0.2929969 0.3105469,0.4667969 0.06886,0.1706 0.1035106,0.3662375 0.1035156,0.5859375 -5e-6,0.2066 -0.037205,0.40355 -0.109375,0.59375 -0.07215,0.1869 -0.1767131,0.3576188 -0.3144531,0.5117188 -0.134455,0.1541 -0.2987025,0.2869376 -0.4921875,0.3984376 -0.19349,0.1115 -0.4122481,0.192987 -0.6582031,0.242187 l 0,0.541016 -1.0097657,0 0,-0.511719 C 3.6938836,10.435281 3.3987918,10.331834 3.1134767,10.177734 2.8281669,10.023634 2.5728049,9.824025 2.3498049,9.578125 L 2.9650393,8.7128906 3.2501955,9.0664062 c 0.111505,0.1213002 0.2288906,0.2252469 0.3535156,0.3105469 0.127895,0.085 0.2786888,0.1455406 0.4492187,0.1816407 l 0,-1.8007813 C 3.8135349,7.6688125 3.5986036,7.5711906 3.4083986,7.4628906 3.2214686,7.3546906 3.061058,7.2347156 2.929883,7.1035156 2.801988,6.9691156 2.7038311,6.8208563 2.6349611,6.6601562 2.5660961,6.4961563 2.5314455,6.3185 2.5314455,6.125 c 0,-0.1836 0.034616,-0.3601436 0.1035156,-0.5273438 0.06887,-0.1673 0.1670269,-0.3166718 0.2949219,-0.4511718 0.1279,-0.1344 0.2825206,-0.2506031 0.4628906,-0.3457032 0.183645,-0.098 0.386375,-0.1689437 0.609375,-0.2148437 z m 0.050781,1.5195312 c -0.137735,0.036 -0.2506824,0.099606 -0.3359374,0.1914063 -0.085275,0.092 -0.1269531,0.2111688 -0.1269531,0.3554687 0,0.1049002 0.034611,0.2127188 0.1035156,0.3242188 0.068865,0.1115 0.1888449,0.1967594 0.3593749,0.2558594 z m 0.9101562,2.5585938 0,1.421875 C 5.1401711,9.438 5.2825955,9.349175 5.3908205,9.234375 5.5023155,9.119675 5.5568311,8.9656906 5.5568361,8.7753906 5.5568311,8.6179906 5.5087268,8.4813812 5.4103517,8.3632812 5.3152467,8.2452813 5.1664061,8.150325 4.9630857,8.078125 Z M 8.0001955,10 l 3.9999995,0 0,1 -3.9999995,0 z"
       transform="translate(0,1036.3622)"
       id="rect11749-5-9-3"
       inkscape:connector-curvature="0"
       sodipodi:nodetypes="sssssssssccccccccccccccccsccccscccccccccscccccccscccccccccccccc" />
  </g>
</svg>
